<?xml version="1.0" encoding="utf-8"?>
<!-- Generator: Adobe Illustrator 15.0.0, SVG Export Plug-In . SVG Version: 6.00 Build 0)  -->
<!DOCTYPE svg PUBLIC "-//W3C//DTD SVG 1.1//EN" "http://www.w3.org/Graphics/SVG/1.1/DTD/svg11.dtd">
<svg version="1.1" id="Layer_1" xmlns="http://www.w3.org/2000/svg" xmlns:xlink="http://www.w3.org/1999/xlink" x="0px" y="0px"
	 width="85.5px" height="86px" viewBox="0 0 85.5 86" enable-background="new 0 0 85.5 86" xml:space="preserve">
<g>
	<g>
		<g>
			<path fill="#FFFFFF" d="M44.901,1.77c0.589,0,3.479-0.532,4.423-0.532c2.625,0,4.984,2.92,4.984,5.929
				c0,1.297-0.708,1.71-1.385,1.71c-0.619,0-1.298-0.354-1.298-1.033c0-1.534-0.973-3.48-2.715-3.48
				c-0.796,0-3.685,0.531-4.335,0.531c-0.796,0-1.473-0.708-1.592-1.062c-0.09,0.383-0.738,1.062-1.563,1.062
				c-0.708,0-4.572-0.531-5.367-0.531c-1.829,0-2.3,2.33-2.3,3.48c0,0.796-0.828,1.033-1.327,1.033
				c-0.915,0-1.357-0.649-1.357-1.741c0-3.008,1.917-5.898,4.659-5.898c1.003,0,4.748,0.532,5.368,0.532
				c1.122,0,0.324-1.77,1.946-1.77C44.636,0,43.84,1.77,44.901,1.77z"/>
		</g>
		<g>
			<path fill="#FFFFFF" d="M70.657,12.989c0.452,0.38,3.006,1.834,3.728,2.441c2.01,1.69,1.935,5.443-0.001,7.745
				c-0.835,0.994-1.643,0.854-2.161,0.417c-0.474-0.398-0.766-1.106-0.329-1.625c0.987-1.175,1.496-3.291,0.162-4.41
				c-0.608-0.513-3.162-1.967-3.658-2.384c-0.608-0.513-0.672-1.491-0.534-1.838c-0.316,0.236-1.25,0.337-1.881-0.193
				c-0.541-0.457-3.157-3.35-3.766-3.861c-1.398-1.177-3.261,0.302-4.001,1.182c-0.514,0.609-1.297,0.258-1.681-0.065
				c-0.699-0.588-0.62-1.369,0.082-2.205c1.938-2.302,5.263-3.28,7.363-1.515c0.768,0.646,3.291,3.463,3.766,3.862
				c0.859,0.721,1.388-1.145,2.629-0.101C71.594,11.465,69.846,12.306,70.657,12.989z"/>
		</g>
		<g>
			<path fill="#FFFFFF" d="M83.146,38.155c0.102,0.582,1.12,3.337,1.281,4.268c0.449,2.586-2.024,5.411-4.988,5.927
				c-1.277,0.223-1.805-0.404-1.922-1.072c-0.105-0.609,0.126-1.34,0.797-1.457c1.51-0.262,3.26-1.555,2.961-3.269
				c-0.135-0.785-1.152-3.541-1.264-4.18c-0.138-0.785,0.444-1.574,0.773-1.751c-0.393-0.022-1.174-0.545-1.314-1.358
				c-0.121-0.698-0.26-4.596-0.397-5.379c-0.312-1.802-2.688-1.868-3.822-1.67c-0.785,0.135-1.158-0.638-1.243-1.131
				c-0.157-0.901,0.405-1.449,1.482-1.635c2.963-0.515,6.138,0.878,6.607,3.58c0.173,0.988,0.291,4.77,0.396,5.38
				c0.193,1.104,1.8,0.017,2.077,1.614C84.844,37.591,82.967,37.11,83.146,38.155z"/>
		</g>
		<g>
			<path fill="#FFFFFF" d="M76.505,65.453c-0.297,0.51-1.292,3.275-1.768,4.092c-1.319,2.268-5.031,2.838-7.63,1.324
				c-1.123-0.652-1.123-1.473-0.781-2.059c0.312-0.535,0.959-0.943,1.545-0.602c1.325,0.77,3.497,0.908,4.372-0.594
				c0.401-0.689,1.396-3.453,1.724-4.014c0.399-0.689,1.354-0.918,1.717-0.844c-0.285-0.268-0.545-1.172-0.131-1.885
				c0.356-0.611,2.76-3.684,3.16-4.371c0.921-1.58-0.855-3.16-1.85-3.738c-0.689-0.402-0.478-1.234-0.225-1.666
				c0.459-0.791,1.242-0.848,2.187-0.299c2.599,1.514,4.132,4.623,2.752,6.994c-0.505,0.867-2.849,3.836-3.159,4.371
				c-0.563,0.971,1.365,1.172,0.551,2.574C78.167,66.115,77.038,64.537,76.505,65.453z"/>
		</g>
		<g>
			<path fill="#FFFFFF" d="M53.851,82.068c-0.556,0.199-3.095,1.676-3.986,1.994c-2.47,0.885-5.677-1.066-6.692-3.898
				c-0.438-1.223,0.089-1.85,0.728-2.078c0.582-0.209,1.342-0.105,1.57,0.533c0.519,1.443,2.091,2.947,3.728,2.361
				c0.751-0.27,3.292-1.744,3.902-1.963c0.751-0.27,1.626,0.168,1.856,0.461c-0.045-0.391,0.338-1.248,1.114-1.527
				c0.666-0.238,4.482-1.043,5.232-1.312c1.721-0.615,1.378-2.969,0.99-4.053c-0.269-0.75,0.429-1.248,0.9-1.418
				c0.86-0.309,1.496,0.152,1.865,1.18c1.016,2.832,0.188,6.199-2.395,7.125c-0.945,0.338-4.649,1.104-5.232,1.312
				c-1.056,0.379,0.291,1.775-1.236,2.322C54.697,83.645,54.849,81.711,53.851,82.068z"/>
		</g>
		<g>
			<path fill="#FFFFFF" d="M25.818,80.201c-0.555-0.205-3.447-0.711-4.334-1.039c-2.46-0.912-3.658-4.473-2.613-7.293
				c0.453-1.217,1.259-1.355,1.896-1.121c0.58,0.217,1.093,0.783,0.857,1.42c-0.533,1.438-0.296,3.602,1.334,4.205
				c0.747,0.277,3.642,0.785,4.249,1.008c0.748,0.277,1.138,1.178,1.125,1.549c0.217-0.326,1.062-0.736,1.836-0.449
				c0.662,0.246,4.102,2.086,4.847,2.363c1.716,0.637,2.968-1.385,3.366-2.465c0.278-0.746,1.135-0.68,1.605-0.506
				c0.855,0.318,1.045,1.08,0.667,2.104c-1.046,2.82-3.848,4.865-6.419,3.91c-0.941-0.348-4.269-2.148-4.849-2.363
				c-1.052-0.389-0.92,1.547-2.441,0.982C25.452,81.953,26.812,80.57,25.818,80.201z"/>
		</g>
		<g>
			<path fill="#FFFFFF" d="M5.566,60.729c-0.291-0.514-2.178-2.764-2.646-3.584c-1.295-2.283,0.079-5.779,2.695-7.264
				c1.129-0.641,1.836-0.229,2.172,0.359c0.305,0.539,0.331,1.307-0.258,1.641c-1.333,0.756-2.545,2.564-1.686,4.078
				c0.393,0.691,2.281,2.943,2.603,3.506c0.393,0.693,0.112,1.633-0.136,1.91c0.376-0.113,1.285,0.117,1.693,0.834
				c0.35,0.615,1.797,4.238,2.189,4.93c0.902,1.592,3.162,0.85,4.162,0.281c0.693-0.391,1.305,0.211,1.552,0.646
				c0.452,0.795,0.107,1.5-0.841,2.039c-2.617,1.484-6.076,1.246-7.432-1.139c-0.494-0.873-1.883-4.393-2.189-4.93
				c-0.553-0.977-1.697,0.59-2.499-0.82C4.16,61.832,6.091,61.65,5.566,60.729z"/>
		</g>
		<g>
			<path fill="#FFFFFF" d="M2.604,32.79c0.108-0.581,0.111-3.518,0.283-4.446c0.477-2.581,3.777-4.371,6.735-3.823
				c1.277,0.235,1.553,1.006,1.432,1.673c-0.114,0.609-0.586,1.212-1.252,1.089c-1.51-0.28-3.6,0.324-3.916,2.035
				c-0.146,0.783-0.149,3.721-0.267,4.359c-0.144,0.784-0.964,1.322-1.331,1.374c0.358,0.157,0.907,0.918,0.758,1.729
				c-0.129,0.697-1.353,4.401-1.499,5.183c-0.333,1.798,1.873,2.686,3.004,2.894c0.783,0.146,0.865,1.002,0.774,1.495
				c-0.168,0.898-0.885,1.215-1.959,1.018c-2.958-0.547-5.451-2.957-4.952-5.654c0.183-0.987,1.388-4.574,1.499-5.182
				c0.203-1.103-1.682-0.641-1.386-2.236C0.816,32.729,2.412,33.833,2.604,32.79z"/>
		</g>
		<g>
			<path fill="#FFFFFF" d="M18.321,9.502c0.458-0.375,2.35-2.621,3.079-3.221c2.026-1.667,5.703-0.913,7.615,1.411
				c0.826,1.002,0.54,1.769,0.018,2.201c-0.478,0.393-1.229,0.551-1.66,0.027c-0.974-1.185-2.962-2.069-4.305-0.963
				c-0.615,0.506-2.509,2.75-3.01,3.165c-0.616,0.506-1.588,0.391-1.904,0.193c0.175,0.352,0.105,1.288-0.531,1.812
				c-0.548,0.451-3.869,2.497-4.482,3.003c-1.413,1.161-0.296,3.259,0.436,4.147c0.503,0.616,0.016,1.323-0.369,1.641
				c-0.708,0.581-1.462,0.362-2.155-0.48c-1.911-2.323-2.267-5.772-0.149-7.516c0.773-0.638,4.004-2.608,4.482-3.001
				c0.866-0.713-0.873-1.572,0.378-2.604C16.993,8.306,17.503,10.177,18.321,9.502z"/>
		</g>
	</g>
	<g>
		<g>
			<path fill="#FFFFFF" d="M44.901,1.77c0.589,0,3.479-0.532,4.423-0.532c2.625,0,4.984,2.92,4.984,5.929
				c0,1.297-0.708,1.71-1.385,1.71c-0.619,0-1.298-0.354-1.298-1.033c0-1.534-0.973-3.48-2.715-3.48
				c-0.796,0-3.685,0.531-4.335,0.531c-0.796,0-1.473-0.708-1.592-1.062c-0.09,0.383-0.738,1.062-1.563,1.062
				c-0.708,0-4.572-0.531-5.367-0.531c-1.829,0-2.3,2.33-2.3,3.48c0,0.796-0.828,1.033-1.327,1.033
				c-0.915,0-1.357-0.649-1.357-1.741c0-3.008,1.917-5.898,4.659-5.898c1.003,0,4.748,0.532,5.368,0.532
				c1.122,0,0.324-1.77,1.946-1.77C44.636,0,43.84,1.77,44.901,1.77z"/>
		</g>
		<g>
			<path fill="#FFFFFF" d="M70.657,12.989c0.452,0.38,3.006,1.834,3.728,2.441c2.01,1.69,1.935,5.443-0.001,7.745
				c-0.835,0.994-1.643,0.854-2.161,0.417c-0.474-0.398-0.766-1.106-0.329-1.625c0.987-1.175,1.496-3.291,0.162-4.41
				c-0.608-0.513-3.162-1.967-3.658-2.384c-0.608-0.513-0.672-1.491-0.534-1.838c-0.316,0.236-1.25,0.337-1.881-0.193
				c-0.541-0.457-3.157-3.35-3.766-3.861c-1.398-1.177-3.261,0.302-4.001,1.182c-0.514,0.609-1.297,0.258-1.681-0.065
				c-0.699-0.588-0.62-1.369,0.082-2.205c1.938-2.302,5.263-3.28,7.363-1.515c0.768,0.646,3.291,3.463,3.766,3.862
				c0.859,0.721,1.388-1.145,2.629-0.101C71.594,11.465,69.846,12.306,70.657,12.989z"/>
		</g>
		<g>
			<path fill="#FFFFFF" d="M83.146,38.155c0.102,0.582,1.12,3.337,1.281,4.268c0.449,2.586-2.024,5.411-4.988,5.927
				c-1.277,0.223-1.805-0.404-1.922-1.072c-0.105-0.609,0.126-1.34,0.797-1.457c1.51-0.262,3.26-1.555,2.961-3.269
				c-0.135-0.785-1.152-3.541-1.264-4.18c-0.138-0.785,0.444-1.574,0.773-1.751c-0.393-0.022-1.174-0.545-1.314-1.358
				c-0.121-0.698-0.26-4.596-0.397-5.379c-0.312-1.802-2.688-1.868-3.822-1.67c-0.785,0.135-1.158-0.638-1.243-1.131
				c-0.157-0.901,0.405-1.449,1.482-1.635c2.963-0.515,6.138,0.878,6.607,3.58c0.173,0.988,0.291,4.77,0.396,5.38
				c0.193,1.104,1.8,0.017,2.077,1.614C84.844,37.591,82.967,37.11,83.146,38.155z"/>
		</g>
		<g>
			<path fill="#FFFFFF" d="M76.505,65.453c-0.297,0.51-1.292,3.275-1.768,4.092c-1.319,2.268-5.031,2.838-7.63,1.324
				c-1.123-0.652-1.123-1.473-0.781-2.059c0.312-0.535,0.959-0.943,1.545-0.602c1.325,0.77,3.497,0.908,4.372-0.594
				c0.401-0.689,1.396-3.453,1.724-4.014c0.399-0.689,1.354-0.918,1.717-0.844c-0.285-0.268-0.545-1.172-0.131-1.885
				c0.356-0.611,2.76-3.684,3.16-4.371c0.921-1.58-0.855-3.16-1.85-3.738c-0.689-0.402-0.478-1.234-0.225-1.666
				c0.459-0.791,1.242-0.848,2.187-0.299c2.599,1.514,4.132,4.623,2.752,6.994c-0.505,0.867-2.849,3.836-3.159,4.371
				c-0.563,0.971,1.365,1.172,0.551,2.574C78.167,66.115,77.038,64.537,76.505,65.453z"/>
		</g>
		<g>
			<path fill="#FFFFFF" d="M53.851,82.068c-0.556,0.199-3.095,1.676-3.986,1.994c-2.47,0.885-5.677-1.066-6.692-3.898
				c-0.438-1.223,0.089-1.85,0.728-2.078c0.582-0.209,1.342-0.105,1.57,0.533c0.519,1.443,2.091,2.947,3.728,2.361
				c0.751-0.27,3.292-1.744,3.902-1.963c0.751-0.27,1.626,0.168,1.856,0.461c-0.045-0.391,0.338-1.248,1.114-1.527
				c0.666-0.238,4.482-1.043,5.232-1.312c1.721-0.615,1.378-2.969,0.99-4.053c-0.269-0.75,0.429-1.248,0.9-1.418
				c0.86-0.309,1.496,0.152,1.865,1.18c1.016,2.832,0.188,6.199-2.395,7.125c-0.945,0.338-4.649,1.104-5.232,1.312
				c-1.056,0.379,0.291,1.775-1.236,2.322C54.697,83.645,54.849,81.711,53.851,82.068z"/>
		</g>
		<g>
			<path fill="#FFFFFF" d="M25.818,80.201c-0.555-0.205-3.447-0.711-4.334-1.039c-2.46-0.912-3.658-4.473-2.613-7.293
				c0.453-1.217,1.259-1.355,1.896-1.121c0.58,0.217,1.093,0.783,0.857,1.42c-0.533,1.438-0.296,3.602,1.334,4.205
				c0.747,0.277,3.642,0.785,4.249,1.008c0.748,0.277,1.138,1.178,1.125,1.549c0.217-0.326,1.062-0.736,1.836-0.449
				c0.662,0.246,4.102,2.086,4.847,2.363c1.716,0.637,2.968-1.385,3.366-2.465c0.278-0.746,1.135-0.68,1.605-0.506
				c0.855,0.318,1.045,1.08,0.667,2.104c-1.046,2.82-3.848,4.865-6.419,3.91c-0.941-0.348-4.269-2.148-4.849-2.363
				c-1.052-0.389-0.92,1.547-2.441,0.982C25.452,81.953,26.812,80.57,25.818,80.201z"/>
		</g>
		<g>
			<path fill="#FFFFFF" d="M5.566,60.729c-0.291-0.514-2.178-2.764-2.646-3.584c-1.295-2.283,0.079-5.779,2.695-7.264
				c1.129-0.641,1.836-0.229,2.172,0.359c0.305,0.539,0.331,1.307-0.258,1.641c-1.333,0.756-2.545,2.564-1.686,4.078
				c0.393,0.691,2.281,2.943,2.603,3.506c0.393,0.693,0.112,1.633-0.136,1.91c0.376-0.113,1.285,0.117,1.693,0.834
				c0.35,0.615,1.797,4.238,2.189,4.93c0.902,1.592,3.162,0.85,4.162,0.281c0.693-0.391,1.305,0.211,1.552,0.646
				c0.452,0.795,0.107,1.5-0.841,2.039c-2.617,1.484-6.076,1.246-7.432-1.139c-0.494-0.873-1.883-4.393-2.189-4.93
				c-0.553-0.977-1.697,0.59-2.499-0.82C4.16,61.832,6.091,61.65,5.566,60.729z"/>
		</g>
		<g>
			<path fill="#FFFFFF" d="M2.604,32.79c0.108-0.581,0.111-3.518,0.283-4.446c0.477-2.581,3.777-4.371,6.735-3.823
				c1.277,0.235,1.553,1.006,1.432,1.673c-0.114,0.609-0.586,1.212-1.252,1.089c-1.51-0.28-3.6,0.324-3.916,2.035
				c-0.146,0.783-0.149,3.721-0.267,4.359c-0.144,0.784-0.964,1.322-1.331,1.374c0.358,0.157,0.907,0.918,0.758,1.729
				c-0.129,0.697-1.353,4.401-1.499,5.183c-0.333,1.798,1.873,2.686,3.004,2.894c0.783,0.146,0.865,1.002,0.774,1.495
				c-0.168,0.898-0.885,1.215-1.959,1.018c-2.958-0.547-5.451-2.957-4.952-5.654c0.183-0.987,1.388-4.574,1.499-5.182
				c0.203-1.103-1.682-0.641-1.386-2.236C0.816,32.729,2.412,33.833,2.604,32.79z"/>
		</g>
		<g>
			<path fill="#FFFFFF" d="M18.321,9.502c0.458-0.375,2.35-2.621,3.079-3.221c2.026-1.667,5.703-0.913,7.615,1.411
				c0.826,1.002,0.54,1.769,0.018,2.201c-0.478,0.393-1.229,0.551-1.66,0.027c-0.974-1.185-2.962-2.069-4.305-0.963
				c-0.615,0.506-2.509,2.75-3.01,3.165c-0.616,0.506-1.588,0.391-1.904,0.193c0.175,0.352,0.105,1.288-0.531,1.812
				c-0.548,0.451-3.869,2.497-4.482,3.003c-1.413,1.161-0.296,3.259,0.436,4.147c0.503,0.616,0.016,1.323-0.369,1.641
				c-0.708,0.581-1.462,0.362-2.155-0.48c-1.911-2.323-2.267-5.772-0.149-7.516c0.773-0.638,4.004-2.608,4.482-3.001
				c0.866-0.713-0.873-1.572,0.378-2.604C16.993,8.306,17.503,10.177,18.321,9.502z"/>
		</g>
	</g>
	<g>
		<g>
			<path fill="#FFFFFF" d="M44.901,1.77c0.589,0,3.479-0.532,4.423-0.532c2.625,0,4.984,2.92,4.984,5.929
				c0,1.297-0.708,1.71-1.385,1.71c-0.619,0-1.298-0.354-1.298-1.033c0-1.534-0.973-3.48-2.715-3.48
				c-0.796,0-3.685,0.531-4.335,0.531c-0.796,0-1.473-0.708-1.592-1.062c-0.09,0.383-0.738,1.062-1.563,1.062
				c-0.708,0-4.572-0.531-5.367-0.531c-1.829,0-2.3,2.33-2.3,3.48c0,0.796-0.828,1.033-1.327,1.033
				c-0.915,0-1.357-0.649-1.357-1.741c0-3.008,1.917-5.898,4.659-5.898c1.003,0,4.748,0.532,5.368,0.532
				c1.122,0,0.324-1.77,1.946-1.77C44.636,0,43.84,1.77,44.901,1.77z"/>
		</g>
		<g>
			<path fill="#FFFFFF" d="M70.657,12.989c0.452,0.38,3.006,1.834,3.728,2.441c2.01,1.69,1.935,5.443-0.001,7.745
				c-0.835,0.994-1.643,0.854-2.161,0.417c-0.474-0.398-0.766-1.106-0.329-1.625c0.987-1.175,1.496-3.291,0.162-4.41
				c-0.608-0.513-3.162-1.967-3.658-2.384c-0.608-0.513-0.672-1.491-0.534-1.838c-0.316,0.236-1.25,0.337-1.881-0.193
				c-0.541-0.457-3.157-3.35-3.766-3.861c-1.398-1.177-3.261,0.302-4.001,1.182c-0.514,0.609-1.297,0.258-1.681-0.065
				c-0.699-0.588-0.62-1.369,0.082-2.205c1.938-2.302,5.263-3.28,7.363-1.515c0.768,0.646,3.291,3.463,3.766,3.862
				c0.859,0.721,1.388-1.145,2.629-0.101C71.594,11.465,69.846,12.306,70.657,12.989z"/>
		</g>
		<g>
			<path fill="#FFFFFF" d="M83.146,38.155c0.102,0.582,1.12,3.337,1.281,4.268c0.449,2.586-2.024,5.411-4.988,5.927
				c-1.277,0.223-1.805-0.404-1.922-1.072c-0.105-0.609,0.126-1.34,0.797-1.457c1.51-0.262,3.26-1.555,2.961-3.269
				c-0.135-0.785-1.152-3.541-1.264-4.18c-0.138-0.785,0.444-1.574,0.773-1.751c-0.393-0.022-1.174-0.545-1.314-1.358
				c-0.121-0.698-0.26-4.596-0.397-5.379c-0.312-1.802-2.688-1.868-3.822-1.67c-0.785,0.135-1.158-0.638-1.243-1.131
				c-0.157-0.901,0.405-1.449,1.482-1.635c2.963-0.515,6.138,0.878,6.607,3.58c0.173,0.988,0.291,4.77,0.396,5.38
				c0.193,1.104,1.8,0.017,2.077,1.614C84.844,37.591,82.967,37.11,83.146,38.155z"/>
		</g>
		<g>
			<path fill="#FFFFFF" d="M76.505,65.453c-0.297,0.51-1.292,3.275-1.768,4.092c-1.319,2.268-5.031,2.838-7.63,1.324
				c-1.123-0.652-1.123-1.473-0.781-2.059c0.312-0.535,0.959-0.943,1.545-0.602c1.325,0.77,3.497,0.908,4.372-0.594
				c0.401-0.689,1.396-3.453,1.724-4.014c0.399-0.689,1.354-0.918,1.717-0.844c-0.285-0.268-0.545-1.172-0.131-1.885
				c0.356-0.611,2.76-3.684,3.16-4.371c0.921-1.58-0.855-3.16-1.85-3.738c-0.689-0.402-0.478-1.234-0.225-1.666
				c0.459-0.791,1.242-0.848,2.187-0.299c2.599,1.514,4.132,4.623,2.752,6.994c-0.505,0.867-2.849,3.836-3.159,4.371
				c-0.563,0.971,1.365,1.172,0.551,2.574C78.167,66.115,77.038,64.537,76.505,65.453z"/>
		</g>
		<g>
			<path fill="#FFFFFF" d="M53.851,82.068c-0.556,0.199-3.095,1.676-3.986,1.994c-2.47,0.885-5.677-1.066-6.692-3.898
				c-0.438-1.223,0.089-1.85,0.728-2.078c0.582-0.209,1.342-0.105,1.57,0.533c0.519,1.443,2.091,2.947,3.728,2.361
				c0.751-0.27,3.292-1.744,3.902-1.963c0.751-0.27,1.626,0.168,1.856,0.461c-0.045-0.391,0.338-1.248,1.114-1.527
				c0.666-0.238,4.482-1.043,5.232-1.312c1.721-0.615,1.378-2.969,0.99-4.053c-0.269-0.75,0.429-1.248,0.9-1.418
				c0.86-0.309,1.496,0.152,1.865,1.18c1.016,2.832,0.188,6.199-2.395,7.125c-0.945,0.338-4.649,1.104-5.232,1.312
				c-1.056,0.379,0.291,1.775-1.236,2.322C54.697,83.645,54.849,81.711,53.851,82.068z"/>
		</g>
		<g>
			<path fill="#FFFFFF" d="M25.818,80.201c-0.555-0.205-3.447-0.711-4.334-1.039c-2.46-0.912-3.658-4.473-2.613-7.293
				c0.453-1.217,1.259-1.355,1.896-1.121c0.58,0.217,1.093,0.783,0.857,1.42c-0.533,1.438-0.296,3.602,1.334,4.205
				c0.747,0.277,3.642,0.785,4.249,1.008c0.748,0.277,1.138,1.178,1.125,1.549c0.217-0.326,1.062-0.736,1.836-0.449
				c0.662,0.246,4.102,2.086,4.847,2.363c1.716,0.637,2.968-1.385,3.366-2.465c0.278-0.746,1.135-0.68,1.605-0.506
				c0.855,0.318,1.045,1.08,0.667,2.104c-1.046,2.82-3.848,4.865-6.419,3.91c-0.941-0.348-4.269-2.148-4.849-2.363
				c-1.052-0.389-0.92,1.547-2.441,0.982C25.452,81.953,26.812,80.57,25.818,80.201z"/>
		</g>
		<g>
			<path fill="#FFFFFF" d="M5.566,60.729c-0.291-0.514-2.178-2.764-2.646-3.584c-1.295-2.283,0.079-5.779,2.695-7.264
				c1.129-0.641,1.836-0.229,2.172,0.359c0.305,0.539,0.331,1.307-0.258,1.641c-1.333,0.756-2.545,2.564-1.686,4.078
				c0.393,0.691,2.281,2.943,2.603,3.506c0.393,0.693,0.112,1.633-0.136,1.91c0.376-0.113,1.285,0.117,1.693,0.834
				c0.35,0.615,1.797,4.238,2.189,4.93c0.902,1.592,3.162,0.85,4.162,0.281c0.693-0.391,1.305,0.211,1.552,0.646
				c0.452,0.795,0.107,1.5-0.841,2.039c-2.617,1.484-6.076,1.246-7.432-1.139c-0.494-0.873-1.883-4.393-2.189-4.93
				c-0.553-0.977-1.697,0.59-2.499-0.82C4.16,61.832,6.091,61.65,5.566,60.729z"/>
		</g>
		<g>
			<path fill="#FFFFFF" d="M2.604,32.79c0.108-0.581,0.111-3.518,0.283-4.446c0.477-2.581,3.777-4.371,6.735-3.823
				c1.277,0.235,1.553,1.006,1.432,1.673c-0.114,0.609-0.586,1.212-1.252,1.089c-1.51-0.28-3.6,0.324-3.916,2.035
				c-0.146,0.783-0.149,3.721-0.267,4.359c-0.144,0.784-0.964,1.322-1.331,1.374c0.358,0.157,0.907,0.918,0.758,1.729
				c-0.129,0.697-1.353,4.401-1.499,5.183c-0.333,1.798,1.873,2.686,3.004,2.894c0.783,0.146,0.865,1.002,0.774,1.495
				c-0.168,0.898-0.885,1.215-1.959,1.018c-2.958-0.547-5.451-2.957-4.952-5.654c0.183-0.987,1.388-4.574,1.499-5.182
				c0.203-1.103-1.682-0.641-1.386-2.236C0.816,32.729,2.412,33.833,2.604,32.79z"/>
		</g>
		<g>
			<path fill="#FFFFFF" d="M18.321,9.502c0.458-0.375,2.35-2.621,3.079-3.221c2.026-1.667,5.703-0.913,7.615,1.411
				c0.826,1.002,0.54,1.769,0.018,2.201c-0.478,0.393-1.229,0.551-1.66,0.027c-0.974-1.185-2.962-2.069-4.305-0.963
				c-0.615,0.506-2.509,2.75-3.01,3.165c-0.616,0.506-1.588,0.391-1.904,0.193c0.175,0.352,0.105,1.288-0.531,1.812
				c-0.548,0.451-3.869,2.497-4.482,3.003c-1.413,1.161-0.296,3.259,0.436,4.147c0.503,0.616,0.016,1.323-0.369,1.641
				c-0.708,0.581-1.462,0.362-2.155-0.48c-1.911-2.323-2.267-5.772-0.149-7.516c0.773-0.638,4.004-2.608,4.482-3.001
				c0.866-0.713-0.873-1.572,0.378-2.604C16.993,8.306,17.503,10.177,18.321,9.502z"/>
		</g>
	</g>
	<g>
		<g>
			<path fill="#FFFFFF" d="M40.582,73.627c-0.46,0-2.714,0.414-3.45,0.414c-2.048,0-3.888-2.277-3.888-4.625
				c0-1.012,0.554-1.334,1.082-1.334c0.482,0,1.012,0.277,1.012,0.807c0,1.195,0.759,2.713,2.115,2.713
				c0.621,0,2.876-0.412,3.383-0.412c0.62,0,1.149,0.553,1.24,0.828c0.07-0.301,0.578-0.828,1.221-0.828
				c0.553,0,3.566,0.412,4.188,0.412c1.426,0,1.793-1.816,1.793-2.713c0-0.621,0.646-0.807,1.036-0.807
				c0.713,0,1.058,0.508,1.058,1.357c0,2.348-1.495,4.602-3.634,4.602c-0.782,0-3.704-0.414-4.188-0.414
				c-0.875,0-0.253,1.381-1.519,1.381C40.789,75.008,41.41,73.627,40.582,73.627z"/>
		</g>
		<g>
			<path fill="#FFFFFF" d="M20.492,64.875c-0.352-0.295-2.344-1.43-2.907-1.904c-1.567-1.316-1.509-4.244,0.002-6.041
				c0.651-0.775,1.282-0.666,1.686-0.324c0.37,0.311,0.598,0.863,0.255,1.268c-0.769,0.916-1.165,2.566-0.126,3.439
				c0.476,0.4,2.467,1.533,2.854,1.859c0.475,0.4,0.525,1.164,0.417,1.434c0.245-0.184,0.976-0.264,1.468,0.15
				c0.423,0.355,2.462,2.613,2.938,3.012c1.09,0.92,2.542-0.234,3.119-0.922c0.399-0.475,1.012-0.201,1.311,0.051
				c0.545,0.459,0.484,1.068-0.063,1.719c-1.511,1.797-4.107,2.559-5.743,1.182c-0.598-0.504-2.568-2.701-2.938-3.012
				c-0.669-0.562-1.083,0.893-2.05,0.078C19.762,66.064,21.127,65.408,20.492,64.875z"/>
		</g>
		<g>
			<path fill="#FFFFFF" d="M10.752,45.246c-0.079-0.453-0.874-2.603-1.001-3.328c-0.349-2.017,1.58-4.221,3.891-4.623
				c0.998-0.174,1.408,0.315,1.5,0.837c0.081,0.475-0.1,1.044-0.62,1.135c-1.18,0.205-2.544,1.213-2.312,2.55
				c0.106,0.612,0.9,2.762,0.986,3.261c0.106,0.611-0.347,1.227-0.604,1.366c0.306,0.018,0.917,0.426,1.026,1.059
				c0.094,0.545,0.203,3.584,0.308,4.195c0.245,1.406,2.099,1.457,2.982,1.303c0.613-0.105,0.904,0.498,0.97,0.883
				c0.123,0.703-0.315,1.129-1.156,1.275c-2.312,0.402-4.788-0.686-5.154-2.793c-0.133-0.77-0.226-3.719-0.308-4.195
				c-0.151-0.861-1.405-0.014-1.621-1.26C9.426,45.685,10.892,46.061,10.752,45.246z"/>
		</g>
		<g>
			<path fill="#FFFFFF" d="M15.932,23.953c0.231-0.398,1.008-2.555,1.378-3.19c1.03-1.769,3.925-2.214,5.952-1.034
				c0.876,0.51,0.876,1.148,0.608,1.606c-0.242,0.417-0.747,0.736-1.204,0.47c-1.033-0.602-2.729-0.71-3.41,0.463
				c-0.312,0.537-1.089,2.693-1.344,3.13c-0.312,0.538-1.057,0.716-1.342,0.657c0.224,0.209,0.428,0.914,0.104,1.47
				c-0.278,0.477-2.153,2.874-2.466,3.41c-0.717,1.233,0.669,2.466,1.445,2.917c0.536,0.313,0.371,0.963,0.174,1.3
				c-0.358,0.617-0.971,0.661-1.705,0.232c-2.028-1.181-3.224-3.606-2.148-5.456c0.394-0.676,2.221-2.993,2.465-3.41
				c0.439-0.756-1.066-0.914-0.43-2.007C14.635,23.438,15.516,24.668,15.932,23.953z"/>
		</g>
		<g>
			<path fill="#FFFFFF" d="M33.603,10.993c0.433-0.155,2.414-1.306,3.108-1.555c1.926-0.691,4.429,0.833,5.221,3.042
				c0.342,0.953-0.07,1.442-0.567,1.622c-0.454,0.162-1.046,0.081-1.226-0.417c-0.402-1.127-1.631-2.299-2.908-1.841
				c-0.585,0.21-2.567,1.36-3.043,1.531c-0.584,0.21-1.269-0.131-1.447-0.36c0.033,0.304-0.264,0.973-0.869,1.191
				c-0.52,0.186-3.496,0.814-4.08,1.023c-1.345,0.481-1.077,2.317-0.773,3.161c0.209,0.584-0.336,0.975-0.704,1.106
				c-0.671,0.241-1.165-0.118-1.453-0.919c-0.792-2.209-0.147-4.836,1.867-5.558c0.737-0.264,3.626-0.861,4.081-1.024
				c0.822-0.295-0.227-1.385,0.963-1.812C32.941,9.764,32.824,11.272,33.603,10.993z"/>
		</g>
		<g>
			<path fill="#FFFFFF" d="M55.468,12.45c0.433,0.16,2.689,0.556,3.38,0.811c1.918,0.711,2.853,3.488,2.038,5.688
				c-0.353,0.95-0.983,1.059-1.478,0.875c-0.454-0.168-0.854-0.611-0.67-1.107c0.415-1.122,0.23-2.81-1.041-3.281
				c-0.582-0.216-2.84-0.611-3.313-0.787c-0.583-0.216-0.888-0.918-0.878-1.208c-0.168,0.255-0.827,0.576-1.431,0.353
				c-0.518-0.192-3.201-1.628-3.781-1.844c-1.339-0.497-2.315,1.08-2.626,1.921c-0.216,0.582-0.886,0.53-1.251,0.394
				c-0.669-0.248-0.816-0.842-0.521-1.64c0.815-2.2,3.001-3.794,5.008-3.051c0.732,0.272,3.328,1.677,3.781,1.845
				c0.82,0.304,0.717-1.207,1.903-0.767C55.752,11.084,54.692,12.162,55.468,12.45z"/>
		</g>
		<g>
			<path fill="#FFFFFF" d="M71.264,27.639c0.228,0.401,1.699,2.156,2.062,2.796c1.012,1.78-0.061,4.507-2.101,5.666
				c-0.88,0.5-1.432,0.178-1.694-0.282c-0.237-0.42-0.26-1.017,0.201-1.279c1.04-0.59,1.985-2,1.315-3.18
				c-0.307-0.54-1.779-2.295-2.03-2.735c-0.306-0.54-0.088-1.273,0.106-1.489c-0.293,0.087-1.004-0.092-1.322-0.651
				c-0.271-0.48-1.4-3.306-1.708-3.845c-0.703-1.241-2.466-0.663-3.245-0.22c-0.54,0.306-1.018-0.164-1.211-0.503
				c-0.352-0.621-0.083-1.171,0.657-1.591c2.04-1.158,4.738-0.971,5.796,0.889c0.386,0.68,1.469,3.426,1.706,3.846
				c0.432,0.761,1.326-0.461,1.951,0.639C72.361,26.778,70.854,26.919,71.264,27.639z"/>
		</g>
		<g>
			<path fill="#FFFFFF" d="M73.575,49.43c-0.085,0.455-0.088,2.746-0.223,3.469c-0.371,2.014-2.947,3.41-5.254,2.982
				c-0.995-0.184-1.21-0.785-1.115-1.305c0.088-0.475,0.457-0.945,0.977-0.85c1.177,0.217,2.808-0.252,3.054-1.588
				c0.112-0.609,0.116-2.902,0.207-3.398c0.113-0.613,0.754-1.031,1.04-1.072c-0.28-0.123-0.71-0.717-0.592-1.348
				c0.101-0.545,1.057-3.434,1.169-4.043c0.26-1.403-1.462-2.095-2.344-2.257c-0.609-0.114-0.674-0.781-0.604-1.165
				c0.132-0.702,0.691-0.949,1.528-0.794c2.308,0.427,4.251,2.307,3.862,4.411c-0.143,0.769-1.081,3.568-1.168,4.041
				c-0.159,0.861,1.312,0.502,1.08,1.746C74.969,49.479,73.725,48.617,73.575,49.43z"/>
		</g>
		<g>
			<path fill="#FFFFFF" d="M61.315,67.596c-0.357,0.293-1.833,2.043-2.401,2.512c-1.581,1.301-4.45,0.711-5.941-1.102
				c-0.643-0.779-0.42-1.379-0.012-1.715c0.371-0.307,0.957-0.43,1.293-0.021c0.76,0.924,2.312,1.613,3.357,0.75
				c0.481-0.395,1.958-2.146,2.348-2.469c0.48-0.395,1.24-0.305,1.486-0.148c-0.137-0.275-0.082-1.006,0.416-1.414
				c0.426-0.352,3.015-1.947,3.495-2.342c1.102-0.906,0.23-2.543-0.341-3.234c-0.393-0.482-0.014-1.033,0.289-1.281
				c0.551-0.453,1.139-0.283,1.68,0.375c1.491,1.812,1.77,4.502,0.118,5.861c-0.604,0.498-3.124,2.035-3.497,2.342
				c-0.675,0.557,0.682,1.227-0.296,2.031C62.351,68.529,61.953,67.07,61.315,67.596z"/>
		</g>
	</g>
	<g>
		<g>
			<path fill="#FFFFFF" d="M40.582,73.627c-0.46,0-2.714,0.414-3.45,0.414c-2.048,0-3.888-2.277-3.888-4.625
				c0-1.012,0.554-1.334,1.082-1.334c0.482,0,1.012,0.277,1.012,0.807c0,1.195,0.759,2.713,2.115,2.713
				c0.621,0,2.876-0.412,3.383-0.412c0.62,0,1.149,0.553,1.24,0.828c0.07-0.301,0.578-0.828,1.221-0.828
				c0.553,0,3.566,0.412,4.188,0.412c1.426,0,1.793-1.816,1.793-2.713c0-0.621,0.646-0.807,1.036-0.807
				c0.713,0,1.058,0.508,1.058,1.357c0,2.348-1.495,4.602-3.634,4.602c-0.782,0-3.704-0.414-4.188-0.414
				c-0.875,0-0.253,1.381-1.519,1.381C40.789,75.008,41.41,73.627,40.582,73.627z"/>
		</g>
		<g>
			<path fill="#FFFFFF" d="M20.492,64.875c-0.352-0.295-2.344-1.43-2.907-1.904c-1.567-1.316-1.509-4.244,0.002-6.041
				c0.651-0.775,1.282-0.666,1.686-0.324c0.37,0.311,0.598,0.863,0.255,1.268c-0.769,0.916-1.165,2.566-0.126,3.439
				c0.476,0.4,2.467,1.533,2.854,1.859c0.475,0.4,0.525,1.164,0.417,1.434c0.245-0.184,0.976-0.264,1.468,0.15
				c0.423,0.355,2.462,2.613,2.938,3.012c1.09,0.92,2.542-0.234,3.119-0.922c0.399-0.475,1.012-0.201,1.311,0.051
				c0.545,0.459,0.484,1.068-0.063,1.719c-1.511,1.797-4.107,2.559-5.743,1.182c-0.598-0.504-2.568-2.701-2.938-3.012
				c-0.669-0.562-1.083,0.893-2.05,0.078C19.762,66.064,21.127,65.408,20.492,64.875z"/>
		</g>
		<g>
			<path fill="#FFFFFF" d="M10.752,45.246c-0.079-0.453-0.874-2.603-1.001-3.328c-0.349-2.017,1.58-4.221,3.891-4.623
				c0.998-0.174,1.408,0.315,1.5,0.837c0.081,0.475-0.1,1.044-0.62,1.135c-1.18,0.205-2.544,1.213-2.312,2.55
				c0.106,0.612,0.9,2.762,0.986,3.261c0.106,0.611-0.347,1.227-0.604,1.366c0.306,0.018,0.917,0.426,1.026,1.059
				c0.094,0.545,0.203,3.584,0.308,4.195c0.245,1.406,2.099,1.457,2.982,1.303c0.613-0.105,0.904,0.498,0.97,0.883
				c0.123,0.703-0.315,1.129-1.156,1.275c-2.312,0.402-4.788-0.686-5.154-2.793c-0.133-0.77-0.226-3.719-0.308-4.195
				c-0.151-0.861-1.405-0.014-1.621-1.26C9.426,45.685,10.892,46.061,10.752,45.246z"/>
		</g>
		<g>
			<path fill="#FFFFFF" d="M15.932,23.953c0.231-0.398,1.008-2.555,1.378-3.19c1.03-1.769,3.925-2.214,5.952-1.034
				c0.876,0.51,0.876,1.148,0.608,1.606c-0.242,0.417-0.747,0.736-1.204,0.47c-1.033-0.602-2.729-0.71-3.41,0.463
				c-0.312,0.537-1.089,2.693-1.344,3.13c-0.312,0.538-1.057,0.716-1.342,0.657c0.224,0.209,0.428,0.914,0.104,1.47
				c-0.278,0.477-2.153,2.874-2.466,3.41c-0.717,1.233,0.669,2.466,1.445,2.917c0.536,0.313,0.371,0.963,0.174,1.3
				c-0.358,0.617-0.971,0.661-1.705,0.232c-2.028-1.181-3.224-3.606-2.148-5.456c0.394-0.676,2.221-2.993,2.465-3.41
				c0.439-0.756-1.066-0.914-0.43-2.007C14.635,23.438,15.516,24.668,15.932,23.953z"/>
		</g>
		<g>
			<path fill="#FFFFFF" d="M33.603,10.993c0.433-0.155,2.414-1.306,3.108-1.555c1.926-0.691,4.429,0.833,5.221,3.042
				c0.342,0.953-0.07,1.442-0.567,1.622c-0.454,0.162-1.046,0.081-1.226-0.417c-0.402-1.127-1.631-2.299-2.908-1.841
				c-0.585,0.21-2.567,1.36-3.043,1.531c-0.584,0.21-1.269-0.131-1.447-0.36c0.033,0.304-0.264,0.973-0.869,1.191
				c-0.52,0.186-3.496,0.814-4.08,1.023c-1.345,0.481-1.077,2.317-0.773,3.161c0.209,0.584-0.336,0.975-0.704,1.106
				c-0.671,0.241-1.165-0.118-1.453-0.919c-0.792-2.209-0.147-4.836,1.867-5.558c0.737-0.264,3.626-0.861,4.081-1.024
				c0.822-0.295-0.227-1.385,0.963-1.812C32.941,9.764,32.824,11.272,33.603,10.993z"/>
		</g>
		<g>
			<path fill="#FFFFFF" d="M55.468,12.45c0.433,0.16,2.689,0.556,3.38,0.811c1.918,0.711,2.853,3.488,2.038,5.688
				c-0.353,0.95-0.983,1.059-1.478,0.875c-0.454-0.168-0.854-0.611-0.67-1.107c0.415-1.122,0.23-2.81-1.041-3.281
				c-0.582-0.216-2.84-0.611-3.313-0.787c-0.583-0.216-0.888-0.918-0.878-1.208c-0.168,0.255-0.827,0.576-1.431,0.353
				c-0.518-0.192-3.201-1.628-3.781-1.844c-1.339-0.497-2.315,1.08-2.626,1.921c-0.216,0.582-0.886,0.53-1.251,0.394
				c-0.669-0.248-0.816-0.842-0.521-1.64c0.815-2.2,3.001-3.794,5.008-3.051c0.732,0.272,3.328,1.677,3.781,1.845
				c0.82,0.304,0.717-1.207,1.903-0.767C55.752,11.084,54.692,12.162,55.468,12.45z"/>
		</g>
		<g>
			<path fill="#FFFFFF" d="M71.264,27.639c0.228,0.401,1.699,2.156,2.062,2.796c1.012,1.78-0.061,4.507-2.101,5.666
				c-0.88,0.5-1.432,0.178-1.694-0.282c-0.237-0.42-0.26-1.017,0.201-1.279c1.04-0.59,1.985-2,1.315-3.18
				c-0.307-0.54-1.779-2.295-2.03-2.735c-0.306-0.54-0.088-1.273,0.106-1.489c-0.293,0.087-1.004-0.092-1.322-0.651
				c-0.271-0.48-1.4-3.306-1.708-3.845c-0.703-1.241-2.466-0.663-3.245-0.22c-0.54,0.306-1.018-0.164-1.211-0.503
				c-0.352-0.621-0.083-1.171,0.657-1.591c2.04-1.158,4.738-0.971,5.796,0.889c0.386,0.68,1.469,3.426,1.706,3.846
				c0.432,0.761,1.326-0.461,1.951,0.639C72.361,26.778,70.854,26.919,71.264,27.639z"/>
		</g>
		<g>
			<path fill="#FFFFFF" d="M73.575,49.43c-0.085,0.455-0.088,2.746-0.223,3.469c-0.371,2.014-2.947,3.41-5.254,2.982
				c-0.995-0.184-1.21-0.785-1.115-1.305c0.088-0.475,0.457-0.945,0.977-0.85c1.177,0.217,2.808-0.252,3.054-1.588
				c0.112-0.609,0.116-2.902,0.207-3.398c0.113-0.613,0.754-1.031,1.04-1.072c-0.28-0.123-0.71-0.717-0.592-1.348
				c0.101-0.545,1.057-3.434,1.169-4.043c0.26-1.403-1.462-2.095-2.344-2.257c-0.609-0.114-0.674-0.781-0.604-1.165
				c0.132-0.702,0.691-0.949,1.528-0.794c2.308,0.427,4.251,2.307,3.862,4.411c-0.143,0.769-1.081,3.568-1.168,4.041
				c-0.159,0.861,1.312,0.502,1.08,1.746C74.969,49.479,73.725,48.617,73.575,49.43z"/>
		</g>
		<g>
			<path fill="#FFFFFF" d="M61.315,67.596c-0.357,0.293-1.833,2.043-2.401,2.512c-1.581,1.301-4.45,0.711-5.941-1.102
				c-0.643-0.779-0.42-1.379-0.012-1.715c0.371-0.307,0.957-0.43,1.293-0.021c0.76,0.924,2.312,1.613,3.357,0.75
				c0.481-0.395,1.958-2.146,2.348-2.469c0.48-0.395,1.24-0.305,1.486-0.148c-0.137-0.275-0.082-1.006,0.416-1.414
				c0.426-0.352,3.015-1.947,3.495-2.342c1.102-0.906,0.23-2.543-0.341-3.234c-0.393-0.482-0.014-1.033,0.289-1.281
				c0.551-0.453,1.139-0.283,1.68,0.375c1.491,1.812,1.77,4.502,0.118,5.861c-0.604,0.498-3.124,2.035-3.497,2.342
				c-0.675,0.557,0.682,1.227-0.296,2.031C62.351,68.529,61.953,67.07,61.315,67.596z"/>
		</g>
	</g>
	<g>
		<g>
			<path fill="#FFFFFF" d="M43.63,22.931c0.281,0,1.655-0.252,2.104-0.252c1.248,0,2.371,1.39,2.371,2.821
				c0,0.617-0.337,0.813-0.659,0.813c-0.294,0-0.616-0.168-0.616-0.491c0-0.73-0.465-1.657-1.293-1.657
				c-0.379,0-1.753,0.253-2.062,0.253c-0.379,0-0.701-0.337-0.757-0.505c-0.043,0.182-0.352,0.505-0.745,0.505
				c-0.336,0-2.174-0.253-2.553-0.253c-0.87,0-1.096,1.109-1.096,1.657c0,0.378-0.394,0.491-0.631,0.491
				c-0.434,0-0.645-0.309-0.645-0.828c0-1.431,0.912-2.806,2.217-2.806c0.477,0,2.259,0.252,2.553,0.252
				c0.534,0,0.154-0.842,0.926-0.842C43.503,22.089,43.126,22.931,43.63,22.931z"/>
		</g>
		<g>
			<path fill="#FFFFFF" d="M55.885,28.269c0.215,0.181,1.43,0.873,1.773,1.162c0.955,0.803,0.92,2.589-0.002,3.685
				c-0.396,0.473-0.781,0.406-1.028,0.198c-0.226-0.189-0.364-0.526-0.155-0.773c0.469-0.559,0.711-1.565,0.077-2.098
				c-0.29-0.244-1.505-0.936-1.741-1.135c-0.289-0.244-0.32-0.709-0.255-0.875c-0.149,0.112-0.593,0.161-0.894-0.092
				c-0.259-0.217-1.504-1.594-1.792-1.837c-0.666-0.56-1.552,0.144-1.903,0.562c-0.244,0.29-0.617,0.123-0.8-0.031
				c-0.333-0.28-0.296-0.652,0.038-1.049c0.922-1.096,2.506-1.561,3.504-0.721c0.365,0.307,1.566,1.648,1.793,1.837
				c0.407,0.343,0.659-0.545,1.25-0.048C56.329,27.544,55.497,27.944,55.885,28.269z"/>
		</g>
		<g>
			<path fill="#FFFFFF" d="M61.826,40.244c0.049,0.276,0.533,1.587,0.609,2.03c0.215,1.23-0.963,2.573-2.372,2.819
				c-0.608,0.105-0.859-0.191-0.915-0.51c-0.051-0.291,0.059-0.638,0.379-0.693c0.719-0.125,1.552-0.74,1.408-1.556
				c-0.064-0.374-0.547-1.685-0.601-1.989c-0.065-0.374,0.211-0.748,0.368-0.833c-0.187-0.01-0.559-0.258-0.626-0.646
				c-0.058-0.332-0.123-2.187-0.188-2.559c-0.148-0.858-1.28-0.89-1.818-0.795c-0.374,0.065-0.551-0.303-0.592-0.538
				c-0.075-0.429,0.192-0.689,0.704-0.778c1.41-0.245,2.922,0.418,3.145,1.704c0.082,0.47,0.138,2.27,0.189,2.559
				c0.092,0.526,0.856,0.009,0.987,0.769C62.635,39.975,61.74,39.746,61.826,40.244z"/>
		</g>
		<g>
			<path fill="#FFFFFF" d="M58.666,53.232c-0.141,0.242-0.614,1.557-0.841,1.945c-0.628,1.08-2.394,1.352-3.63,0.631
				c-0.534-0.311-0.534-0.699-0.371-0.98c0.147-0.254,0.456-0.447,0.734-0.285c0.631,0.367,1.664,0.432,2.08-0.283
				c0.191-0.328,0.664-1.643,0.819-1.908c0.19-0.328,0.646-0.438,0.817-0.402c-0.136-0.127-0.26-0.557-0.061-0.896
				c0.169-0.291,1.312-1.752,1.502-2.08c0.438-0.752-0.408-1.504-0.881-1.779c-0.326-0.191-0.227-0.588-0.105-0.793
				c0.218-0.375,0.59-0.402,1.039-0.143c1.237,0.723,1.967,2.201,1.31,3.328c-0.239,0.414-1.354,1.828-1.502,2.082
				c-0.269,0.461,0.649,0.557,0.261,1.223C59.457,53.547,58.921,52.795,58.666,53.232z"/>
		</g>
		<g>
			<path fill="#FFFFFF" d="M47.888,61.137c-0.266,0.096-1.474,0.797-1.896,0.949c-1.175,0.422-2.701-0.508-3.185-1.855
				c-0.208-0.582,0.042-0.879,0.346-0.988c0.277-0.1,0.639-0.049,0.747,0.254c0.247,0.688,0.996,1.402,1.774,1.123
				c0.357-0.129,1.566-0.828,1.855-0.934c0.358-0.129,0.775,0.08,0.885,0.219c-0.022-0.186,0.16-0.594,0.528-0.727
				c0.318-0.113,2.134-0.496,2.491-0.623c0.817-0.293,0.655-1.414,0.472-1.93c-0.129-0.355,0.202-0.594,0.428-0.674
				c0.41-0.148,0.712,0.072,0.888,0.561c0.482,1.348,0.089,2.949-1.141,3.391c-0.449,0.162-2.212,0.525-2.488,0.623
				c-0.504,0.182,0.139,0.846-0.589,1.105C48.29,61.887,48.363,60.967,47.888,61.137z"/>
		</g>
		<g>
			<path fill="#FFFFFF" d="M34.549,60.25c-0.262-0.098-1.639-0.34-2.062-0.496c-1.17-0.434-1.739-2.127-1.242-3.469
				c0.214-0.58,0.599-0.646,0.9-0.535c0.276,0.104,0.521,0.373,0.409,0.676c-0.254,0.686-0.142,1.715,0.634,2.002
				c0.356,0.131,1.733,0.373,2.022,0.479c0.355,0.133,0.541,0.561,0.534,0.738c0.104-0.156,0.505-0.352,0.874-0.215
				c0.314,0.117,1.952,0.992,2.308,1.125c0.814,0.303,1.411-0.66,1.602-1.172c0.132-0.355,0.54-0.324,0.763-0.24
				c0.408,0.15,0.498,0.514,0.318,1c-0.498,1.342-1.832,2.314-3.055,1.859c-0.449-0.164-2.031-1.021-2.307-1.123
				c-0.503-0.186-0.439,0.734-1.162,0.467C34.375,61.082,35.022,60.424,34.549,60.25z"/>
		</g>
		<g>
			<path fill="#FFFFFF" d="M24.914,50.984c-0.139-0.246-1.038-1.316-1.26-1.707c-0.616-1.086,0.038-2.748,1.282-3.455
				c0.538-0.305,0.874-0.109,1.033,0.172c0.146,0.256,0.159,0.621-0.122,0.779c-0.635,0.359-1.21,1.221-0.802,1.939
				c0.188,0.33,1.086,1.4,1.238,1.67c0.188,0.33,0.054,0.775-0.065,0.908c0.18-0.055,0.613,0.057,0.806,0.396
				c0.167,0.295,0.856,2.018,1.044,2.348c0.429,0.756,1.503,0.402,1.979,0.133c0.33-0.188,0.621,0.1,0.738,0.307
				c0.215,0.379,0.052,0.713-0.4,0.971c-1.245,0.707-2.89,0.592-3.535-0.541c-0.235-0.416-0.896-2.09-1.04-2.348
				c-0.266-0.463-0.811,0.281-1.19-0.389C24.244,51.51,25.164,51.422,24.914,50.984z"/>
		</g>
		<g>
			<path fill="#FFFFFF" d="M23.504,37.69c0.052-0.276,0.053-1.674,0.135-2.116c0.227-1.229,1.799-2.08,3.205-1.819
				c0.607,0.111,0.738,0.479,0.68,0.796c-0.053,0.29-0.277,0.577-0.596,0.519c-0.716-0.133-1.711,0.154-1.861,0.968
				c-0.068,0.372-0.072,1.771-0.126,2.074c-0.069,0.374-0.46,0.629-0.636,0.654c0.172,0.075,0.435,0.437,0.361,0.823
				c-0.06,0.332-0.644,2.093-0.712,2.466c-0.159,0.856,0.891,1.278,1.429,1.377c0.373,0.07,0.412,0.476,0.368,0.71
				c-0.08,0.429-0.42,0.579-0.932,0.485c-1.407-0.261-2.594-1.407-2.355-2.69c0.087-0.47,0.659-2.177,0.713-2.465
				c0.097-0.525-0.801-0.306-0.66-1.064C22.655,37.661,23.413,38.187,23.504,37.69z"/>
		</g>
		<g>
			<path fill="#FFFFFF" d="M30.984,26.61c0.215-0.178,1.116-1.247,1.463-1.532c0.965-0.794,2.715-0.435,3.625,0.671
				c0.391,0.477,0.256,0.842,0.008,1.047c-0.228,0.187-0.584,0.262-0.791,0.013c-0.463-0.563-1.409-0.984-2.047-0.458
				c-0.294,0.241-1.195,1.309-1.433,1.506c-0.293,0.241-0.756,0.186-0.906,0.092c0.082,0.167,0.05,0.613-0.252,0.862
				c-0.263,0.214-1.841,1.188-2.134,1.428c-0.672,0.553-0.141,1.551,0.208,1.974c0.239,0.293,0.008,0.629-0.177,0.781
				c-0.336,0.277-0.695,0.172-1.025-0.229c-0.909-1.105-1.079-2.747-0.07-3.576c0.367-0.303,1.904-1.241,2.133-1.428
				c0.412-0.339-0.416-0.748,0.18-1.239C30.35,26.041,30.593,26.931,30.984,26.61z"/>
		</g>
	</g>
	<g>
		<g>
			<path fill="#FFFFFF" d="M41.77,53.855c-0.17,0-1.009,0.154-1.283,0.154c-0.763,0-1.447-0.848-1.447-1.721
				c0-0.377,0.207-0.496,0.403-0.496c0.179,0,0.376,0.102,0.376,0.299c0,0.445,0.284,1.01,0.789,1.01c0.23,0,1.07-0.154,1.257-0.154
				c0.233,0,0.429,0.207,0.462,0.309c0.027-0.111,0.216-0.309,0.455-0.309c0.206,0,1.326,0.154,1.557,0.154
				c0.532,0,0.669-0.676,0.669-1.01c0-0.23,0.239-0.299,0.384-0.299c0.266,0,0.395,0.188,0.395,0.504
				c0,0.875-0.557,1.713-1.353,1.713c-0.291,0-1.378-0.154-1.557-0.154c-0.327,0-0.095,0.514-0.565,0.514
				C41.848,54.369,42.078,53.855,41.77,53.855z"/>
		</g>
		<g>
			<path fill="#FFFFFF" d="M34.295,50.6c-0.131-0.111-0.871-0.533-1.082-0.709c-0.582-0.49-0.561-1.58,0.001-2.248
				c0.241-0.289,0.477-0.248,0.628-0.121c0.139,0.115,0.223,0.32,0.094,0.473c-0.284,0.34-0.433,0.953-0.046,1.279
				c0.177,0.148,0.917,0.57,1.062,0.691c0.176,0.148,0.194,0.432,0.155,0.533c0.09-0.068,0.362-0.098,0.545,0.057
				c0.157,0.133,0.916,0.973,1.093,1.121c0.406,0.34,0.946-0.088,1.162-0.344c0.147-0.176,0.376-0.074,0.487,0.02
				c0.203,0.17,0.18,0.396-0.024,0.639c-0.562,0.67-1.527,0.953-2.138,0.439c-0.221-0.188-0.955-1.004-1.092-1.121
				c-0.249-0.207-0.402,0.334-0.764,0.029C34.023,51.041,34.53,50.797,34.295,50.6z"/>
		</g>
		<g>
			<path fill="#FFFFFF" d="M30.671,43.295c-0.03-0.169-0.325-0.969-0.371-1.24c-0.132-0.75,0.587-1.57,1.446-1.72
				c0.371-0.064,0.524,0.118,0.559,0.312c0.03,0.177-0.037,0.389-0.232,0.422c-0.438,0.077-0.945,0.452-0.859,0.949
				c0.04,0.228,0.336,1.028,0.367,1.213c0.041,0.228-0.129,0.457-0.225,0.508c0.114,0.007,0.341,0.158,0.383,0.394
				c0.033,0.203,0.074,1.334,0.113,1.561c0.093,0.524,0.781,0.543,1.11,0.485c0.228-0.039,0.335,0.186,0.361,0.328
				c0.045,0.262-0.118,0.422-0.431,0.477c-0.859,0.148-1.78-0.256-1.918-1.041c-0.049-0.287-0.084-1.383-0.115-1.561
				c-0.056-0.32-0.521-0.006-0.603-0.469C30.179,43.458,30.725,43.598,30.671,43.295z"/>
		</g>
		<g>
			<path fill="#FFFFFF" d="M32.598,35.372c0.086-0.148,0.375-0.951,0.514-1.187c0.383-0.659,1.46-0.824,2.215-0.384
				c0.326,0.189,0.325,0.427,0.227,0.597c-0.092,0.155-0.278,0.273-0.448,0.174c-0.386-0.224-1.017-0.264-1.27,0.172
				c-0.116,0.2-0.405,1.002-0.5,1.165c-0.116,0.2-0.394,0.266-0.499,0.245c0.083,0.078,0.158,0.34,0.038,0.547
				c-0.103,0.178-0.802,1.069-0.917,1.269c-0.268,0.458,0.249,0.917,0.538,1.085c0.198,0.117,0.138,0.357,0.063,0.484
				c-0.132,0.229-0.359,0.246-0.635,0.086c-0.754-0.439-1.198-1.341-0.799-2.03c0.146-0.251,0.828-1.113,0.919-1.269
				c0.162-0.282-0.397-0.34-0.161-0.747C32.116,35.18,32.443,35.638,32.598,35.372z"/>
		</g>
		<g>
			<path fill="#FFFFFF" d="M39.174,30.549c0.16-0.058,0.898-0.486,1.157-0.579c0.716-0.257,1.646,0.309,1.942,1.132
				c0.127,0.354-0.027,0.536-0.213,0.604c-0.17,0.06-0.388,0.029-0.454-0.155c-0.151-0.419-0.607-0.856-1.082-0.686
				c-0.219,0.078-0.956,0.506-1.133,0.569c-0.218,0.078-0.474-0.048-0.539-0.133c0.013,0.113-0.099,0.362-0.322,0.443
				c-0.193,0.069-1.303,0.303-1.52,0.38c-0.5,0.179-0.4,0.862-0.288,1.176c0.078,0.218-0.124,0.363-0.262,0.412
				c-0.249,0.09-0.434-0.044-0.541-0.342c-0.293-0.822-0.053-1.799,0.696-2.068c0.273-0.098,1.349-0.32,1.518-0.381
				c0.306-0.109-0.083-0.515,0.357-0.673C38.928,30.092,38.884,30.653,39.174,30.549z"/>
		</g>
		<g>
			<path fill="#FFFFFF" d="M47.311,31.091c0.159,0.06,0.999,0.207,1.256,0.302c0.715,0.265,1.062,1.298,0.76,2.117
				c-0.131,0.353-0.365,0.394-0.551,0.325c-0.168-0.062-0.316-0.228-0.248-0.412c0.155-0.417,0.086-1.045-0.388-1.22
				c-0.217-0.081-1.057-0.228-1.233-0.293c-0.217-0.081-0.33-0.342-0.326-0.449c-0.063,0.095-0.309,0.214-0.533,0.131
				c-0.192-0.072-1.191-0.606-1.406-0.687c-0.499-0.185-0.862,0.402-0.977,0.715c-0.081,0.216-0.331,0.198-0.466,0.147
				c-0.249-0.092-0.306-0.313-0.194-0.61c0.303-0.818,1.116-1.412,1.863-1.135c0.271,0.101,1.238,0.624,1.407,0.686
				c0.306,0.113,0.267-0.449,0.708-0.286C47.416,30.583,47.021,30.984,47.311,31.091z"/>
		</g>
		<g>
			<path fill="#FFFFFF" d="M53.188,36.743c0.084,0.149,0.632,0.802,0.767,1.041c0.376,0.663-0.021,1.677-0.78,2.108
				c-0.328,0.186-0.534,0.066-0.631-0.105c-0.089-0.157-0.096-0.378,0.074-0.476c0.387-0.22,0.738-0.744,0.489-1.183
				c-0.114-0.201-0.662-0.854-0.755-1.018c-0.114-0.202-0.033-0.474,0.039-0.555c-0.109,0.033-0.373-0.034-0.49-0.242
				c-0.103-0.179-0.522-1.23-0.637-1.431c-0.262-0.462-0.917-0.247-1.207-0.082c-0.201,0.113-0.379-0.061-0.451-0.188
				c-0.132-0.231-0.031-0.435,0.244-0.592c0.76-0.431,1.765-0.362,2.157,0.33c0.143,0.253,0.546,1.275,0.636,1.431
				c0.16,0.283,0.492-0.171,0.725,0.238C53.596,36.422,53.035,36.475,53.188,36.743z"/>
		</g>
		<g>
			<path fill="#FFFFFF" d="M54.047,44.852c-0.031,0.169-0.031,1.021-0.083,1.291c-0.138,0.75-1.097,1.268-1.955,1.109
				c-0.369-0.068-0.448-0.291-0.415-0.486c0.034-0.176,0.17-0.352,0.365-0.314c0.436,0.08,1.044-0.096,1.135-0.592
				c0.042-0.227,0.043-1.08,0.077-1.265c0.043-0.228,0.28-0.384,0.389-0.398c-0.106-0.045-0.265-0.267-0.222-0.501
				c0.038-0.203,0.394-1.278,0.435-1.505c0.097-0.521-0.543-0.779-0.87-0.839c-0.229-0.042-0.252-0.291-0.227-0.434
				c0.051-0.261,0.258-0.354,0.569-0.296c0.857,0.16,1.583,0.859,1.438,1.641c-0.054,0.287-0.402,1.328-0.436,1.505
				c-0.059,0.319,0.489,0.186,0.402,0.649C54.566,44.87,54.103,44.548,54.047,44.852z"/>
		</g>
		<g>
			<path fill="#FFFFFF" d="M49.484,51.609c-0.132,0.109-0.681,0.762-0.893,0.936c-0.588,0.484-1.655,0.266-2.211-0.408
				c-0.24-0.291-0.156-0.514-0.005-0.639c0.139-0.115,0.356-0.16,0.483-0.01c0.281,0.344,0.858,0.602,1.249,0.281
				c0.178-0.148,0.728-0.799,0.873-0.92c0.179-0.146,0.461-0.113,0.552-0.055c-0.049-0.102-0.029-0.373,0.154-0.525
				c0.16-0.131,1.123-0.725,1.302-0.871c0.409-0.338,0.085-0.947-0.128-1.205c-0.146-0.178-0.004-0.383,0.109-0.477
				c0.204-0.168,0.422-0.105,0.623,0.141c0.556,0.674,0.66,1.674,0.044,2.182c-0.224,0.184-1.162,0.756-1.301,0.871
				c-0.25,0.205,0.254,0.455-0.108,0.754C49.871,51.957,49.724,51.414,49.484,51.609z"/>
		</g>
	</g>
	<g>
		<g>
			<path fill="#FFFFFF" d="M42.904,34.991c0.104,0,0.616-0.094,0.783-0.094c0.465,0,0.882,0.518,0.882,1.05
				c0,0.229-0.124,0.303-0.244,0.303c-0.111,0-0.229-0.062-0.229-0.183c0-0.271-0.173-0.616-0.48-0.616
				c-0.142,0-0.653,0.094-0.77,0.094c-0.139,0-0.26-0.125-0.281-0.188c-0.016,0.068-0.131,0.188-0.276,0.188
				c-0.126,0-0.811-0.094-0.949-0.094c-0.323,0-0.408,0.413-0.408,0.616c0,0.141-0.146,0.183-0.235,0.183
				c-0.162,0-0.24-0.115-0.24-0.309c0-0.532,0.34-1.044,0.826-1.044c0.178,0,0.84,0.094,0.949,0.094
				c0.198,0,0.058-0.313,0.345-0.313C42.856,34.678,42.717,34.991,42.904,34.991z"/>
		</g>
		<g>
			<path fill="#FFFFFF" d="M47.464,36.977c0.081,0.068,0.532,0.325,0.662,0.433c0.354,0.299,0.341,0.964,0,1.372
				c-0.149,0.176-0.292,0.151-0.384,0.073c-0.085-0.07-0.137-0.195-0.059-0.288c0.175-0.207,0.265-0.583,0.029-0.78
				c-0.107-0.091-0.561-0.348-0.648-0.422c-0.109-0.09-0.12-0.264-0.095-0.325c-0.056,0.041-0.222,0.059-0.333-0.035
				c-0.096-0.081-0.559-0.594-0.667-0.684c-0.247-0.209-0.576,0.053-0.707,0.209c-0.093,0.108-0.23,0.045-0.298-0.012
				c-0.125-0.103-0.109-0.242,0.014-0.39c0.342-0.408,0.932-0.581,1.304-0.268c0.136,0.115,0.584,0.613,0.666,0.684
				c0.153,0.127,0.246-0.204,0.467-0.018C47.63,36.708,47.319,36.857,47.464,36.977z"/>
		</g>
		<g>
			<path fill="#FFFFFF" d="M49.675,41.433c0.02,0.103,0.2,0.592,0.228,0.756c0.08,0.458-0.357,0.958-0.883,1.049
				c-0.227,0.039-0.32-0.072-0.34-0.19c-0.019-0.108,0.023-0.237,0.14-0.258c0.268-0.047,0.579-0.275,0.526-0.579
				c-0.024-0.139-0.205-0.627-0.227-0.74c-0.023-0.139,0.081-0.279,0.139-0.31c-0.07-0.004-0.209-0.096-0.232-0.241
				c-0.022-0.124-0.047-0.813-0.07-0.951c-0.056-0.319-0.476-0.331-0.677-0.296c-0.139,0.023-0.205-0.113-0.221-0.2
				c-0.027-0.16,0.073-0.257,0.263-0.29c0.524-0.091,1.086,0.156,1.171,0.634c0.028,0.175,0.051,0.845,0.069,0.953
				c0.034,0.195,0.318,0.003,0.367,0.286C49.977,41.333,49.644,41.248,49.675,41.433z"/>
		</g>
		<g>
			<path fill="#FFFFFF" d="M48.5,46.266c-0.052,0.09-0.229,0.58-0.312,0.725c-0.234,0.402-0.891,0.504-1.351,0.234
				c-0.2-0.115-0.199-0.26-0.14-0.363c0.057-0.096,0.172-0.168,0.273-0.107c0.234,0.137,0.619,0.16,0.774-0.105
				c0.071-0.121,0.247-0.611,0.306-0.711c0.07-0.121,0.239-0.162,0.304-0.148c-0.051-0.047-0.096-0.208-0.022-0.333
				c0.062-0.108,0.487-0.652,0.56-0.774c0.161-0.279-0.152-0.56-0.329-0.662c-0.122-0.071-0.083-0.218-0.039-0.295
				c0.082-0.14,0.221-0.15,0.388-0.053c0.46,0.268,0.73,0.818,0.487,1.238c-0.09,0.153-0.504,0.68-0.561,0.774
				c-0.099,0.171,0.242,0.208,0.098,0.457C48.794,46.383,48.595,46.104,48.5,46.266z"/>
		</g>
		<g>
			<path fill="#FFFFFF" d="M44.488,49.209c-0.098,0.035-0.548,0.295-0.705,0.352c-0.438,0.156-1.005-0.188-1.185-0.689
				c-0.077-0.217,0.016-0.328,0.129-0.369c0.103-0.035,0.237-0.018,0.277,0.096c0.093,0.256,0.37,0.521,0.66,0.418
				c0.132-0.049,0.584-0.309,0.691-0.348c0.132-0.047,0.287,0.029,0.329,0.082c-0.009-0.07,0.059-0.223,0.196-0.271
				c0.118-0.043,0.794-0.184,0.927-0.23c0.306-0.111,0.245-0.527,0.175-0.719c-0.048-0.133,0.077-0.221,0.159-0.25
				c0.154-0.057,0.266,0.025,0.33,0.207c0.18,0.502,0.033,1.098-0.425,1.262c-0.167,0.061-0.821,0.195-0.925,0.232
				c-0.188,0.068,0.052,0.314-0.219,0.412C44.639,49.486,44.666,49.145,44.488,49.209z"/>
		</g>
		<g>
			<path fill="#FFFFFF" d="M39.526,48.877c-0.099-0.037-0.611-0.125-0.769-0.184c-0.435-0.162-0.646-0.791-0.461-1.291
				c0.079-0.215,0.222-0.24,0.334-0.199c0.104,0.039,0.195,0.141,0.153,0.252c-0.096,0.254-0.053,0.639,0.236,0.744
				c0.131,0.049,0.643,0.141,0.752,0.18c0.132,0.049,0.201,0.209,0.199,0.273c0.038-0.059,0.187-0.131,0.325-0.08
				c0.115,0.043,0.725,0.369,0.856,0.418c0.304,0.113,0.525-0.244,0.597-0.436c0.05-0.131,0.201-0.119,0.283-0.09
				c0.153,0.057,0.186,0.191,0.119,0.373c-0.186,0.5-0.682,0.861-1.137,0.691c-0.166-0.061-0.756-0.381-0.857-0.418
				c-0.187-0.068-0.164,0.273-0.433,0.174C39.461,49.188,39.702,48.943,39.526,48.877z"/>
		</g>
		<g>
			<path fill="#FFFFFF" d="M35.939,45.43c-0.051-0.092-0.385-0.49-0.469-0.636c-0.228-0.403,0.016-1.023,0.479-1.285
				c0.199-0.114,0.325-0.041,0.385,0.064c0.054,0.095,0.058,0.23-0.045,0.29c-0.238,0.135-0.451,0.454-0.3,0.723
				c0.069,0.122,0.404,0.521,0.462,0.62c0.068,0.123,0.02,0.29-0.025,0.339c0.066-0.02,0.229,0.02,0.301,0.147
				c0.062,0.109,0.317,0.751,0.387,0.873c0.16,0.283,0.562,0.15,0.736,0.051c0.124-0.07,0.232,0.037,0.276,0.113
				c0.079,0.141,0.019,0.266-0.148,0.361c-0.465,0.264-1.077,0.221-1.315-0.201c-0.09-0.154-0.334-0.777-0.389-0.873
				c-0.099-0.174-0.3,0.104-0.443-0.145C35.691,45.625,36.034,45.593,35.939,45.43z"/>
		</g>
		<g>
			<path fill="#FFFFFF" d="M35.416,40.483c0.019-0.103,0.019-0.623,0.051-0.787c0.084-0.458,0.668-0.774,1.193-0.677
				c0.225,0.041,0.273,0.178,0.252,0.296c-0.021,0.108-0.104,0.215-0.223,0.193c-0.266-0.05-0.636,0.058-0.691,0.36
				c-0.027,0.139-0.027,0.659-0.047,0.771c-0.025,0.139-0.172,0.234-0.237,0.244c0.063,0.028,0.159,0.162,0.135,0.306
				c-0.022,0.123-0.239,0.779-0.267,0.917c-0.058,0.318,0.333,0.476,0.533,0.513c0.139,0.026,0.151,0.177,0.138,0.264
				c-0.03,0.159-0.157,0.215-0.348,0.18c-0.524-0.097-0.965-0.523-0.876-1.001c0.032-0.175,0.245-0.81,0.266-0.917
				c0.036-0.195-0.299-0.114-0.247-0.396C35.1,40.473,35.381,40.668,35.416,40.483z"/>
		</g>
		<g>
			<path fill="#FFFFFF" d="M38.198,36.361c0.082-0.067,0.417-0.465,0.546-0.571c0.358-0.295,1.01-0.161,1.349,0.25
				c0.146,0.178,0.095,0.313,0.002,0.39c-0.085,0.07-0.218,0.098-0.293,0.005c-0.174-0.21-0.525-0.366-0.763-0.17
				c-0.107,0.089-0.444,0.487-0.533,0.561c-0.108,0.089-0.281,0.068-0.337,0.034c0.031,0.062,0.02,0.228-0.095,0.321
				c-0.097,0.08-0.685,0.442-0.793,0.531c-0.25,0.206-0.052,0.578,0.077,0.734c0.089,0.109,0.003,0.234-0.064,0.291
				c-0.126,0.103-0.26,0.065-0.382-0.085c-0.34-0.412-0.402-1.022-0.026-1.331c0.136-0.112,0.708-0.461,0.794-0.53
				c0.152-0.127-0.156-0.279,0.065-0.462C37.964,36.148,38.054,36.48,38.198,36.361z"/>
		</g>
	</g>
	<g>
		<g>
			<path fill="#FFFFFF" d="M42.214,46.498c-0.063,0-0.377,0.057-0.479,0.057c-0.284,0-0.538-0.314-0.538-0.641
				c0-0.139,0.076-0.184,0.149-0.184c0.067,0,0.14,0.04,0.14,0.112c0,0.166,0.105,0.377,0.294,0.377
				c0.086,0,0.397-0.059,0.468-0.059c0.087,0,0.159,0.078,0.172,0.115c0.009-0.041,0.08-0.115,0.17-0.115
				c0.076,0,0.493,0.059,0.579,0.059c0.196,0,0.249-0.252,0.249-0.377c0-0.086,0.088-0.112,0.143-0.112
				c0.099,0,0.147,0.071,0.147,0.188c0,0.326-0.206,0.637-0.504,0.637c-0.108,0-0.513-0.057-0.58-0.057
				c-0.121,0-0.034,0.191-0.209,0.191C42.242,46.689,42.328,46.498,42.214,46.498z"/>
		</g>
		<g>
			<path fill="#FFFFFF" d="M39.432,45.287c-0.049-0.041-0.323-0.198-0.403-0.264c-0.217-0.183-0.209-0.588,0-0.836
				c0.092-0.108,0.179-0.093,0.234-0.046c0.052,0.043,0.083,0.12,0.035,0.175c-0.106,0.127-0.161,0.355-0.018,0.477
				c0.066,0.056,0.341,0.213,0.395,0.258c0.066,0.055,0.073,0.161,0.059,0.198c0.034-0.025,0.135-0.036,0.202,0.021
				c0.059,0.05,0.342,0.362,0.407,0.418c0.151,0.127,0.353-0.033,0.432-0.128c0.056-0.065,0.141-0.028,0.183,0.007
				c0.074,0.063,0.066,0.148-0.01,0.239c-0.209,0.248-0.568,0.354-0.795,0.164c-0.082-0.07-0.355-0.375-0.406-0.418
				c-0.092-0.077-0.15,0.124-0.284,0.012C39.33,45.451,39.52,45.361,39.432,45.287z"/>
		</g>
		<g>
			<path fill="#FFFFFF" d="M38.084,42.568c-0.012-0.063-0.123-0.36-0.139-0.461c-0.049-0.279,0.218-0.583,0.537-0.64
				c0.139-0.024,0.195,0.043,0.208,0.116c0.011,0.066-0.014,0.145-0.087,0.158c-0.162,0.028-0.351,0.167-0.318,0.353
				c0.016,0.085,0.124,0.382,0.137,0.452c0.014,0.085-0.049,0.17-0.083,0.189c0.042,0.003,0.127,0.059,0.141,0.147
				c0.013,0.075,0.028,0.496,0.044,0.581c0.033,0.195,0.29,0.202,0.412,0.181c0.085-0.015,0.125,0.069,0.135,0.122
				c0.017,0.098-0.045,0.157-0.161,0.177c-0.319,0.057-0.662-0.094-0.714-0.386c-0.018-0.107-0.031-0.515-0.042-0.581
				c-0.021-0.119-0.194-0.002-0.224-0.174C37.899,42.629,38.103,42.681,38.084,42.568z"/>
		</g>
		<g>
			<path fill="#FFFFFF" d="M38.8,39.62c0.032-0.055,0.14-0.354,0.191-0.442c0.142-0.245,0.544-0.306,0.823-0.142
				c0.121,0.07,0.121,0.158,0.086,0.221c-0.034,0.058-0.104,0.102-0.168,0.065c-0.143-0.083-0.377-0.099-0.472,0.064
				c-0.044,0.074-0.15,0.373-0.187,0.433c-0.043,0.075-0.146,0.1-0.186,0.091c0.029,0.029,0.059,0.127,0.014,0.204
				c-0.037,0.066-0.299,0.398-0.341,0.472c-0.099,0.171,0.093,0.341,0.2,0.404c0.074,0.043,0.052,0.133,0.023,0.18
				c-0.049,0.085-0.133,0.091-0.235,0.032c-0.28-0.164-0.446-0.5-0.297-0.755c0.054-0.093,0.307-0.414,0.341-0.473
				c0.061-0.104-0.148-0.127-0.06-0.278C38.619,39.549,38.742,39.719,38.8,39.62z"/>
		</g>
		<g>
			<path fill="#FFFFFF" d="M41.246,37.826c0.061-0.021,0.335-0.181,0.432-0.215c0.266-0.096,0.613,0.115,0.723,0.42
				c0.047,0.133-0.011,0.2-0.078,0.225c-0.063,0.022-0.146,0.011-0.17-0.058c-0.055-0.156-0.227-0.318-0.402-0.254
				c-0.082,0.029-0.357,0.188-0.422,0.212c-0.08,0.028-0.176-0.019-0.201-0.05c0.006,0.042-0.037,0.135-0.119,0.165
				c-0.073,0.026-0.484,0.113-0.565,0.142c-0.187,0.066-0.149,0.321-0.106,0.438c0.028,0.081-0.047,0.134-0.098,0.152
				c-0.093,0.033-0.162-0.016-0.201-0.127c-0.11-0.306-0.021-0.669,0.258-0.77c0.102-0.037,0.502-0.119,0.564-0.142
				c0.114-0.041-0.029-0.191,0.134-0.25C41.155,37.655,41.139,37.864,41.246,37.826z"/>
		</g>
		<g>
			<path fill="#FFFFFF" d="M44.275,38.027c0.059,0.023,0.371,0.077,0.467,0.113c0.266,0.099,0.394,0.483,0.283,0.788
				c-0.05,0.131-0.137,0.147-0.206,0.121c-0.062-0.023-0.118-0.084-0.093-0.153c0.059-0.155,0.032-0.389-0.143-0.454
				c-0.08-0.03-0.394-0.084-0.459-0.109c-0.082-0.03-0.124-0.127-0.121-0.167c-0.025,0.035-0.115,0.08-0.199,0.048
				c-0.072-0.027-0.444-0.225-0.523-0.255c-0.186-0.068-0.32,0.15-0.363,0.267c-0.03,0.081-0.124,0.073-0.174,0.055
				c-0.092-0.035-0.112-0.117-0.071-0.227c0.113-0.305,0.415-0.526,0.692-0.423c0.102,0.038,0.461,0.232,0.524,0.256
				c0.114,0.042,0.1-0.168,0.263-0.107C44.314,37.839,44.167,37.988,44.275,38.027z"/>
		</g>
		<g>
			<path fill="#FFFFFF" d="M46.461,40.131c0.031,0.056,0.235,0.299,0.286,0.387c0.141,0.247-0.009,0.624-0.291,0.785
				c-0.122,0.069-0.199,0.024-0.234-0.04c-0.034-0.058-0.036-0.141,0.027-0.176c0.144-0.082,0.274-0.277,0.183-0.441
				c-0.044-0.074-0.247-0.317-0.281-0.378c-0.043-0.076-0.012-0.176,0.014-0.207c-0.039,0.012-0.137-0.013-0.182-0.09
				c-0.038-0.066-0.195-0.458-0.237-0.532c-0.097-0.172-0.341-0.092-0.449-0.03c-0.075,0.042-0.14-0.023-0.167-0.07
				c-0.048-0.085-0.012-0.162,0.09-0.22c0.283-0.16,0.658-0.134,0.803,0.123c0.053,0.094,0.204,0.475,0.237,0.533
				c0.059,0.105,0.183-0.064,0.269,0.088C46.614,40.012,46.405,40.031,46.461,40.131z"/>
		</g>
		<g>
			<path fill="#FFFFFF" d="M46.781,43.147c-0.012,0.062-0.012,0.38-0.03,0.48c-0.052,0.279-0.409,0.473-0.728,0.414
				c-0.138-0.025-0.167-0.109-0.154-0.181c0.012-0.065,0.062-0.131,0.135-0.118c0.162,0.03,0.389-0.035,0.423-0.22
				c0.015-0.084,0.015-0.402,0.029-0.471c0.015-0.084,0.103-0.143,0.144-0.148c-0.039-0.017-0.099-0.1-0.083-0.187
				c0.015-0.075,0.146-0.475,0.162-0.56c0.037-0.195-0.202-0.29-0.324-0.312c-0.084-0.017-0.093-0.109-0.083-0.162
				c0.018-0.097,0.094-0.131,0.211-0.11c0.32,0.06,0.59,0.32,0.535,0.611c-0.021,0.107-0.148,0.494-0.163,0.56
				c-0.021,0.119,0.183,0.069,0.149,0.242C46.975,43.154,46.801,43.036,46.781,43.147z"/>
		</g>
		<g>
			<path fill="#FFFFFF" d="M45.083,45.664c-0.049,0.04-0.254,0.282-0.333,0.348c-0.219,0.18-0.614,0.098-0.822-0.154
				c-0.088-0.108-0.059-0.19-0.001-0.237c0.052-0.043,0.133-0.06,0.18-0.002c0.106,0.127,0.319,0.223,0.465,0.104
				c0.065-0.056,0.272-0.297,0.325-0.342c0.064-0.055,0.171-0.043,0.205-0.021c-0.019-0.037-0.012-0.139,0.058-0.195
				c0.06-0.049,0.419-0.27,0.484-0.324c0.153-0.125,0.032-0.353-0.047-0.448c-0.056-0.066-0.003-0.143,0.039-0.177
				c0.078-0.063,0.157-0.039,0.233,0.051c0.205,0.252,0.245,0.624,0.016,0.812c-0.084,0.068-0.433,0.281-0.484,0.324
				c-0.092,0.076,0.096,0.17-0.041,0.281C45.227,45.793,45.173,45.59,45.083,45.664z"/>
		</g>
	</g>
	<g>
		<g>
			<path fill="#FFFFFF" d="M58.84,60.598c-0.253,0.254-1.271,1.73-1.679,2.137c-1.132,1.133-3.408,0.891-4.706-0.406
				c-0.561-0.561-0.433-1.043-0.14-1.336c0.266-0.266,0.713-0.406,1.005-0.113c0.661,0.66,1.92,1.08,2.672,0.33
				c0.344-0.344,1.361-1.82,1.641-2.1c0.344-0.344,0.941-0.33,1.145-0.229c-0.127-0.203-0.139-0.775,0.217-1.133
				c0.305-0.305,2.2-1.742,2.545-2.086c0.787-0.789-0.014-1.998-0.51-2.492c-0.343-0.344-0.09-0.803,0.127-1.02
				c0.395-0.393,0.865-0.305,1.336,0.166c1.297,1.297,1.717,3.371,0.534,4.555c-0.433,0.432-2.276,1.818-2.543,2.086
				c-0.484,0.484,0.622,0.902-0.077,1.602C59.719,61.246,59.299,60.141,58.84,60.598z"/>
		</g>
		<g>
			<path fill="#FFFFFF" d="M42.893,66.869c-0.359,0.029-2.088,0.504-2.662,0.553c-1.595,0.139-3.182-1.512-3.34-3.34
				c-0.068-0.789,0.34-1.078,0.753-1.113c0.376-0.033,0.808,0.148,0.843,0.561c0.08,0.932,0.774,2.064,1.832,1.971
				c0.484-0.041,2.213-0.514,2.607-0.549c0.483-0.041,0.932,0.354,1.021,0.562c0.035-0.238,0.394-0.684,0.896-0.727
				c0.429-0.039,2.806,0.082,3.288,0.039c1.112-0.096,1.276-1.535,1.216-2.234c-0.041-0.484,0.449-0.672,0.754-0.697
				c0.555-0.049,0.856,0.322,0.915,0.986c0.158,1.828-0.855,3.686-2.522,3.828c-0.609,0.053-2.914-0.072-3.29-0.041
				c-0.682,0.061-0.105,1.094-1.091,1.18C43.145,67.93,43.538,66.812,42.893,66.869z"/>
		</g>
		<g>
			<path fill="#FFFFFF" d="M26.65,61.4c-0.295-0.207-1.923-0.957-2.395-1.289c-1.309-0.92-1.46-3.207-0.404-4.707
				c0.456-0.648,0.954-0.604,1.293-0.365c0.308,0.217,0.522,0.631,0.283,0.969c-0.539,0.766-0.735,2.078,0.133,2.689
				c0.397,0.279,2.024,1.029,2.35,1.258c0.397,0.277,0.486,0.869,0.42,1.088c0.18-0.16,0.741-0.27,1.153,0.02
				c0.353,0.248,2.095,1.869,2.491,2.148c0.912,0.643,1.966-0.354,2.369-0.928c0.279-0.396,0.775-0.225,1.023-0.049
				c0.458,0.32,0.451,0.799,0.067,1.344c-1.056,1.502-3.027,2.27-4.396,1.307c-0.5-0.352-2.182-1.932-2.491-2.148
				c-0.56-0.395-0.784,0.768-1.592,0.199C26.16,62.375,27.179,61.773,26.65,61.4z"/>
		</g>
		<g>
			<path fill="#FFFFFF" d="M17.74,46.762c-0.092-0.35-0.855-1.971-1.002-2.528c-0.409-1.547,0.946-3.395,2.719-3.863
				c0.768-0.202,1.12,0.151,1.226,0.551c0.097,0.365-0.007,0.82-0.407,0.926c-0.905,0.239-1.899,1.116-1.629,2.142
				c0.125,0.47,0.887,2.092,0.988,2.475c0.124,0.471-0.188,0.98-0.379,1.104c0.24-0.006,0.742,0.271,0.87,0.758
				c0.11,0.418,0.398,2.779,0.522,3.248c0.284,1.078,1.732,0.994,2.412,0.812c0.469-0.123,0.737,0.328,0.814,0.625
				c0.144,0.539-0.17,0.9-0.814,1.07c-1.773,0.469-3.777-0.213-4.205-1.828c-0.155-0.592-0.426-2.885-0.521-3.25
				c-0.176-0.66-1.095,0.084-1.348-0.873C16.738,47.193,17.905,47.387,17.74,46.762z"/>
		</g>
		<g>
			<path fill="#FFFFFF" d="M20.346,29.822c0.152-0.326,0.612-2.058,0.858-2.579c0.685-1.448,2.909-1.989,4.569-1.206
				c0.715,0.338,0.758,0.836,0.582,1.21c-0.161,0.341-0.533,0.624-0.908,0.447c-0.847-0.399-2.172-0.369-2.625,0.59
				c-0.209,0.439-0.668,2.172-0.836,2.53c-0.208,0.439-0.774,0.629-1.001,0.602c0.188,0.149,0.394,0.684,0.178,1.139
				c-0.183,0.391-1.482,2.384-1.69,2.822c-0.476,1.009,0.686,1.876,1.321,2.175c0.438,0.208,0.354,0.725,0.222,1.001
				c-0.236,0.505-0.709,0.58-1.312,0.297c-1.658-0.785-2.754-2.594-2.039-4.107c0.261-0.553,1.529-2.48,1.69-2.822
				c0.292-0.619-0.892-0.64-0.47-1.535C19.3,29.507,20.068,30.407,20.346,29.822z"/>
		</g>
		<g>
			<path fill="#FFFFFF" d="M33.242,18.536c0.327-0.15,1.795-1.18,2.316-1.42c1.455-0.668,3.508,0.351,4.273,2.018
				c0.33,0.72,0.043,1.128-0.333,1.301c-0.344,0.157-0.811,0.134-0.983-0.242c-0.389-0.85-1.425-1.682-2.389-1.239
				c-0.442,0.203-1.909,1.232-2.269,1.398c-0.441,0.203-0.997-0.018-1.152-0.183c0.049,0.234-0.139,0.776-0.597,0.986
				c-0.394,0.18-2.67,0.87-3.11,1.072c-1.016,0.465-0.683,1.878-0.39,2.514c0.201,0.442-0.197,0.783-0.474,0.91
				c-0.508,0.232-0.917-0.014-1.196-0.619c-0.765-1.668-0.438-3.758,1.082-4.456c0.557-0.255,2.768-0.914,3.111-1.072
				c0.621-0.286-0.271-1.064,0.629-1.477C32.645,17.623,32.654,18.806,33.242,18.536z"/>
		</g>
		<g>
			<path fill="#FFFFFF" d="M50.376,18.2c0.347,0.097,2.133,0.252,2.688,0.406c1.543,0.425,2.457,2.525,1.97,4.294
				c-0.21,0.764-0.692,0.89-1.092,0.781c-0.364-0.101-0.706-0.419-0.597-0.818c0.248-0.902-0.008-2.204-1.031-2.485
				c-0.468-0.13-2.254-0.286-2.635-0.391c-0.469-0.129-0.753-0.656-0.765-0.882c-0.114,0.21-0.605,0.504-1.091,0.371
				c-0.417-0.115-2.604-1.054-3.07-1.183c-1.076-0.297-1.73,0.998-1.918,1.674c-0.129,0.468-0.653,0.472-0.948,0.391
				c-0.538-0.148-0.691-0.601-0.517-1.243c0.488-1.769,2.084-3.158,3.697-2.714c0.59,0.163,2.707,1.083,3.071,1.183
				c0.66,0.182,0.477-0.988,1.432-0.725C50.507,17.118,49.753,18.029,50.376,18.2z"/>
		</g>
		<g>
			<path fill="#FFFFFF" d="M63.704,28.974c0.205,0.297,1.471,1.565,1.797,2.04c0.908,1.319,0.256,3.515-1.257,4.555
				c-0.651,0.449-1.104,0.235-1.338-0.105c-0.215-0.311-0.271-0.775,0.07-1.01c0.77-0.529,1.412-1.692,0.811-2.566
				c-0.275-0.4-1.541-1.669-1.766-1.995c-0.275-0.401-0.153-0.986-0.018-1.168c-0.222,0.088-0.788-0.004-1.072-0.418
				c-0.245-0.355-1.315-2.481-1.589-2.881c-0.634-0.92-1.968-0.351-2.545,0.047c-0.401,0.274-0.804-0.06-0.978-0.311
				c-0.315-0.459-0.144-0.906,0.405-1.283c1.512-1.04,3.627-1.076,4.575,0.303c0.347,0.504,1.375,2.57,1.589,2.881
				c0.387,0.564,1.001-0.448,1.562,0.367C64.503,28.229,63.338,28.44,63.704,28.974z"/>
		</g>
		<g>
			<path fill="#FFFFFF" d="M66.971,45.797c-0.034,0.359,0.117,2.145,0.062,2.719c-0.154,1.594-2.068,2.854-3.893,2.676
				c-0.79-0.076-0.997-0.529-0.959-0.941c0.038-0.377,0.293-0.768,0.706-0.729c0.93,0.092,2.168-0.385,2.271-1.441
				c0.048-0.484-0.104-2.27-0.065-2.663c0.047-0.484,0.516-0.854,0.738-0.904c-0.229-0.078-0.602-0.512-0.553-1.012
				c0.042-0.431,0.591-2.746,0.639-3.229c0.108-1.11-1.279-1.534-1.978-1.601c-0.484-0.048-0.577-0.563-0.548-0.867
				c0.054-0.555,0.473-0.786,1.137-0.722c1.825,0.178,3.468,1.511,3.307,3.177c-0.06,0.609-0.604,2.852-0.64,3.228
				c-0.067,0.681,1.056,0.302,0.959,1.288C68.061,45.74,67.033,45.154,66.971,45.797z"/>
		</g>
	</g>
	<g>
		<g>
			<path fill="#FFFFFF" d="M27.342,41.185c-0.002-0.219-0.199-1.294-0.199-1.646c0-0.977,1.087-1.855,2.205-1.855
				c0.483,0,0.639,0.264,0.638,0.516c0,0.23-0.131,0.482-0.385,0.482c-0.57,0-1.294,0.362-1.295,1.01
				c0,0.296,0.198,1.371,0.198,1.613c0,0.297-0.265,0.549-0.396,0.593c0.144,0.033,0.396,0.275,0.396,0.582
				c0,0.263-0.197,1.7-0.198,1.997c0.001,0.68,0.868,0.855,1.295,0.856c0.297,0,0.386,0.307,0.386,0.494
				c-0.001,0.34-0.242,0.504-0.647,0.504c-1.122,0-2.196-0.713-2.196-1.733c0-0.373,0.197-1.767,0.197-1.998
				c0-0.417-0.658-0.121-0.658-0.724C26.682,41.284,27.34,41.581,27.342,41.185z"/>
		</g>
		<g>
			<path fill="#FFFFFF" d="M31.515,31.602c0.143-0.168,0.685-1.119,0.91-1.387c0.628-0.748,2.025-0.72,2.881,0.001
				c0.37,0.311,0.318,0.61,0.155,0.804c-0.147,0.176-0.411,0.285-0.605,0.122c-0.437-0.367-1.223-0.556-1.64-0.061
				c-0.19,0.227-0.733,1.177-0.888,1.362c-0.191,0.227-0.554,0.25-0.684,0.199c0.087,0.117,0.125,0.464-0.072,0.7
				c-0.17,0.201-1.246,1.174-1.437,1.401c-0.438,0.521,0.112,1.213,0.44,1.489c0.227,0.19,0.096,0.482-0.025,0.625
				c-0.219,0.261-0.509,0.232-0.818-0.03c-0.858-0.72-1.223-1.959-0.565-2.74c0.241-0.286,1.288-1.225,1.438-1.401
				c0.269-0.32-0.426-0.517-0.038-0.979C30.947,31.253,31.261,31.903,31.515,31.602z"/>
		</g>
		<g>
			<path fill="#FFFFFF" d="M40.878,26.954c0.218-0.037,1.243-0.417,1.591-0.476c0.961-0.167,2.013,0.752,2.205,1.855
				c0.081,0.476-0.151,0.672-0.4,0.716c-0.227,0.039-0.498-0.047-0.541-0.296c-0.098-0.562-0.578-1.213-1.216-1.103
				c-0.292,0.051-1.317,0.43-1.557,0.471c-0.292,0.051-0.586-0.165-0.651-0.287c-0.008,0.146-0.204,0.437-0.505,0.489
				c-0.259,0.044-1.709,0.097-2.001,0.147c-0.671,0.116-0.696,1-0.622,1.423c0.05,0.292-0.237,0.431-0.422,0.463
				c-0.335,0.058-0.538-0.151-0.608-0.552c-0.191-1.103,0.327-2.284,1.332-2.459c0.369-0.064,1.775-0.108,2.002-0.147
				c0.412-0.072,0.007-0.67,0.602-0.773C40.671,26.323,40.49,27.022,40.878,26.954z"/>
		</g>
		<g>
			<path fill="#FFFFFF" d="M51.037,29.425c0.19,0.111,1.22,0.481,1.522,0.658c0.845,0.491,1.056,1.872,0.492,2.839
				c-0.242,0.417-0.547,0.417-0.765,0.291c-0.199-0.116-0.351-0.356-0.225-0.575c0.287-0.494,0.338-1.302-0.221-1.627
				c-0.258-0.148-1.286-0.52-1.494-0.641c-0.255-0.149-0.341-0.503-0.313-0.638c-0.1,0.106-0.435,0.202-0.7,0.048
				c-0.229-0.132-1.373-1.026-1.627-1.175c-0.589-0.343-1.177,0.319-1.392,0.689c-0.149,0.255-0.458,0.176-0.621,0.083
				c-0.294-0.171-0.314-0.463-0.108-0.813c0.562-0.968,1.719-1.538,2.602-1.025c0.32,0.188,1.428,1.06,1.626,1.176
				c0.361,0.209,0.437-0.509,0.958-0.206C51.284,28.807,50.696,29.227,51.037,29.425z"/>
		</g>
		<g>
			<path fill="#FFFFFF" d="M57.22,37.855c0.073,0.207,0.624,1.153,0.742,1.483c0.329,0.919-0.397,2.113-1.45,2.491
				c-0.454,0.164-0.688-0.033-0.773-0.271c-0.078-0.218-0.039-0.5,0.198-0.584c0.538-0.193,1.097-0.778,0.879-1.388
				c-0.101-0.279-0.649-1.225-0.732-1.451c-0.099-0.28,0.064-0.606,0.174-0.691c-0.146,0.017-0.466-0.125-0.57-0.415
				c-0.087-0.248-0.388-1.668-0.487-1.946c-0.229-0.641-1.104-0.513-1.508-0.369c-0.279,0.101-0.465-0.16-0.528-0.334
				c-0.114-0.321,0.058-0.558,0.44-0.694c1.053-0.377,2.306-0.069,2.649,0.891c0.128,0.351,0.411,1.73,0.489,1.947
				c0.141,0.393,0.66-0.108,0.864,0.46C57.807,37.541,57.087,37.483,57.22,37.855z"/>
		</g>
		<g>
			<path fill="#FFFFFF" d="M56.524,48.287c-0.075,0.207-0.265,1.283-0.387,1.611c-0.339,0.916-1.664,1.361-2.714,0.973
				c-0.451-0.168-0.505-0.469-0.416-0.705c0.081-0.215,0.292-0.406,0.528-0.318c0.534,0.197,1.34,0.109,1.563-0.496
				c0.104-0.279,0.294-1.355,0.376-1.582c0.104-0.277,0.438-0.424,0.576-0.418c-0.121-0.082-0.275-0.396-0.167-0.684
				c0.091-0.246,0.776-1.527,0.879-1.804c0.238-0.638-0.516-1.104-0.917-1.252c-0.276-0.104-0.252-0.422-0.188-0.597
				c0.117-0.319,0.401-0.39,0.782-0.249c1.049,0.39,1.81,1.433,1.455,2.389c-0.13,0.351-0.801,1.589-0.879,1.804
				c-0.146,0.391,0.574,0.342,0.365,0.908C57.176,48.424,56.662,47.916,56.524,48.287z"/>
		</g>
		<g>
			<path fill="#FFFFFF" d="M49.28,55.822c-0.192,0.109-1.03,0.811-1.335,0.984c-0.848,0.482-2.148-0.029-2.703-1.002
				c-0.238-0.42-0.084-0.684,0.136-0.809c0.2-0.113,0.483-0.125,0.608,0.096c0.283,0.496,0.955,0.947,1.518,0.627
				c0.257-0.146,1.096-0.848,1.305-0.967c0.258-0.146,0.608-0.043,0.711,0.049c-0.041-0.139,0.044-0.479,0.311-0.631
				c0.229-0.129,1.577-0.668,1.834-0.812c0.593-0.336,0.315-1.178,0.105-1.549c-0.146-0.26,0.078-0.486,0.239-0.578
				c0.296-0.168,0.56-0.039,0.76,0.314c0.553,0.973,0.463,2.26-0.425,2.764c-0.324,0.184-1.634,0.701-1.834,0.814
				c-0.363,0.205,0.22,0.631-0.305,0.93C49.689,56.346,49.621,55.627,49.28,55.822z"/>
		</g>
		<g>
			<path fill="#FFFFFF" d="M38.883,56.924c-0.216-0.039-1.309-0.041-1.653-0.104c-0.961-0.178-1.627-1.408-1.424-2.508
				c0.089-0.475,0.374-0.578,0.623-0.531c0.227,0.041,0.452,0.217,0.405,0.465c-0.104,0.561,0.121,1.34,0.757,1.457
				c0.292,0.055,1.384,0.055,1.622,0.1c0.291,0.053,0.492,0.357,0.511,0.496c0.059-0.135,0.343-0.34,0.646-0.283
				c0.258,0.049,1.635,0.504,1.926,0.559c0.67,0.123,1.001-0.699,1.078-1.119c0.055-0.291,0.373-0.322,0.555-0.287
				c0.335,0.062,0.453,0.328,0.38,0.729c-0.204,1.1-1.101,2.029-2.104,1.842c-0.367-0.066-1.701-0.516-1.928-0.557
				c-0.411-0.076-0.238,0.625-0.833,0.516C38.86,57.59,39.271,56.996,38.883,56.924z"/>
		</g>
		<g>
			<path fill="#FFFFFF" d="M30.218,51.076c-0.14-0.17-0.976-0.875-1.198-1.146c-0.62-0.754-0.34-2.121,0.525-2.832
				c0.373-0.309,0.657-0.203,0.819-0.008c0.146,0.18,0.204,0.457,0.01,0.619c-0.44,0.361-0.77,1.102-0.359,1.6
				c0.189,0.229,1.024,0.934,1.179,1.121c0.188,0.229,0.146,0.592,0.072,0.709c0.13-0.064,0.479-0.039,0.674,0.197
				c0.167,0.203,0.928,1.439,1.117,1.668c0.431,0.527,1.213,0.109,1.543-0.162c0.229-0.188,0.492-0.006,0.61,0.137
				c0.216,0.264,0.136,0.543-0.18,0.803c-0.864,0.711-2.147,0.844-2.794,0.055c-0.238-0.287-0.971-1.488-1.119-1.666
				c-0.265-0.322-0.584,0.324-0.969-0.143C29.772,51.57,30.47,51.381,30.218,51.076z"/>
		</g>
	</g>
	<g>
		<g>
			<path fill="#FFFFFF" d="M49.231,35.999c0.095,0.095,0.644,0.473,0.794,0.625c0.422,0.421,0.332,1.268-0.15,1.751
				c-0.209,0.208-0.389,0.162-0.498,0.052c-0.1-0.099-0.15-0.265-0.043-0.374c0.246-0.246,0.403-0.714,0.124-0.994
				c-0.128-0.128-0.678-0.506-0.781-0.611c-0.127-0.128-0.122-0.35-0.085-0.426c-0.076,0.047-0.29,0.052-0.42-0.081
				c-0.114-0.113-0.65-0.818-0.777-0.947C47.1,34.701,46.651,35,46.466,35.184c-0.127,0.128-0.298,0.033-0.378-0.047
				c-0.146-0.147-0.114-0.322,0.061-0.497c0.483-0.483,1.256-0.64,1.695-0.199c0.16,0.161,0.677,0.848,0.775,0.947
				c0.181,0.18,0.337-0.231,0.598,0.028C49.472,35.672,49.06,35.828,49.231,35.999z"/>
		</g>
		<g>
			<path fill="#FFFFFF" d="M51.563,41.933c0.011,0.133,0.188,0.777,0.206,0.99c0.052,0.594-0.563,1.184-1.242,1.242
				c-0.294,0.025-0.401-0.126-0.414-0.28c-0.012-0.139,0.054-0.3,0.207-0.313c0.347-0.03,0.77-0.288,0.734-0.681
				c-0.015-0.181-0.192-0.824-0.204-0.97c-0.016-0.18,0.132-0.347,0.21-0.381c-0.09-0.013-0.255-0.146-0.272-0.333
				c-0.014-0.16,0.032-1.044,0.016-1.224c-0.036-0.414-0.572-0.475-0.831-0.453c-0.182,0.016-0.25-0.167-0.26-0.28
				c-0.019-0.207,0.12-0.32,0.366-0.341c0.681-0.06,1.371,0.318,1.425,0.938c0.02,0.227-0.026,1.084-0.014,1.225
				c0.021,0.253,0.404,0.039,0.438,0.406C51.959,41.838,51.543,41.694,51.563,41.933z"/>
		</g>
		<g>
			<path fill="#FFFFFF" d="M49.53,47.977c-0.079,0.109-0.357,0.715-0.481,0.891c-0.342,0.488-1.192,0.543-1.75,0.15
				c-0.241-0.168-0.227-0.354-0.137-0.48c0.08-0.113,0.235-0.195,0.361-0.105c0.283,0.201,0.773,0.273,0.999-0.049
				c0.104-0.148,0.384-0.754,0.468-0.875c0.105-0.146,0.324-0.18,0.406-0.156c-0.06-0.066-0.101-0.275,0.007-0.43
				c0.093-0.131,0.696-0.779,0.8-0.926c0.239-0.34-0.132-0.733-0.346-0.881c-0.148-0.105-0.083-0.289-0.018-0.383
				c0.119-0.169,0.297-0.167,0.5-0.023c0.559,0.393,0.845,1.125,0.486,1.635c-0.132,0.188-0.719,0.812-0.801,0.928
				c-0.146,0.207,0.286,0.291,0.074,0.592C49.892,48.158,49.669,47.779,49.53,47.977z"/>
		</g>
		<g>
			<path fill="#FFFFFF" d="M44.081,51.293c-0.128,0.035-0.732,0.316-0.939,0.373c-0.575,0.15-1.263-0.352-1.438-1.014
				c-0.075-0.283,0.057-0.416,0.206-0.455c0.135-0.035,0.305,0.004,0.344,0.152c0.088,0.336,0.416,0.707,0.797,0.605
				c0.176-0.047,0.778-0.33,0.921-0.367c0.175-0.047,0.363,0.07,0.411,0.141c-0.004-0.09,0.101-0.275,0.281-0.324
				c0.155-0.041,1.034-0.148,1.209-0.195c0.401-0.105,0.37-0.645,0.303-0.896c-0.046-0.174,0.121-0.273,0.231-0.303
				c0.201-0.053,0.335,0.064,0.399,0.303c0.174,0.66-0.079,1.404-0.682,1.564c-0.221,0.059-1.072,0.158-1.208,0.195
				c-0.247,0.064,0.03,0.406-0.323,0.502C44.242,51.666,44.314,51.23,44.081,51.293z"/>
		</g>
		<g>
			<path fill="#FFFFFF" d="M37.778,50.324c-0.121-0.059-0.765-0.23-0.96-0.32c-0.537-0.256-0.738-1.082-0.447-1.701
				c0.127-0.266,0.311-0.281,0.451-0.217c0.126,0.061,0.23,0.199,0.165,0.338c-0.148,0.314-0.137,0.811,0.22,0.977
				c0.164,0.078,0.808,0.25,0.941,0.312c0.164,0.076,0.234,0.287,0.225,0.373c0.055-0.07,0.253-0.148,0.423-0.066
				c0.146,0.066,0.887,0.551,1.049,0.627c0.376,0.178,0.699-0.254,0.812-0.49c0.077-0.164,0.27-0.131,0.371-0.084
				c0.189,0.09,0.217,0.266,0.111,0.49c-0.292,0.617-0.966,1.023-1.528,0.758c-0.206-0.096-0.923-0.568-1.051-0.629
				c-0.231-0.109-0.237,0.332-0.571,0.174C37.662,50.711,37.997,50.426,37.778,50.324z"/>
		</g>
		<g>
			<path fill="#FFFFFF" d="M33.579,45.524c-0.056-0.122-0.438-0.668-0.528-0.862c-0.248-0.542,0.13-1.305,0.752-1.59
				c0.267-0.123,0.42-0.016,0.484,0.125c0.058,0.128,0.049,0.301-0.092,0.366c-0.315,0.145-0.626,0.531-0.461,0.889
				c0.076,0.164,0.459,0.711,0.521,0.844c0.075,0.165-0.006,0.371-0.068,0.43c0.088-0.018,0.289,0.051,0.366,0.221
				c0.067,0.146,0.324,0.994,0.399,1.158c0.174,0.377,0.699,0.254,0.937,0.145c0.164-0.076,0.291,0.074,0.339,0.176
				c0.086,0.189-0.005,0.342-0.231,0.445c-0.619,0.285-1.398,0.162-1.657-0.402c-0.095-0.207-0.34-1.031-0.398-1.158
				c-0.106-0.23-0.396,0.102-0.55-0.234C33.239,45.746,33.68,45.743,33.579,45.524z"/>
		</g>
		<g>
			<path fill="#FFFFFF" d="M33.455,39.148c0.035-0.129,0.094-0.794,0.15-1c0.158-0.575,0.939-0.915,1.598-0.733
				c0.283,0.078,0.331,0.258,0.29,0.407c-0.036,0.135-0.155,0.262-0.304,0.221c-0.335-0.093-0.819,0.003-0.924,0.384
				c-0.048,0.174-0.106,0.839-0.146,0.981c-0.049,0.174-0.245,0.28-0.331,0.284c0.08,0.042,0.191,0.226,0.139,0.406
				c-0.042,0.155-0.392,0.969-0.438,1.144c-0.111,0.399,0.371,0.643,0.623,0.712c0.175,0.049,0.175,0.243,0.146,0.352
				c-0.056,0.201-0.225,0.258-0.463,0.193c-0.657-0.182-1.176-0.775-1.009-1.375c0.06-0.22,0.402-1.007,0.438-1.143
				c0.068-0.245-0.366-0.178-0.269-0.533C33.052,39.1,33.391,39.38,33.455,39.148z"/>
		</g>
		<g>
			<path fill="#FFFFFF" d="M37.463,34.188c0.111-0.076,0.583-0.547,0.76-0.668c0.491-0.338,1.308-0.096,1.694,0.468
				c0.167,0.242,0.087,0.41-0.04,0.498c-0.115,0.08-0.287,0.101-0.375-0.026c-0.196-0.287-0.629-0.526-0.955-0.302
				c-0.147,0.102-0.621,0.573-0.742,0.657c-0.149,0.102-0.366,0.057-0.434,0.006c0.031,0.083-0.002,0.294-0.156,0.4
				c-0.133,0.091-0.924,0.489-1.072,0.591c-0.343,0.236-0.131,0.732,0.018,0.947c0.102,0.149-0.021,0.299-0.115,0.364
				c-0.172,0.117-0.338,0.053-0.479-0.151c-0.387-0.563-0.398-1.35,0.113-1.703c0.188-0.129,0.957-0.512,1.073-0.591
				c0.208-0.145-0.169-0.373,0.135-0.582C37.187,33.892,37.264,34.325,37.463,34.188z"/>
		</g>
		<g>
			<path fill="#FFFFFF" d="M43.725,32.973c0.133,0.014,0.796-0.043,1.009-0.022c0.594,0.057,1.063,0.769,0.997,1.449
				c-0.028,0.293-0.197,0.371-0.351,0.356c-0.139-0.014-0.285-0.109-0.271-0.262c0.034-0.346-0.143-0.808-0.537-0.845
				c-0.181-0.018-0.844,0.038-0.99,0.025c-0.18-0.018-0.318-0.193-0.337-0.274c-0.028,0.084-0.19,0.223-0.376,0.205
				c-0.162-0.015-1.021-0.22-1.201-0.237c-0.413-0.041-0.571,0.476-0.596,0.735c-0.018,0.18-0.211,0.215-0.323,0.205
				c-0.206-0.021-0.292-0.177-0.268-0.423c0.065-0.68,0.562-1.291,1.181-1.231c0.229,0.022,1.062,0.224,1.201,0.238
				c0.253,0.025,0.113-0.392,0.479-0.357C43.703,32.568,43.484,32.951,43.725,32.973z"/>
		</g>
	</g>
	<g>
		<g>
			<path fill="#FFFFFF" d="M42.007,47.719c-0.081,0-0.481,0.074-0.611,0.074c-0.364,0-0.69-0.404-0.69-0.82
				c0-0.18,0.098-0.236,0.192-0.236c0.086,0,0.179,0.049,0.179,0.143c0,0.213,0.136,0.482,0.376,0.482
				c0.11,0,0.511-0.074,0.601-0.074c0.109,0,0.204,0.098,0.221,0.146c0.013-0.053,0.102-0.146,0.216-0.146
				c0.097,0,0.634,0.074,0.743,0.074c0.254,0,0.318-0.322,0.318-0.482c0-0.111,0.114-0.143,0.184-0.143
				c0.127,0,0.188,0.088,0.188,0.24c-0.001,0.416-0.267,0.816-0.645,0.816c-0.14,0-0.657-0.074-0.744-0.074
				c-0.155,0-0.045,0.246-0.269,0.246C42.045,47.965,42.155,47.719,42.007,47.719z"/>
		</g>
		<g>
			<path fill="#FFFFFF" d="M38.44,46.166c-0.062-0.053-0.415-0.254-0.515-0.338c-0.278-0.233-0.269-0.753,0-1.072
				c0.115-0.138,0.227-0.118,0.299-0.058c0.065,0.055,0.105,0.152,0.046,0.225c-0.139,0.162-0.208,0.455-0.022,0.61
				c0.084,0.071,0.438,0.273,0.506,0.332c0.084,0.07,0.093,0.205,0.075,0.254c0.044-0.033,0.172-0.047,0.259,0.027
				c0.076,0.062,0.438,0.463,0.522,0.533c0.193,0.164,0.451-0.041,0.552-0.164c0.072-0.084,0.181-0.035,0.234,0.01
				c0.097,0.082,0.087,0.189-0.012,0.305c-0.268,0.32-0.729,0.455-1.02,0.211c-0.105-0.09-0.455-0.48-0.521-0.535
				c-0.12-0.1-0.192,0.158-0.365,0.014C38.312,46.379,38.555,46.262,38.44,46.166z"/>
		</g>
		<g>
			<path fill="#FFFFFF" d="M36.711,42.682c-0.014-0.081-0.154-0.462-0.177-0.591c-0.062-0.358,0.281-0.75,0.691-0.821
				c0.177-0.031,0.249,0.056,0.265,0.148c0.016,0.085-0.017,0.186-0.109,0.202c-0.209,0.037-0.452,0.215-0.41,0.453
				c0.02,0.108,0.16,0.49,0.175,0.579c0.021,0.108-0.061,0.218-0.106,0.242c0.055,0.002,0.162,0.075,0.181,0.188
				c0.018,0.096,0.037,0.636,0.057,0.744c0.043,0.25,0.371,0.259,0.528,0.231c0.109-0.019,0.16,0.088,0.173,0.157
				c0.021,0.124-0.056,0.2-0.206,0.226c-0.41,0.072-0.849-0.121-0.915-0.495c-0.024-0.137-0.039-0.661-0.055-0.745
				c-0.026-0.152-0.249-0.002-0.287-0.223C36.477,42.76,36.738,42.827,36.711,42.682z"/>
		</g>
		<g>
			<path fill="#FFFFFF" d="M37.632,38.902c0.04-0.071,0.178-0.454,0.244-0.566c0.184-0.313,0.696-0.393,1.057-0.184
				c0.155,0.091,0.155,0.205,0.106,0.285c-0.042,0.074-0.132,0.131-0.213,0.084c-0.182-0.106-0.482-0.126-0.605,0.083
				c-0.054,0.095-0.192,0.478-0.238,0.556c-0.055,0.095-0.187,0.127-0.238,0.116c0.04,0.038,0.076,0.163,0.02,0.261
				c-0.05,0.085-0.382,0.511-0.438,0.606c-0.127,0.218,0.117,0.437,0.256,0.518c0.096,0.056,0.065,0.17,0.031,0.23
				c-0.064,0.109-0.172,0.117-0.303,0.042c-0.359-0.209-0.572-0.641-0.382-0.968c0.071-0.12,0.396-0.531,0.438-0.606
				c0.079-0.133-0.189-0.162-0.075-0.356C37.4,38.811,37.559,39.029,37.632,38.902z"/>
		</g>
		<g>
			<path fill="#FFFFFF" d="M40.77,36.602c0.076-0.028,0.428-0.231,0.551-0.276c0.342-0.123,0.786,0.147,0.926,0.54
				c0.062,0.169-0.012,0.256-0.1,0.288c-0.082,0.029-0.187,0.015-0.218-0.074c-0.072-0.2-0.289-0.408-0.516-0.327
				c-0.105,0.038-0.456,0.241-0.541,0.271c-0.103,0.038-0.226-0.023-0.257-0.063c0.007,0.054-0.047,0.173-0.155,0.211
				c-0.091,0.034-0.62,0.145-0.724,0.182c-0.237,0.085-0.19,0.411-0.137,0.562c0.037,0.103-0.06,0.173-0.126,0.196
				c-0.118,0.043-0.206-0.021-0.258-0.163c-0.14-0.392-0.025-0.858,0.332-0.986c0.131-0.047,0.645-0.152,0.725-0.182
				c0.146-0.053-0.04-0.247,0.171-0.322C40.65,36.383,40.63,36.652,40.77,36.602z"/>
		</g>
		<g>
			<path fill="#FFFFFF" d="M44.65,36.86c0.076,0.028,0.477,0.099,0.6,0.144c0.34,0.127,0.506,0.619,0.362,1.01
				c-0.063,0.168-0.175,0.188-0.265,0.155c-0.078-0.029-0.15-0.108-0.117-0.196c0.074-0.199,0.041-0.499-0.186-0.582
				c-0.103-0.038-0.503-0.109-0.588-0.14c-0.104-0.038-0.158-0.163-0.154-0.214c-0.031,0.046-0.147,0.103-0.256,0.062
				c-0.092-0.034-0.567-0.289-0.671-0.328c-0.237-0.088-0.411,0.192-0.466,0.341c-0.039,0.104-0.155,0.095-0.222,0.07
				c-0.118-0.044-0.146-0.149-0.092-0.292c0.144-0.39,0.53-0.673,0.888-0.542c0.131,0.048,0.591,0.298,0.672,0.328
				c0.146,0.054,0.126-0.214,0.337-0.136C44.7,36.618,44.512,36.809,44.65,36.86z"/>
		</g>
		<g>
			<path fill="#FFFFFF" d="M47.453,39.557c0.041,0.071,0.303,0.382,0.366,0.496c0.18,0.316-0.012,0.8-0.372,1.006
				c-0.156,0.088-0.255,0.031-0.302-0.05c-0.042-0.075-0.046-0.181,0.036-0.228c0.186-0.104,0.352-0.355,0.234-0.564
				c-0.055-0.096-0.317-0.408-0.36-0.486c-0.055-0.096-0.017-0.227,0.02-0.265c-0.054,0.016-0.181-0.016-0.236-0.115
				c-0.049-0.085-0.248-0.587-0.304-0.683c-0.124-0.22-0.437-0.118-0.575-0.039c-0.096,0.054-0.181-0.029-0.215-0.089
				c-0.062-0.11-0.015-0.208,0.116-0.283c0.361-0.206,0.841-0.172,1.029,0.158c0.068,0.121,0.26,0.608,0.303,0.683
				c0.078,0.134,0.235-0.082,0.346,0.113C47.648,39.404,47.38,39.429,47.453,39.557z"/>
		</g>
		<g>
			<path fill="#FFFFFF" d="M47.864,43.425c-0.016,0.08-0.016,0.487-0.04,0.616c-0.064,0.357-0.522,0.605-0.932,0.529
				c-0.177-0.033-0.215-0.139-0.199-0.231c0.018-0.085,0.081-0.168,0.174-0.151c0.209,0.039,0.499-0.044,0.542-0.281
				c0.02-0.108,0.021-0.516,0.037-0.603c0.021-0.109,0.133-0.184,0.184-0.191c-0.048-0.021-0.126-0.127-0.104-0.239
				c0.017-0.097,0.187-0.609,0.207-0.718c0.046-0.249-0.26-0.372-0.416-0.4c-0.109-0.021-0.119-0.139-0.107-0.207
				c0.022-0.125,0.121-0.168,0.271-0.141c0.411,0.076,0.756,0.409,0.686,0.783c-0.023,0.136-0.191,0.633-0.205,0.718
				c-0.03,0.152,0.23,0.088,0.19,0.309C48.111,43.434,47.89,43.281,47.864,43.425z"/>
		</g>
		<g>
			<path fill="#FFFFFF" d="M45.688,46.648c-0.063,0.053-0.325,0.363-0.426,0.447c-0.28,0.23-0.789,0.127-1.055-0.195
				c-0.114-0.139-0.074-0.246-0.002-0.305c0.065-0.055,0.17-0.076,0.23-0.004c0.133,0.162,0.409,0.285,0.594,0.133
				c0.086-0.07,0.349-0.381,0.418-0.438c0.085-0.07,0.221-0.055,0.264-0.027c-0.023-0.049-0.014-0.178,0.072-0.25
				c0.076-0.062,0.537-0.346,0.622-0.417c0.194-0.16,0.041-0.452-0.061-0.574c-0.07-0.085-0.003-0.184,0.051-0.227
				c0.099-0.081,0.201-0.051,0.298,0.065c0.266,0.321,0.315,0.8,0.021,1.041c-0.107,0.09-0.555,0.361-0.62,0.416
				c-0.12,0.098,0.122,0.219-0.053,0.361C45.872,46.814,45.801,46.557,45.688,46.648z"/>
		</g>
	</g>
</g>
</svg>
