<?xml version="1.0" encoding="utf-8"?>
<!-- Generator: Adobe Illustrator 15.0.0, SVG Export Plug-In . SVG Version: 6.00 Build 0)  -->
<!DOCTYPE svg PUBLIC "-//W3C//DTD SVG 1.1//EN" "http://www.w3.org/Graphics/SVG/1.1/DTD/svg11.dtd">
<svg version="1.1" id="Layer_1" xmlns="http://www.w3.org/2000/svg" xmlns:xlink="http://www.w3.org/1999/xlink" x="0px" y="0px"
	 width="600px" height="600px" viewBox="0 0 600 600" enable-background="new 0 0 600 600" xml:space="preserve">
<g>
	<g>
		<path fill="#4A384C" d="M208.514,368.472c-4.135,0-7.576-1.158-10.336-3.475c-2.748-2.328-4.902-4.785-6.452-7.365l-28.678-60.192
			v59.26c0,3.103-1.334,5.898-3.989,8.383c-2.687,2.503-6.254,3.758-10.728,3.758c-4.652,0-8.387-1.255-11.236-3.758
			c-2.849-2.484-4.266-5.28-4.266-8.383v-97.223c0-3.101,1.417-5.892,4.266-8.39c2.849-2.495,6.583-3.75,11.236-3.75h4.398
			c4.459,0,8.172,0.832,11.1,2.458c2.923,1.635,5.166,3.833,6.711,6.582l37.974,76.458l37.96-76.458
			c1.725-2.748,4.033-5.028,6.979-6.849c2.932-1.806,6.623-2.614,11.099-2.449l4.144,0.259c4.815,0,8.603,1.255,11.364,3.75
			c2.748,2.498,4.134,5.289,4.134,8.39V356.7c0,3.103-1.386,5.898-4.134,8.383c-2.761,2.503-6.549,3.758-11.364,3.758
			c-4.314,0-7.79-1.255-10.472-3.758c-2.66-2.484-3.985-5.28-3.985-8.383v-59.26l-28.95,60.192c-1.378,2.58-3.441,5.037-6.18,7.365
			C216.335,367.313,212.805,368.472,208.514,368.472z"/>
	</g>
	<g>
		<path fill="#4A384C" d="M386.409,247.427c4.13,0,7.584,1.156,10.337,3.482c2.752,2.318,4.906,4.775,6.452,7.354l28.673,60.183
			v-59.254c0-3.09,1.343-5.899,3.998-8.381c2.677-2.504,6.25-3.757,10.731-3.757c4.652,0,8.383,1.253,11.231,3.757
			c2.848,2.482,4.261,5.291,4.261,8.381v97.227c0,3.099-1.413,5.892-4.261,8.396c-2.849,2.488-6.579,3.735-11.231,3.735h-4.407
			c-4.455,0-8.168-0.815-11.095-2.449c-2.933-1.637-5.176-3.836-6.716-6.584l-37.974-76.447l-37.965,76.447
			c-1.722,2.748-4.038,5.036-6.974,6.848c-2.928,1.809-6.624,2.62-11.109,2.45l-4.125-0.265c-4.82,0-8.603-1.247-11.373-3.735
			c-2.751-2.505-4.129-5.298-4.129-8.396v-97.227c0-3.09,1.378-5.899,4.129-8.381c2.771-2.504,6.553-3.757,11.373-3.757
			c4.31,0,7.786,1.253,10.459,3.757c2.668,2.482,3.994,5.291,3.994,8.381v59.254l28.937-60.183c1.383-2.579,3.449-5.036,6.196-7.354
			C378.589,248.583,382.112,247.427,386.409,247.427z"/>
	</g>
</g>
<g>
	<g>
		<g>
			<path fill="#634B65" d="M317.272,15.958c4.148,0,24.482-3.735,31.118-3.735c18.47,0,35.077,20.543,35.077,41.713
				c0,9.129-4.989,12.033-9.756,12.033c-4.354,0-9.134-2.489-9.134-7.264c0-10.788-6.847-24.482-19.088-24.482
				c-5.6,0-25.935,3.733-30.499,3.733c-5.608,0-10.375-4.986-11.205-7.475c-0.627,2.7-5.193,7.475-11.003,7.475
				c-4.978,0-32.167-3.733-37.764-3.733c-12.864,0-16.186,16.396-16.186,24.482c0,5.605-5.816,7.264-9.34,7.264
				c-6.426,0-9.542-4.562-9.542-12.243c0-21.162,13.492-41.502,32.791-41.502c7.044,0,33.405,3.735,37.763,3.735
				c7.888,0,2.278-12.45,13.699-12.45C315.404,3.509,309.803,15.958,317.272,15.958z"/>
		</g>
		<g>
			<path fill="#634B65" d="M498.496,94.904c3.174,2.664,21.139,12.902,26.212,17.172c14.141,11.887,13.622,38.296-0.01,54.494
				c-5.872,6.99-11.552,6.007-15.202,2.932c-3.328-2.8-5.387-7.779-2.313-11.433c6.947-8.259,10.52-23.146,1.145-31.024
				c-4.283-3.61-22.248-13.846-25.736-16.775c-4.293-3.61-4.731-10.494-3.766-12.935c-2.214,1.66-8.783,2.375-13.234-1.36
				c-3.805-3.206-22.212-23.571-26.487-27.166c-9.845-8.282-22.945,2.125-28.151,8.314c-3.612,4.289-9.119,1.815-11.823-0.454
				c-4.92-4.141-4.367-9.634,0.579-15.516c13.619-16.2,37.034-23.073,51.799-10.652c5.398,4.541,23.166,24.361,26.501,27.168
				c6.035,5.076,9.761-8.056,18.491-0.708C505.075,84.179,492.786,90.094,498.496,94.904z"/>
		</g>
		<g>
			<path fill="#634B65" d="M586.364,271.964c0.716,4.095,7.875,23.484,9.016,30.023c3.154,18.2-14.243,38.079-35.091,41.695
				c-9.002,1.571-12.71-2.835-13.531-7.541c-0.737-4.288,0.899-9.418,5.602-10.243c10.621-1.844,22.937-10.933,20.843-22.999
				c-0.961-5.525-8.119-24.914-8.905-29.413c-0.962-5.523,3.134-11.073,5.442-12.32c-2.757-0.151-8.252-3.829-9.238-9.548
				c-0.856-4.916-1.831-32.343-2.792-37.851c-2.199-12.676-18.926-13.139-26.901-11.757c-5.512,0.961-8.15-4.483-8.751-7.957
				c-1.105-6.337,2.866-10.187,10.429-11.501c20.847-3.624,43.188,6.179,46.501,25.195c1.207,6.948,2.041,33.552,2.792,37.849
				c1.348,7.769,12.653,0.123,14.611,11.359C598.308,267.996,585.088,264.61,586.364,271.964z"/>
		</g>
		<g>
			<path fill="#634B65" d="M539.63,464.029c-2.089,3.591-9.089,23.043-12.43,28.779c-9.296,15.964-35.402,19.975-53.691,9.322
				c-7.899-4.586-7.896-10.354-5.499-14.479c2.195-3.761,6.75-6.636,10.877-4.239c9.322,5.434,24.604,6.403,30.753-4.174
				c2.827-4.851,9.826-24.293,12.122-28.239c2.822-4.85,9.529-6.461,12.093-5.92c-2.011-1.897-3.841-8.253-0.922-13.264
				c2.52-4.307,19.412-25.932,22.227-30.769c6.478-11.113-6.022-22.243-13.014-26.298c-4.841-2.823-3.346-8.682-1.58-11.729
				c3.238-5.564,8.746-5.96,15.383-2.098c18.293,10.647,29.082,32.54,19.373,49.22c-3.545,6.091-20.04,26.99-22.226,30.748
				c-3.973,6.83,9.607,8.243,3.866,18.113C551.332,468.686,543.387,457.578,539.63,464.029z"/>
		</g>
		<g>
			<path fill="#634B65" d="M380.238,580.936c-3.915,1.404-21.787,11.784-28.045,14.027c-17.382,6.232-39.946-7.505-47.091-27.432
				c-3.081-8.594,0.636-13,5.118-14.623c4.111-1.466,9.441-0.729,11.047,3.761c3.646,10.16,14.721,20.738,26.229,16.595
				c5.28-1.887,23.165-12.258,27.454-13.808c5.28-1.887,11.446,1.189,13.074,3.257c-0.329-2.747,2.371-8.786,7.83-10.745
				c4.688-1.686,31.54-7.346,36.807-9.238c12.113-4.332,9.713-20.892,6.969-28.507c-1.886-5.275,3.029-8.796,6.347-9.98
				c6.054-2.177,10.53,1.062,13.115,8.295c7.141,19.927,1.316,43.618-16.846,50.128c-6.641,2.382-32.712,7.759-36.811,9.234
				c-7.431,2.668,2.054,12.486-8.694,16.348C386.189,592.018,387.261,578.425,380.238,580.936z"/>
		</g>
		<g>
			<path fill="#634B65" d="M183.009,567.8c-3.902-1.449-24.263-5.012-30.491-7.316c-17.31-6.417-25.737-31.461-18.386-51.305
				c3.173-8.57,8.853-9.555,13.33-7.899c4.082,1.523,7.698,5.518,6.043,9.989c-3.761,10.126-2.088,25.347,9.379,29.591
				c5.258,1.954,25.61,5.518,29.898,7.105c5.258,1.94,8.001,8.278,7.909,10.895c1.518-2.306,7.461-5.197,12.904-3.178
				c4.683,1.738,28.875,14.678,34.116,16.634c12.066,4.473,20.879-9.752,23.688-17.341c1.958-5.244,7.979-4.775,11.28-3.55
				c6.039,2.233,7.373,7.589,4.705,14.791c-7.365,19.847-27.067,34.225-45.172,27.511c-6.619-2.45-30.025-15.116-34.107-16.627
				c-7.404-2.747-6.478,10.876-17.174,6.913C180.428,580.119,190.004,570.394,183.009,567.8z"/>
		</g>
		<g>
			<path fill="#634B65" d="M40.523,430.787c-2.054-3.62-15.339-19.452-18.622-25.22c-9.121-16.063,0.557-40.659,18.96-51.104
				c7.939-4.505,12.921-1.607,15.283,2.54c2.142,3.792,2.339,9.178-1.817,11.535c-9.384,5.324-17.907,18.047-11.86,28.683
				c2.765,4.871,16.051,20.715,18.312,24.674c2.765,4.882,0.79,11.491-0.961,13.431c2.642-0.78,9.055,0.834,11.921,5.881
				c2.466,4.333,12.631,29.82,15.401,34.691c6.347,11.192,22.253,5.979,29.284,1.975c4.867-2.755,9.177,1.479,10.924,4.539
				c3.178,5.6,0.75,10.561-5.926,14.353c-18.412,10.445-42.745,8.76-52.282-8.015c-3.476-6.146-13.25-30.907-15.401-34.691
				c-3.897-6.856-11.951,4.166-17.591-5.762C30.613,438.561,44.205,437.283,40.523,430.787z"/>
		</g>
		<g>
			<path fill="#634B65" d="M19.68,234.216c0.754-4.086,0.776-24.751,1.983-31.285c3.358-18.158,26.585-30.754,47.398-26.905
				c8.984,1.659,10.919,7.086,10.063,11.78c-0.794,4.282-4.117,8.526-8.812,7.663c-10.609-1.968-25.321,2.278-27.537,14.311
				c-1.023,5.51-1.062,26.182-1.874,30.673c-1.027,5.51-6.794,9.303-9.379,9.661c2.523,1.103,6.395,6.467,5.337,12.17
				c-0.904,4.898-9.52,30.958-10.542,36.466c-2.343,12.647,13.176,18.888,21.134,20.354c5.507,1.035,6.079,7.049,5.446,10.516
				c-1.185,6.329-6.224,8.559-13.777,7.163c-20.808-3.854-38.36-20.813-34.844-39.784c1.282-6.939,9.744-32.186,10.533-36.456
				c1.449-7.762-11.815-4.517-9.744-15.743C7.096,233.792,18.314,241.554,19.68,234.216z"/>
		</g>
		<g>
			<path fill="#634B65" d="M130.257,70.372c3.217-2.642,16.534-18.445,21.66-22.667c14.255-11.731,40.146-6.417,53.594,9.929
				c5.812,7.053,3.788,12.445,0.119,15.489c-3.367,2.758-8.646,3.871-11.679,0.186c-6.855-8.331-20.844-14.554-30.293-6.768
				c-4.328,3.558-17.653,19.356-21.177,22.261c-4.323,3.562-11.179,2.757-13.391,1.356c1.22,2.473,0.729,9.065-3.757,12.75
				c-3.845,3.166-27.212,17.564-31.526,21.122c-9.945,8.168-2.081,22.942,3.064,29.183c3.542,4.336,0.114,9.309-2.608,11.545
				c-4.973,4.084-10.261,2.546-15.146-3.377c-13.448-16.345-15.967-40.614-1.053-52.884c5.451-4.483,28.169-18.346,31.531-21.111
				c6.092-5.012-6.141-11.067,2.668-18.325C120.908,61.949,124.499,75.114,130.257,70.372z"/>
		</g>
	</g>
	<g>
		<g>
			<path fill="#826F84" d="M233.417,82.374c3.108-1.157,17.297-9.661,22.279-11.513c13.833-5.175,32.03,5.563,37.96,21.421
				c2.563,6.842-0.364,10.415-3.937,11.755c-3.261,1.216-7.544,0.692-8.883-2.887c-3.024-8.087-11.986-16.426-21.16-12.992
				c-4.191,1.562-18.39,10.064-21.809,11.342c-4.201,1.569-9.168-0.832-10.49-2.467c0.286,2.197-1.795,7.053-6.149,8.682
				c-3.735,1.4-25.153,6.217-29.349,7.788c-9.629,3.603-7.532,16.814-5.258,22.878c1.571,4.198-2.322,7.068-4.964,8.06
				c-4.828,1.8-8.44-0.746-10.586-6.5c-5.93-15.856-1.519-34.88,12.943-40.289c5.28-1.978,26.08-6.558,29.336-7.779
				c5.917-2.204-1.773-9.964,6.781-13.164C228.527,73.569,227.825,84.462,233.417,82.374z"/>
		</g>
		<g>
			<path fill="#826F84" d="M391.325,90.759c3.134,1.11,19.466,3.743,24.459,5.525c13.928,4.949,20.938,24.873,15.266,40.836
				c-2.444,6.881-6.983,7.729-10.581,6.451c-3.275-1.163-6.216-4.32-4.93-7.917c2.888-8.135,1.4-20.29-7.83-23.569
				c-4.227-1.503-20.559-4.141-23.995-5.361c-4.225-1.497-6.478-6.533-6.447-8.633c-1.189,1.863-5.902,4.24-10.287,2.684
				c-3.757-1.333-23.25-11.429-27.471-12.935c-9.7-3.441-16.587,8.023-18.76,14.124c-1.492,4.223-6.324,3.916-8.979,2.97
				c-4.851-1.723-5.988-5.996-3.93-11.789c5.671-15.955,21.292-27.662,35.837-22.496c5.324,1.887,24.188,11.766,27.476,12.939
				c5.942,2.112,5.056-8.774,13.649-5.722C393.257,80.875,385.698,88.751,391.325,90.759z"/>
		</g>
		<g>
			<path fill="#826F84" d="M506.777,198.823c1.682,2.864,12.479,15.386,15.164,19.966c7.471,12.75,0,32.521-14.61,41.077
				c-6.299,3.702-10.314,1.426-12.254-1.861c-1.747-3.002-1.97-7.314,1.325-9.243c7.457-4.36,14.133-14.628,9.178-23.073
				c-2.26-3.874-13.057-16.404-14.904-19.551c-2.266-3.862-0.751-9.169,0.631-10.749c-2.119,0.655-7.264-0.559-9.611-4.571
				c-2.015-3.441-10.434-23.718-12.697-27.581c-5.193-8.876-17.855-4.549-23.446-1.271c-3.858,2.263-7.365-1.08-8.782-3.516
				c-2.607-4.439-0.721-8.429,4.59-11.534c14.603-8.561,34.09-7.479,41.907,5.848c2.848,4.866,10.925,24.572,12.692,27.581
				c3.188,5.444,9.516-3.457,14.128,4.42C514.621,192.501,503.768,193.666,506.777,198.823z"/>
		</g>
		<g>
			<path fill="#826F84" d="M525.572,355.831c-0.562,3.278-0.355,19.813-1.256,25.053c-2.488,14.555-20.927,24.886-37.618,22.024
				c-7.202-1.225-8.813-5.547-8.168-9.313c0.583-3.432,3.187-6.864,6.957-6.219c8.506,1.452,20.233-2.102,21.874-11.75
				c0.76-4.416,0.559-20.962,1.173-24.553c0.755-4.429,5.327-7.513,7.404-7.829c-2.045-0.853-5.188-5.1-4.411-9.682
				c0.676-3.93,7.286-24.861,8.041-29.272c1.742-10.146-10.736-14.979-17.122-16.067c-4.424-0.759-4.941-5.567-4.469-8.341
				c0.866-5.087,4.877-6.915,10.938-5.882c16.687,2.856,30.902,16.233,28.309,31.454c-0.956,5.557-7.465,25.838-8.04,29.274
				c-1.066,6.225,9.507,3.478,7.976,12.479C535.637,356.042,526.577,349.951,525.572,355.831z"/>
		</g>
		<g>
			<path fill="#826F84" d="M438.885,488.09c-2.542,2.15-13.027,14.941-17.082,18.363c-11.28,9.543-32.035,5.575-42.978-7.354
				c-4.714-5.583-3.169-9.929-0.255-12.39c2.664-2.248,6.864-3.201,9.332-0.287c5.573,6.598,16.832,11.426,24.306,5.092
				c3.419-2.896,13.918-15.678,16.696-18.035c3.424-2.9,8.918-2.312,10.7-1.228c-1.001-1.972-0.685-7.247,2.866-10.249
				c3.045-2.566,21.572-14.335,25.005-17.23c7.848-6.636,1.413-18.368-2.775-23.306c-2.892-3.434-0.202-7.444,1.954-9.262
				c3.932-3.327,8.189-2.154,12.162,2.54c10.933,12.928,13.202,32.318,1.418,42.281c-4.311,3.646-22.337,14.979-24.996,17.231
				c-4.828,4.077,5.029,8.785-1.936,14.686C446.455,494.727,443.449,484.233,438.885,488.09z"/>
		</g>
		<g>
			<path fill="#826F84" d="M287.415,533.508c-3.336,0.005-19.588,3.037-24.895,3.056c-14.779,0.043-28.112-16.362-28.151-33.291
				c-0.014-7.316,3.955-9.635,7.777-9.66c3.485,0,7.308,1.982,7.325,5.802c0.013,8.629,5.53,19.566,15.318,19.535
				c4.481-0.009,20.742-3.032,24.39-3.051c4.481-0.008,8.313,3.959,8.98,5.948c0.504-2.146,4.139-5.981,8.782-5.996
				c3.985-0.008,25.746,2.919,30.224,2.91c10.296-0.029,12.912-13.154,12.899-19.623c-0.01-4.49,4.639-5.824,7.447-5.833
				c5.152-0.017,7.65,3.629,7.668,9.77c0.049,16.934-10.687,33.23-26.136,33.269c-5.646,0.018-26.73-2.909-30.215-2.904
				c-6.32,0.026-1.808,9.972-10.938,9.993C288.929,543.454,293.389,533.49,287.415,533.508z"/>
		</g>
		<g>
			<path fill="#826F84" d="M142.252,470.759c-2.545-2.138-16.937-10.284-21.015-13.681c-11.337-9.49-10.977-30.618-0.105-43.61
				c4.687-5.601,9.221-4.827,12.153-2.378c2.668,2.238,4.332,6.214,1.882,9.155c-5.539,6.614-8.365,18.53-0.856,24.815
				c3.432,2.879,17.829,11.025,20.629,13.36c3.445,2.879,3.81,8.383,3.05,10.34c1.76-1.334,7.009-1.923,10.573,1.054
				c3.059,2.564,17.837,18.803,21.261,21.682c7.9,6.61,18.346-1.755,22.493-6.724c2.889-3.428,7.3-1.457,9.464,0.343
				c3.945,3.31,3.524,7.697-0.413,12.412c-10.872,12.986-29.586,18.543-41.428,8.642c-4.328-3.621-18.583-19.447-21.256-21.677
				c-4.837-4.048-7.791,6.46-14.795,0.613C137.016,479.352,146.834,474.586,142.252,470.759z"/>
		</g>
		<g>
			<path fill="#826F84" d="M71.562,329.292c-0.583-3.271-6.338-18.764-7.268-23.996c-2.572-14.545,11.292-30.49,27.98-33.438
				c7.189-1.274,10.16,2.247,10.832,6.004c0.606,3.434-0.688,7.542-4.45,8.21c-8.506,1.497-18.333,8.802-16.626,18.442
				c0.772,4.426,6.54,19.923,7.181,23.508c0.785,4.425-2.476,8.875-4.319,9.867c2.204,0.122,6.606,3.063,7.4,7.627
				c0.707,3.925,1.55,25.861,2.331,30.276c1.795,10.134,15.164,10.463,21.537,9.335c4.419-0.771,6.535,3.573,7.022,6.355
				c0.896,5.07-2.26,8.15-8.308,9.227c-16.679,2.943-34.577-4.85-37.263-20.054c-0.987-5.557-1.708-26.844-2.322-30.276
				c-1.084-6.215-10.116-0.064-11.709-9.059C62.017,332.503,72.611,335.181,71.562,329.292z"/>
		</g>
		<g>
			<path fill="#826F84" d="M108.518,175.537c1.681-2.879,7.229-18.443,9.888-23.049c7.4-12.787,28.279-16.053,42.934-7.573
				c6.33,3.652,6.338,8.265,4.433,11.567c-1.747,3.02-5.39,5.331-8.694,3.419c-7.47-4.33-19.703-5.069-24.596,3.408
				c-2.251,3.882-7.812,19.455-9.634,22.619c-2.248,3.879-7.611,5.199-9.661,4.769c1.61,1.512,3.095,6.588,0.769,10.6
				c-2.002,3.456-15.476,20.789-17.723,24.668c-5.158,8.908,4.876,17.769,10.481,21.008c3.871,2.254,2.695,6.939,1.282,9.379
				c-2.581,4.45-6.979,4.784-12.299,1.709c-14.663-8.479-23.336-25.961-15.607-39.33c2.826-4.881,15.967-21.643,17.719-24.651
				c3.16-5.466-7.711-6.566-3.134-14.475C99.156,171.852,105.534,180.714,108.518,175.537z"/>
		</g>
	</g>
</g>
</svg>
