<?xml version="1.0" encoding="utf-8"?>
<!-- Generator: Adobe Illustrator 16.0.0, SVG Export Plug-In . SVG Version: 6.00 Build 0)  -->
<!DOCTYPE svg PUBLIC "-//W3C//DTD SVG 1.1//EN" "http://www.w3.org/Graphics/SVG/1.1/DTD/svg11.dtd">
<svg version="1.1" id="Layer_1" xmlns="http://www.w3.org/2000/svg" xmlns:xlink="http://www.w3.org/1999/xlink" x="0px" y="0px"
	 width="151.25px" height="67.25px" viewBox="0 0 151.25 67.25" enable-background="new 0 0 151.25 67.25" xml:space="preserve">
<path fill="#FFFFFF" d="M145.321,57.752h-5.091V7.797h5.091c1.432,0,2.46-0.275,3.082-0.824c0.62-0.549,0.931-1.278,0.931-2.185
	c0-0.86-0.311-1.577-0.931-2.151c-0.622-0.573-1.65-0.86-3.082-0.86h-16.197c-1.435,0-2.461,0.287-3.083,0.86
	c-0.621,0.574-0.931,1.291-0.931,2.151c0,0.907,0.31,1.636,0.931,2.185c0.622,0.549,1.648,0.824,3.083,0.824h5.087v39.92
	c-3.199,4.778-6.259,8.146-9.174,10.107c-2.102,1.385-4.229,2.078-6.379,2.078c-2.34,0-4.453-1.039-6.342-3.118
	c-1.888-2.078-2.832-4.719-2.832-7.92V1.777H98.376c-1.433,0-2.46,0.287-3.081,0.86c-0.622,0.574-0.934,1.291-0.934,2.151
	c0,0.907,0.312,1.636,0.934,2.185c0.621,0.549,1.648,0.824,3.081,0.824h5.017v39.92c-3.104,4.826-5.876,8.064-8.313,9.713
	s-4.753,2.473-6.952,2.473c-2.438,0-4.587-1.004-6.45-3.011s-2.796-4.54-2.796-7.597l0.03-7.025l0.017-0.001V17.903
	c0-4.3-1.695-8.266-5.088-11.897c-2.581-2.818-6.044-4.229-10.394-4.229c-2.772,0-5.53,0.824-8.277,2.473
	c-2.748,1.649-5.459,4.146-8.135,7.49c-1.576-3.344-3.535-5.841-5.876-7.49c-2.342-1.649-5.066-2.473-8.172-2.473
	c-5.161,0-10.297,2.748-15.409,8.242V3.927H6.468c-1.433,0-2.46,0.287-3.081,0.859C2.765,5.36,2.455,6.077,2.455,6.938
	c0,0.908,0.31,1.648,0.932,2.222c0.621,0.573,1.648,0.86,3.081,0.86h5.09v49.955h-5.09c-1.433,0-2.46,0.275-3.081,0.824
	c-0.622,0.55-0.932,1.278-0.932,2.186c0,0.86,0.31,1.577,0.932,2.151c0.621,0.572,1.648,0.859,3.081,0.859h16.198
	c1.434,0,2.46-0.287,3.081-0.859c0.622-0.574,0.933-1.291,0.933-2.151c0-0.907-0.311-1.636-0.933-2.186
	c-0.621-0.549-1.647-0.824-3.081-0.824h-5.089v-39.92c3.201-4.777,6.259-8.146,9.175-10.106c2.103-1.385,4.229-2.078,6.379-2.078
	c2.34,0,4.453,1.039,6.343,3.118c1.887,2.079,2.832,4.719,2.832,7.919v47.088h11.107c1.434,0,2.459-0.287,3.082-0.859
	c0.621-0.574,0.932-1.291,0.932-2.151c0-0.907-0.311-1.636-0.932-2.186c-0.623-0.549-1.648-0.824-3.082-0.824h-5.017v-39.92
	c3.104-4.825,5.876-8.063,8.312-9.712c2.439-1.648,4.755-2.473,6.953-2.473c2.437,0,4.587,1.004,6.451,3.011
	c1.862,2.007,2.796,4.54,2.796,7.597v19.887h-0.048v11.505c0,4.301,1.696,8.266,5.088,11.897c2.58,2.818,6.045,4.229,10.393,4.229
	c2.772,0,5.531-0.824,8.277-2.473c2.749-1.648,5.459-4.146,8.136-7.49c1.577,3.344,3.536,5.842,5.876,7.49
	c2.342,1.648,5.066,2.473,8.172,2.473c5.16,0,10.297-2.748,15.408-8.242v6.092h11.11c1.432,0,2.46-0.285,3.082-0.859
	c0.62-0.573,0.931-1.29,0.931-2.15c0-0.908-0.311-1.648-0.931-2.223C147.781,58.039,146.753,57.752,145.321,57.752z"/>
</svg>
