<?xml version="1.0" encoding="utf-8"?>
<!-- Generator: Adobe Illustrator 15.0.0, SVG Export Plug-In . SVG Version: 6.00 Build 0)  -->
<!DOCTYPE svg PUBLIC "-//W3C//DTD SVG 1.1//EN" "http://www.w3.org/Graphics/SVG/1.1/DTD/svg11.dtd">
<svg version="1.1" id="Layer_1" xmlns="http://www.w3.org/2000/svg" xmlns:xlink="http://www.w3.org/1999/xlink" x="0px" y="0px"
	 width="156px" height="156px" viewBox="0 0 156 156" enable-background="new 0 0 156 156" xml:space="preserve">
<g>
	<g>
		<g>
			<path fill="#634B65" d="M82.785,4.015c1.074,0,6.33-0.966,8.047-0.966c4.777,0,9.068,5.312,9.068,10.785
				c0,2.36-1.287,3.11-2.521,3.11c-1.125,0-2.361-0.643-2.361-1.876c0-2.79-1.771-6.331-4.936-6.331
				c-1.449,0-6.707,0.965-7.887,0.965c-1.447,0-2.68-1.287-2.895-1.93c-0.162,0.696-1.344,1.93-2.846,1.93
				c-1.289,0-8.317-0.965-9.763-0.965c-3.327,0-4.184,4.237-4.184,6.331c0,1.448-1.505,1.876-2.415,1.876
				c-1.662,0-2.467-1.18-2.467-3.165c0-5.472,3.484-10.73,8.475-10.73c1.824,0,8.637,0.966,9.764,0.966
				c2.039,0,0.59-3.219,3.541-3.219C82.303,0.796,80.854,4.015,82.785,4.015z"/>
		</g>
		<g>
			<path fill="#634B65" d="M129.641,24.425c0.818,0.69,5.463,3.335,6.777,4.439c3.656,3.075,3.52,9.901-0.002,14.089
				c-1.52,1.807-2.99,1.551-3.932,0.76c-0.861-0.725-1.393-2.013-0.598-2.957c1.795-2.137,2.721-5.985,0.297-8.023
				c-1.109-0.933-5.754-3.578-6.656-4.337c-1.107-0.933-1.223-2.712-0.975-3.342c-0.57,0.428-2.27,0.615-3.418-0.353
				c-0.986-0.829-5.744-6.092-6.85-7.022c-2.547-2.142-5.934,0.549-7.279,2.149c-0.934,1.109-2.359,0.47-3.057-0.117
				c-1.271-1.071-1.131-2.491,0.15-4.01c3.52-4.188,9.574-5.967,13.391-2.755c1.398,1.173,5.988,6.298,6.854,7.024
				c1.561,1.313,2.523-2.083,4.781-0.185C131.342,21.651,128.162,23.181,129.641,24.425z"/>
		</g>
		<g>
			<path fill="#634B65" d="M152.357,70.201c0.184,1.059,2.035,6.071,2.33,7.764c0.816,4.705-3.682,9.843-9.074,10.78
				c-2.322,0.404-3.283-0.736-3.496-1.953c-0.191-1.107,0.23-2.434,1.447-2.646c2.748-0.477,5.932-2.828,5.389-5.944
				c-0.246-1.429-2.098-6.441-2.301-7.605c-0.248-1.426,0.809-2.861,1.406-3.184c-0.713-0.041-2.133-0.991-2.389-2.472
				c-0.221-1.269-0.475-8.358-0.723-9.785c-0.568-3.276-4.891-3.398-6.955-3.039c-1.424,0.249-2.105-1.16-2.26-2.056
				c-0.287-1.638,0.738-2.636,2.693-2.976c5.391-0.938,11.168,1.6,12.023,6.515c0.314,1.796,0.527,8.674,0.721,9.785
				c0.35,2.008,3.275,0.032,3.779,2.936C155.445,69.176,152.027,68.301,152.357,70.201z"/>
		</g>
		<g>
			<path fill="#634B65" d="M140.275,119.858c-0.543,0.928-2.352,5.957-3.215,7.441c-2.402,4.125-9.152,5.164-13.881,2.41
				c-2.041-1.188-2.041-2.679-1.422-3.746c0.568-0.972,1.746-1.714,2.811-1.096c2.414,1.405,6.363,1.656,7.953-1.079
				c0.73-1.253,2.541-6.28,3.135-7.3c0.73-1.254,2.463-1.669,3.125-1.533c-0.52-0.488-0.992-2.131-0.238-3.428
				c0.65-1.115,5.02-6.703,5.75-7.954c1.672-2.874-1.559-5.748-3.369-6.8c-1.252-0.729-0.865-2.244-0.406-3.03
				c0.838-1.438,2.262-1.542,3.977-0.543c4.73,2.753,7.518,8.41,5.01,12.724c-0.92,1.576-5.182,6.978-5.75,7.951
				c-1.023,1.764,2.486,2.133,1.002,4.682C143.297,121.062,141.246,118.192,140.275,119.858z"/>
		</g>
		<g>
			<path fill="#634B65" d="M99.064,150.083c-1.01,0.363-5.631,3.047-7.248,3.627c-4.494,1.61-10.33-1.941-12.176-7.092
				c-0.799-2.223,0.162-3.363,1.322-3.781c1.061-0.379,2.441-0.188,2.857,0.972c0.939,2.625,3.803,5.36,6.783,4.292
				c1.361-0.49,5.986-3.171,7.096-3.569c1.365-0.489,2.961,0.306,3.379,0.84c-0.084-0.71,0.611-2.271,2.025-2.776
				c1.211-0.436,8.154-1.9,9.516-2.388c3.131-1.121,2.51-5.404,1.801-7.372c-0.486-1.365,0.783-2.273,1.641-2.582
				c1.568-0.562,2.723,0.277,3.391,2.146c1.85,5.151,0.34,11.275-4.355,12.962c-1.717,0.615-8.455,2.006-9.518,2.387
				c-1.918,0.688,0.531,3.229-2.248,4.225C100.605,152.948,100.881,149.433,99.064,150.083z"/>
		</g>
		<g>
			<path fill="#634B65" d="M48.072,146.687c-1.008-0.374-6.27-1.296-7.883-1.891c-4.475-1.66-6.654-8.137-4.751-13.266
				c0.821-2.216,2.289-2.467,3.447-2.041c1.054,0.393,1.988,1.425,1.56,2.582c-0.971,2.615-0.541,6.551,2.427,7.65
				c1.358,0.505,6.622,1.427,7.729,1.836c1.358,0.504,2.069,2.141,2.045,2.818c0.395-0.598,1.931-1.344,3.337-0.822
				c1.208,0.447,7.466,3.796,8.819,4.3c3.121,1.157,5.398-2.52,6.125-4.482c0.506-1.356,2.062-1.235,2.918-0.919
				c1.559,0.577,1.904,1.963,1.215,3.826c-1.902,5.129-6.999,8.848-11.676,7.111c-1.712-0.632-7.766-3.908-8.819-4.299
				c-1.913-0.709-1.675,2.812-4.44,1.788C47.406,149.87,49.881,147.358,48.072,146.687z"/>
		</g>
		<g>
			<path fill="#634B65" d="M11.234,111.265c-0.53-0.938-3.963-5.029-4.812-6.521c-2.357-4.152,0.142-10.51,4.902-13.211
				c2.053-1.168,3.338-0.418,3.949,0.654c0.557,0.98,0.605,2.374-0.468,2.984c-2.427,1.374-4.63,4.664-3.067,7.415
				c0.715,1.261,4.149,5.354,4.733,6.38c0.717,1.26,0.206,2.97-0.247,3.474c0.686-0.204,2.34,0.212,3.08,1.517
				c0.639,1.121,3.271,7.709,3.984,8.969c1.642,2.895,5.751,1.546,7.57,0.512c1.26-0.713,2.375,0.383,2.825,1.175
				c0.821,1.448,0.192,2.729-1.531,3.71c-4.761,2.701-11.054,2.266-13.517-2.071c-0.902-1.589-3.427-7.991-3.982-8.969
				c-1.007-1.774-3.091,1.073-4.547-1.491C8.676,113.271,12.189,112.942,11.234,111.265z"/>
		</g>
		<g>
			<path fill="#634B65" d="M5.845,60.443c0.197-1.059,0.203-6.4,0.516-8.088c0.867-4.694,6.873-7.951,12.253-6.956
				c2.322,0.428,2.825,1.831,2.602,3.045c-0.205,1.106-1.063,2.203-2.276,1.98c-2.744-0.509-6.547,0.59-7.121,3.701
				c-0.264,1.424-0.272,6.77-0.483,7.93c-0.265,1.426-1.757,2.403-2.427,2.497c0.653,0.285,1.652,1.67,1.38,3.146
				c-0.233,1.267-2.461,8.004-2.725,9.428c-0.604,3.271,3.407,4.886,5.465,5.265c1.422,0.266,1.572,1.819,1.407,2.715
				c-0.305,1.637-1.609,2.212-3.562,1.854c-5.381-0.996-9.916-5.379-9.008-10.285c0.332-1.796,2.519-8.321,2.725-9.428
				c0.371-2.007-3.059-1.167-2.521-4.068C2.594,60.332,5.497,62.34,5.845,60.443z"/>
		</g>
		<g>
			<path fill="#634B65" d="M34.436,18.082c0.83-0.681,4.273-4.766,5.601-5.858c3.686-3.034,10.377-1.66,13.854,2.567
				c1.502,1.822,0.982,3.217,0.032,4.004c-0.873,0.714-2.235,1.001-3.019,0.049c-1.773-2.154-5.391-3.763-7.831-1.751
				c-1.121,0.921-4.566,5.004-5.476,5.756c-1.119,0.922-2.891,0.711-3.465,0.351c0.318,0.64,0.189,2.344-0.968,3.296
				c-0.995,0.82-7.036,4.541-8.153,5.46c-2.57,2.112-0.538,5.932,0.793,7.544c0.918,1.121,0.03,2.407-0.673,2.987
				c-1.286,1.056-2.656,0.658-3.917-0.875c-3.477-4.227-4.126-10.501-0.273-13.671c1.408-1.16,7.283-4.744,8.153-5.459
				c1.575-1.296-1.59-2.86,0.688-4.737C32.018,15.905,32.946,19.309,34.436,18.082z"/>
		</g>
	</g>
	<g>
		<g>
			<path fill="#826F84" d="M74.932,134.728c-0.838,0-4.939,0.753-6.276,0.753c-3.726,0-7.074-4.143-7.074-8.413
				c0-1.84,1.005-2.426,1.967-2.426c0.878,0,1.843,0.502,1.843,1.465c0,2.176,1.38,4.938,3.848,4.938
				c1.129,0,5.231-0.754,6.153-0.754c1.127,0,2.09,1.006,2.256,1.507c0.127-0.544,1.049-1.507,2.221-1.507
				c1.002,0,6.484,0.754,7.613,0.754c2.596,0,3.266-3.305,3.266-4.938c0-1.129,1.172-1.465,1.881-1.465
				c1.301,0,1.928,0.92,1.928,2.47c0,4.269-2.721,8.369-6.611,8.369c-1.422,0-6.738-0.753-7.617-0.753
				c-1.59,0-0.459,2.51-2.762,2.51C75.307,137.237,76.436,134.728,74.932,134.728z"/>
		</g>
		<g>
			<path fill="#826F84" d="M38.385,118.807c-0.641-0.538-4.265-2.601-5.287-3.462c-2.852-2.398-2.745-7.725,0.002-10.99
				c1.184-1.41,2.33-1.211,3.065-0.592c0.672,0.564,1.088,1.569,0.467,2.307c-1.4,1.665-2.121,4.667-0.231,6.256
				c0.864,0.727,4.485,2.791,5.192,3.383c0.864,0.727,0.953,2.116,0.759,2.607c0.446-0.333,1.771-0.479,2.667,0.275
				c0.77,0.646,4.479,4.752,5.343,5.477c1.984,1.672,4.628-0.428,5.677-1.677c0.727-0.863,1.84-0.363,2.383,0.093
				c0.994,0.836,0.881,1.943-0.114,3.128c-2.749,3.269-7.47,4.653-10.447,2.149c-1.089-0.916-4.67-4.914-5.343-5.48
				c-1.219-1.021-1.97,1.625-3.729,0.145C37.056,120.969,39.538,119.776,38.385,118.807z"/>
		</g>
		<g>
			<path fill="#826F84" d="M20.664,83.101c-0.142-0.824-1.586-4.735-1.815-6.056c-0.638-3.668,2.869-7.677,7.074-8.408
				c1.816-0.316,2.563,0.573,2.729,1.521c0.15,0.866-0.18,1.9-1.127,2.064c-2.146,0.375-4.63,2.208-4.205,4.641
				c0.192,1.112,1.637,5.022,1.794,5.931c0.194,1.113-0.632,2.232-1.097,2.484c0.555,0.029,1.663,0.771,1.864,1.926
				c0.172,0.991,0.368,6.521,0.562,7.631c0.445,2.559,3.817,2.651,5.426,2.371c1.112-0.191,1.643,0.906,1.764,1.605
				c0.224,1.279-0.576,2.053-2.102,2.32c-4.205,0.73-8.711-1.248-9.377-5.08c-0.245-1.402-0.413-6.768-0.563-7.634
				c-0.272-1.566-2.555-0.023-2.946-2.292C18.257,83.901,20.921,84.583,20.664,83.101z"/>
		</g>
		<g>
			<path fill="#826F84" d="M30.089,44.369c0.422-0.725,1.834-4.647,2.506-5.805c1.875-3.218,7.141-4.027,10.828-1.878
				c1.593,0.924,1.591,2.086,1.107,2.919c-0.441,0.758-1.358,1.337-2.191,0.855c-1.881-1.095-4.963-1.292-6.203,0.842
				c-0.568,0.976-1.982,4.899-2.446,5.694c-0.566,0.978-1.919,1.303-2.437,1.197c0.405,0.38,0.775,1.662,0.186,2.672
				c-0.506,0.868-3.914,5.229-4.483,6.203c-1.305,2.242,1.216,4.484,2.628,5.304c0.976,0.57,0.675,1.751,0.318,2.365
				c-0.654,1.121-1.766,1.201-3.104,0.422c-3.688-2.146-5.863-6.559-3.906-9.925c0.716-1.229,4.041-5.443,4.483-6.203
				c0.799-1.374-1.938-1.662-0.781-3.648C27.73,43.429,29.332,45.669,30.089,44.369z"/>
		</g>
		<g>
			<path fill="#826F84" d="M62.233,20.794c0.788-0.283,4.394-2.376,5.654-2.829c3.505-1.256,8.056,1.514,9.496,5.531
				c0.623,1.733-0.125,2.623-1.029,2.95c-0.83,0.294-1.906,0.147-2.23-0.758c-0.732-2.049-2.967-4.183-5.288-3.35
				c-1.066,0.382-4.671,2.474-5.537,2.785c-1.065,0.383-2.31-0.238-2.637-0.656c0.064,0.554-0.477,1.773-1.577,2.167
				c-0.946,0.34-6.36,1.483-7.425,1.863c-2.442,0.875-1.957,4.214-1.404,5.749c0.379,1.065-0.612,1.774-1.281,2.013
				c-1.221,0.439-2.12-0.214-2.644-1.671c-1.441-4.019-0.267-8.798,3.399-10.112c1.338-0.478,6.596-1.564,7.422-1.86
				c1.497-0.538-0.414-2.519,1.753-3.296C61.033,18.558,60.815,21.301,62.233,20.794z"/>
		</g>
		<g>
			<path fill="#826F84" d="M102.006,23.442c0.789,0.292,4.891,1.011,6.148,1.476c3.492,1.294,5.191,6.346,3.707,10.345
				c-0.641,1.73-1.785,1.927-2.688,1.593c-0.822-0.305-1.551-1.112-1.219-2.015c0.758-2.039,0.422-5.11-1.891-5.967
				c-1.061-0.392-5.166-1.112-6.029-1.43c-1.062-0.394-1.613-1.671-1.596-2.199c-0.309,0.466-1.506,1.048-2.604,0.641
				c-0.941-0.349-5.82-2.961-6.877-3.354c-2.434-0.902-4.213,1.965-4.779,3.496c-0.393,1.058-1.609,0.963-2.275,0.716
				c-1.217-0.45-1.484-1.53-0.945-2.982c1.484-4.001,5.457-6.902,9.105-5.549c1.334,0.494,6.057,3.048,6.881,3.354
				c1.492,0.553,1.307-2.194,3.463-1.396C102.525,20.959,100.596,22.918,102.006,23.442z"/>
		</g>
		<g>
			<path fill="#826F84" d="M130.74,51.071c0.414,0.732,3.092,3.924,3.754,5.088c1.84,3.238-0.111,8.196-3.822,10.304
				c-1.602,0.909-2.607,0.325-3.082-0.513c-0.434-0.765-0.473-1.849,0.365-2.324c1.893-1.074,3.613-3.641,2.393-5.786
				c-0.559-0.982-3.236-4.177-3.693-4.976c-0.557-0.985-0.158-2.318,0.195-2.709c-0.535,0.158-1.826-0.167-2.404-1.186
				c-0.496-0.873-2.549-6.012-3.109-6.993c-1.277-2.257-4.486-1.206-5.902-0.4c-0.984,0.556-1.852-0.298-2.203-0.915
				c-0.639-1.13-0.152-2.13,1.195-2.894c3.711-2.108,8.619-1.768,10.541,1.617c0.703,1.238,2.672,6.231,3.105,6.995
				c0.785,1.383,2.41-0.84,3.551,1.162C132.736,49.507,129.996,49.764,130.74,51.071z"/>
		</g>
		<g>
			<path fill="#826F84" d="M134.945,90.712c-0.154,0.825-0.158,4.993-0.404,6.309c-0.676,3.663-5.359,6.203-9.557,5.426
				c-1.811-0.332-2.201-1.428-2.031-2.373c0.164-0.864,0.832-1.721,1.777-1.546c2.141,0.396,5.109-0.461,5.557-2.887
				c0.205-1.112,0.213-5.281,0.377-6.187c0.205-1.111,1.369-1.876,1.891-1.947c-0.51-0.223-1.291-1.305-1.076-2.454
				c0.182-0.989,1.922-6.244,2.125-7.352c0.473-2.553-2.658-3.812-4.262-4.105c-1.109-0.211-1.227-1.422-1.1-2.121
				c0.238-1.277,1.258-1.725,2.781-1.446c4.195,0.776,7.734,4.196,7.027,8.025c-0.26,1.397-1.969,6.488-2.127,7.35
				c-0.289,1.564,2.385,0.911,1.965,3.176C137.479,90.799,135.217,89.231,134.945,90.712z"/>
		</g>
		<g>
			<path fill="#826F84" d="M112.643,123.755c-0.646,0.532-3.332,3.717-4.369,4.568c-2.873,2.367-8.092,1.294-10.807-2
				c-1.17-1.422-0.764-2.511-0.023-3.123c0.68-0.559,1.744-0.781,2.357-0.039c1.381,1.68,4.203,2.936,6.107,1.365
				c0.873-0.719,3.561-3.904,4.27-4.49c0.873-0.719,2.256-0.555,2.703-0.273c-0.248-0.5-0.148-1.828,0.754-2.57
				c0.777-0.639,5.488-3.541,6.361-4.26c2.004-1.646,0.418-4.627-0.619-5.885c-0.717-0.874-0.025-1.876,0.523-2.328
				c1.004-0.825,2.072-0.514,3.055,0.682c2.713,3.296,3.223,8.189,0.215,10.664c-1.1,0.904-5.684,3.7-6.359,4.259
				c-1.229,1.011,1.24,2.229-0.537,3.694C114.529,125.453,113.807,122.798,112.643,123.755z"/>
		</g>
	</g>
	<g>
		<g>
			<path fill="#634B65" d="M56.769,94.716c-1.002,0-1.839-0.281-2.509-0.846c-0.668-0.562-1.192-1.16-1.568-1.786l-6.964-14.619
				v14.392c0,0.756-0.325,1.434-0.97,2.037c-0.651,0.611-1.519,0.912-2.605,0.912c-1.13,0-2.037-0.301-2.729-0.912
				c-0.691-0.604-1.037-1.281-1.037-2.037V68.248c0-0.754,0.346-1.434,1.037-2.039c0.691-0.606,1.599-0.912,2.729-0.912h1.067
				c1.086,0,1.984,0.202,2.695,0.596c0.714,0.398,1.257,0.933,1.632,1.602l9.222,18.567l9.221-18.567
				c0.418-0.669,0.981-1.223,1.694-1.664c0.711-0.439,1.61-0.637,2.696-0.596l1.005,0.062c1.172,0,2.09,0.306,2.762,0.912
				c0.668,0.605,1.004,1.285,1.004,2.039v23.608c0,0.756-0.336,1.434-1.004,2.037c-0.672,0.611-1.59,0.912-2.762,0.912
				c-1.048,0-1.89-0.301-2.54-0.912c-0.65-0.604-0.971-1.281-0.971-2.037V77.465l-7.028,14.619
				c-0.335,0.626-0.838,1.224-1.504,1.786C58.669,94.435,57.814,94.716,56.769,94.716z"/>
		</g>
		<g>
			<path fill="#634B65" d="M99.977,65.318c1.002,0,1.84,0.281,2.51,0.847c0.666,0.563,1.191,1.16,1.566,1.788l6.963,14.614v-14.39
				c0-0.751,0.326-1.433,0.973-2.037c0.65-0.607,1.516-0.912,2.604-0.912c1.133,0,2.037,0.305,2.729,0.912
				c0.691,0.604,1.037,1.286,1.037,2.037v23.61c0,0.756-0.346,1.433-1.037,2.039c-0.691,0.605-1.596,0.908-2.729,0.908h-1.068
				c-1.082,0-1.984-0.199-2.695-0.596c-0.711-0.397-1.254-0.93-1.631-1.596l-9.221-18.568l-9.221,18.568
				c-0.42,0.666-0.98,1.221-1.693,1.662c-0.713,0.437-1.611,0.636-2.697,0.595l-1.004-0.065c-1.17,0-2.09-0.303-2.764-0.908
				c-0.666-0.606-1.002-1.283-1.002-2.039v-23.61c0-0.751,0.336-1.433,1.002-2.037c0.674-0.607,1.594-0.912,2.764-0.912
				c1.045,0,1.889,0.305,2.541,0.912c0.646,0.604,0.971,1.286,0.971,2.037v14.39L95.9,67.953c0.334-0.628,0.836-1.225,1.504-1.788
				C98.076,65.6,98.932,65.318,99.977,65.318z"/>
		</g>
	</g>
</g>
</svg>
