<svg id="Layer_1" data-name="Layer 1" xmlns="http://www.w3.org/2000/svg" viewBox="0 0 641 214.9"><path d="M625.5,187.5c-1.1-2.6-3.7-4-7.7-4-.8,0-1.6.1-2.6.2a41.89,41.89,0,0,1-4.2.2c-3.3,0-5.4-1.1-6.4-3.4s-1.6-7.3-1.9-15.1c-.2-6-.4-12.8-.6-20.2s-.2-15.3-.2-23.6c0-13.1.1-26.7.2-40.9s.3-27.9.6-40.9c.3-3.3.7-6.6,1.3-10s2.2-5.1,4.7-5.1a14.83,14.83,0,0,1,3.4.4,23.8,23.8,0,0,0,3.4.4c3.5,0,6.2-1.2,7.9-3.6a13.07,13.07,0,0,0,2.6-8.1,12.73,12.73,0,0,0-2.8-7.9c-1.9-2.5-4.8-3.8-8.9-3.8s-9.8.3-17.4.9a188.43,188.43,0,0,1-20.8.6c-5,0-10.7-.1-17-.2-6.1-.1-12.1-.3-17.9-.6s-11-.4-15.7-.6S517.4,2,515.1,2a11.88,11.88,0,0,0-7.2,2.5c-2.3,1.6-3.4,4.5-3.4,8.5a13.63,13.63,0,0,0,2.3,8.3c1.5,2,4.3,3,8.3,3,6,0,9.9,1.8,11.5,5.5s2.6,9.4,2.8,17.2c.3,4.5.4,8.9.6,13.2s.2,8.7.2,13.2c0,6.8-.1,13.6-.2,20.6s-.4,13.9-.9,20.9c-1.5,18.1-5,30.5-10.6,37.2s-13,10-22.3,10c-5.5,0-10.1-1.6-13.6-4.7s-5.4-8.6-5.7-16.4c-.2-10.1-.5-20.3-.8-30.6s-.4-20.5-.4-30.6c0-6,.1-11.6.4-16.8s.5-10.5.8-16c.3-7.8.9-13.5,1.9-17.2s3.1-5.5,6.4-5.5,5.5-1.3,6.8-4a16.59,16.59,0,0,0,1.9-7.4c0-4-.8-6.9-2.5-8.5a8.52,8.52,0,0,0-6.2-2.5c-4.5,0-10.2.2-17.2.8s-13.3.8-19.1.8c-4.8,0-10.2-.1-16.2-.2s-12-.3-17.9-.6-11.5-.4-16.8-.6-9.6-.2-12.8-.2a11.58,11.58,0,0,0-8.1,2.8c-2.1,1.9-3.2,4.8-3.2,8.9a16.49,16.49,0,0,0,2.1,8.5c1.4,2.4,4.5,3.6,9.2,3.6a35,35,0,0,0,4.7-.4,44,44,0,0,1,6.2-.4c4,0,6.6,1.4,7.7,4.2s1.8,7.4,2.1,14c.3,5,.4,10.2.4,15.5V73.7q0,12.45-.6,24.9a233.28,233.28,0,0,1-2.5,24.9c-2.3,14.6-6.2,24.5-11.9,29.8s-13.1,7.9-22.5,7.9c-6.3,0-10.9-2.1-13.8-6.2s-4.5-10-4.7-17.5c-.4-12.9-.3-26.2.2-39.8l.3-5.1c.1-2.9.3-5.7.3-8.3.1-1,.1-2,.2-3V80.1c.1-2.7.1-5.2.1-7.5q0-36.6-14-53.4T287.6,2.4q-32.85,0-45.8,14.7c-8.6,9.8-15.2,23-19.4,39.6a7.75,7.75,0,0,1-2.5,4.1,6.26,6.26,0,0,1-4.3,1.5,6.13,6.13,0,0,1-3.8-1.5,6.55,6.55,0,0,1-2.3-4.5c-1.8-17.4-5.9-30.8-12.5-40.2S178.4,2,160.8,2c-15.1,0-28.1,3.7-39.1,11.1S102.5,35.6,97,58.2a4.34,4.34,0,0,1-2.1,3,8,8,0,0,1-4.7,1.1,6,6,0,0,1-4-1.5,5.8,5.8,0,0,1-1.7-4.5,179.36,179.36,0,0,1,1.1-20.4,125.87,125.87,0,0,0,1.1-16.6q0-6.45-2.1-10.2c-1.4-2.5-4.5-3.8-9.2-3.8A119,119,0,0,0,62,6.1,94.46,94.46,0,0,1,48.3,7C43.5,7,38,6.7,31.7,6.2s-11.8-.8-16.6-.8C10.8,5.4,7.7,6.6,5.9,9A13.24,13.24,0,0,0,3,17.2a22.23,22.23,0,0,0,1.7,8.5c1.1,2.6,3.7,4,7.7,4,.8,0,1.6-.1,2.6-.2a41.89,41.89,0,0,1,4.2-.2c3.3,0,5.4,1.1,6.4,3.4s1.6,7.3,1.9,15.1c.2,6,.4,12.8.6,20.2s.2,15.3.2,23.6c0,13.1-.1,26.7-.2,40.9s-.3,27.9-.6,40.9c-.3,3.3-.7,6.6-1.3,10s-2.2,5.1-4.7,5.1a14.83,14.83,0,0,1-3.4-.4,23.8,23.8,0,0,0-3.4-.4c-3.5,0-6.2,1.2-7.9,3.6a13.07,13.07,0,0,0-2.6,8.1A12.73,12.73,0,0,0,7,207.3c1.9,2.5,4.8,3.8,8.9,3.8s9.8-.3,17.4-.9a188.43,188.43,0,0,1,20.8-.6c5,0,10.7.1,17,.2s12.3.3,18.1.6,11,.4,15.7.6,8.1.2,10.4.2a11.88,11.88,0,0,0,7.2-2.5c2.3-1.6,3.4-4.5,3.4-8.5a13.63,13.63,0,0,0-2.3-8.3c-1.5-2-4.3-3-8.3-3-6,0-9.9-1.8-11.5-5.5s-2.6-9.4-2.8-17.2c-.3-4.5-.4-8.9-.6-13.2s-.2-8.7-.2-13.2c0-6.8.1-13.6.2-20.6s.4-13.9.9-20.9c1.5-18.1,5-30.5,10.6-37.2s13-10,22.3-10c5.5,0,10.1,1.6,13.6,4.7s5.4,8.6,5.7,16.4c.2,10.1.5,20.3.8,30.6s.4,20.5.4,30.6c0,6-.1,11.6-.4,16.8s-.5,10.5-.8,16c-.3,7.8-.9,13.5-1.9,17.2s-3.1,5.5-6.4,5.5-5.5,1.3-6.8,4a16.59,16.59,0,0,0-1.9,7.4c0,4,.8,6.9,2.5,8.5a8.52,8.52,0,0,0,6.2,2.5c4.5,0,10.2-.2,17.2-.8s13.3-.8,19.1-.8c4.8,0,10.2.1,16.2.2s12,.3,17.9.6,11.5.4,16.8.6,9.6.2,12.8.2a11.58,11.58,0,0,0,8.1-2.8c2.1-1.9,3.2-4.8,3.2-8.9a16.49,16.49,0,0,0-2.1-8.5c-1.4-2.4-4.5-3.6-9.2-3.6a35,35,0,0,0-4.7.4,44,44,0,0,1-6.2.4c-4,0-6.6-1.4-7.7-4.2s-1.8-7.4-2.1-14c-.3-5-.4-10.2-.4-15.5V139.5q0-12.45.6-24.9a233.28,233.28,0,0,1,2.5-24.9C229,75,233,65.1,238.6,59.8s13.1-7.9,22.5-7.9c6.3,0,10.9,2.1,13.8,6.2s4.5,10,4.7,17.5c.4,12.9.3,26.2-.2,39.8l-.3,5.1c-.1,2.9-.3,5.7-.3,8.3-.1,1-.1,2-.2,3v1.3c-.1,2.7-.1,5.1-.1,7.4q0,36.6,14,53.4t49.8,16.8q32.85,0,45.8-14.7c8.7-9.8,15.2-23,19.4-39.6a8.47,8.47,0,0,1,2.5-4.2,6.26,6.26,0,0,1,4.3-1.5,6.13,6.13,0,0,1,3.8,1.5,6.55,6.55,0,0,1,2.3,4.5c1.8,17.4,5.9,30.8,12.5,40.2S451.5,211,469.1,211c15.1,0,28.1-3.7,39.1-11.1s19.2-22.4,24.7-45.1a4.34,4.34,0,0,1,2.1-3,9.07,9.07,0,0,1,4.7-1.1,6,6,0,0,1,4,1.5,5.8,5.8,0,0,1,1.7,4.5,179.36,179.36,0,0,1-1.1,20.4,125.87,125.87,0,0,0-1.1,16.6q0,6.45,2.1,10.2c1.4,2.5,4.5,3.8,9.2,3.8a119,119,0,0,0,13.4-.8,124.68,124.68,0,0,1,14.1-.8c4.8,0,10.3.2,16.6.8s11.8.8,16.6.8c4.3,0,7.4-1.2,9.2-3.6a12.67,12.67,0,0,0,2.8-8.1A20.5,20.5,0,0,0,625.5,187.5Z" style="fill:#e7e2dd"/></svg>