<?xml version="1.0" encoding="utf-8"?>
<!-- Generator: Adobe Illustrator 15.0.0, SVG Export Plug-In . SVG Version: 6.00 Build 0)  -->
<!DOCTYPE svg PUBLIC "-//W3C//DTD SVG 1.1//EN" "http://www.w3.org/Graphics/SVG/1.1/DTD/svg11.dtd">
<svg version="1.1" id="Layer_1" xmlns="http://www.w3.org/2000/svg" xmlns:xlink="http://www.w3.org/1999/xlink" x="0px" y="0px"
	 width="300px" height="300px" viewBox="0 0 300 300" enable-background="new 0 0 300 300" xml:space="preserve">
<g>
	<g>
		<g>
			<path fill="#FFFFFF" d="M158.991,8.304c2.067,0,12.187-1.86,15.489-1.86c9.195,0,17.455,10.224,17.455,20.759
				c0,4.542-2.478,5.987-4.854,5.987c-2.165,0-4.543-1.238-4.543-3.612c0-5.371-3.41-12.186-9.503-12.186
				c-2.787,0-12.908,1.857-15.179,1.857c-2.787,0-5.16-2.478-5.573-3.715c-0.312,1.34-2.586,3.715-5.478,3.715
				c-2.481,0-16.008-1.857-18.792-1.857c-6.404,0-8.053,8.156-8.053,12.186c0,2.787-2.896,3.612-4.648,3.612
				c-3.199,0-4.749-2.271-4.749-6.091c0-10.533,6.707-20.655,16.312-20.655c3.511,0,16.626,1.86,18.795,1.86
				c3.925,0,1.134-6.197,6.816-6.197C158.062,2.107,155.274,8.304,158.991,8.304z"/>
		</g>
		<g>
			<path fill="#FFFFFF" d="M249.182,47.589c1.577,1.329,10.517,6.42,13.047,8.545c7.036,5.918,6.772,19.058-0.006,27.12
				c-2.925,3.478-5.754,2.986-7.567,1.462c-1.658-1.396-2.681-3.875-1.15-5.691c3.457-4.113,5.236-11.52,0.571-15.443
				c-2.136-1.796-11.073-6.886-12.811-8.349c-2.134-1.796-2.355-5.221-1.878-6.433c-1.096,0.824-4.368,1.183-6.579-0.68
				c-1.896-1.595-11.057-11.726-13.185-13.517c-4.902-4.123-11.419,1.056-14.012,4.137c-1.797,2.134-4.541,0.904-5.882-0.226
				c-2.449-2.062-2.177-4.794,0.288-7.719c6.776-8.06,18.429-11.485,25.776-5.303c2.69,2.259,11.527,12.123,13.19,13.52
				c3.004,2.527,4.857-4.009,9.203-0.355C252.456,42.25,246.335,45.194,249.182,47.589z"/>
		</g>
		<g>
			<path fill="#FFFFFF" d="M292.91,135.703c0.353,2.037,3.917,11.686,4.482,14.943c1.573,9.057-7.086,18.945-17.465,20.75
				c-4.472,0.778-6.321-1.417-6.73-3.759c-0.367-2.132,0.445-4.685,2.785-5.095c5.29-0.917,11.42-5.443,10.375-11.441
				c-0.476-2.75-4.04-12.399-4.431-14.641c-0.478-2.745,1.558-5.507,2.708-6.128c-1.374-0.079-4.106-1.907-4.6-4.757
				c-0.423-2.442-0.911-16.089-1.389-18.835c-1.096-6.307-9.416-6.541-13.388-5.849c-2.742,0.479-4.053-2.233-4.352-3.958
				c-0.551-3.153,1.421-5.074,5.187-5.728c10.376-1.805,21.496,3.079,23.141,12.54c0.605,3.458,1.016,16.697,1.388,18.834
				c0.673,3.866,6.305,0.063,7.274,5.652C298.852,133.728,292.272,132.044,292.91,135.703z"/>
		</g>
		<g>
			<path fill="#FFFFFF" d="M269.651,231.285c-1.043,1.786-4.526,11.467-6.188,14.324c-4.624,7.939-17.617,9.939-26.719,4.639
				c-3.929-2.285-3.929-5.156-2.735-7.21c1.094-1.871,3.359-3.3,5.41-2.109c4.645,2.705,12.246,3.188,15.309-2.077
				c1.404-2.412,4.891-12.089,6.032-14.051c1.406-2.414,4.74-3.213,6.017-2.951c-1-0.94-1.911-4.103-0.458-6.599
				c1.25-2.146,9.659-12.902,11.065-15.311c3.219-5.532-3-11.063-6.483-13.089c-2.409-1.401-1.667-4.319-0.783-5.832
				c1.612-2.77,4.354-2.969,7.656-1.046c9.104,5.3,14.468,16.188,9.641,24.491c-1.769,3.034-9.974,13.432-11.065,15.306
				c-1.971,3.395,4.783,4.104,1.928,9.011C275.47,233.602,271.522,228.078,269.651,231.285z"/>
		</g>
		<g>
			<path fill="#FFFFFF" d="M190.328,289.464c-1.945,0.699-10.84,5.864-13.953,6.981c-8.65,3.1-19.884-3.737-23.437-13.651
				c-1.538-4.278,0.312-6.474,2.545-7.278c2.042-0.729,4.699-0.362,5.5,1.87c1.811,5.054,7.322,10.318,13.057,8.262
				c2.622-0.943,11.523-6.104,13.66-6.87c2.628-0.941,5.698,0.588,6.502,1.616c-0.159-1.366,1.179-4.37,3.899-5.344
				c2.332-0.839,15.697-3.658,18.317-4.596c6.026-2.158,4.829-10.403,3.467-14.19c-0.937-2.628,1.507-4.376,3.155-4.971
				c3.02-1.082,5.241,0.534,6.529,4.13c3.558,9.916,0.653,21.704-8.386,24.95c-3.305,1.185-16.275,3.861-18.318,4.594
				c-3.693,1.325,1.021,6.217-4.329,8.132C193.293,294.979,193.822,288.212,190.328,289.464z"/>
		</g>
		<g>
			<path fill="#FFFFFF" d="M92.174,282.926c-1.94-0.72-12.068-2.494-15.173-3.639c-8.613-3.196-12.809-15.662-9.145-25.535
				c1.581-4.265,4.406-4.748,6.635-3.929c2.028,0.756,3.827,2.743,3.002,4.971c-1.868,5.033-1.041,12.608,4.671,14.726
				c2.615,0.972,12.747,2.746,14.876,3.534c2.615,0.97,3.983,4.12,3.936,5.425c0.759-1.15,3.716-2.587,6.423-1.583
				c2.325,0.861,14.371,7.307,16.976,8.276c6.008,2.228,10.391-4.85,11.79-8.628c0.972-2.61,3.97-2.378,5.617-1.769
				c3,1.11,3.666,3.778,2.336,7.364c-3.66,9.873-13.47,17.031-22.474,13.688c-3.295-1.216-14.948-7.522-16.976-8.274
				c-3.683-1.364-3.224,5.414-8.547,3.441C90.892,289.054,95.657,284.219,92.174,282.926z"/>
		</g>
		<g>
			<path fill="#FFFFFF" d="M21.266,214.744c-1.021-1.805-7.628-9.681-9.264-12.554c-4.538-7.992,0.272-20.229,9.437-25.429
				c3.951-2.248,6.425-0.805,7.602,1.259c1.071,1.888,1.166,4.57-0.9,5.745c-4.671,2.645-8.912,8.978-5.904,14.272
				c1.376,2.427,7.987,10.305,9.111,12.28c1.379,2.425,0.396,5.717-0.476,6.687c1.319-0.393,4.504,0.408,5.929,2.919
				c1.229,2.158,6.297,14.839,7.669,17.264c3.16,5.572,11.07,2.976,14.572,0.985c2.425-1.372,4.571,0.737,5.438,2.262
				c1.581,2.787,0.37,5.254-2.948,7.141c-9.164,5.199-21.277,4.361-26.017-3.987c-1.737-3.058-6.596-15.382-7.666-17.263
				c-1.938-3.416-5.949,2.065-8.752-2.871C16.343,218.604,23.104,217.973,21.266,214.744z"/>
		</g>
		<g>
			<path fill="#FFFFFF" d="M10.894,116.919c0.38-2.037,0.391-12.319,0.993-15.568c1.669-9.036,13.229-15.305,23.585-13.39
				c4.47,0.824,5.438,3.524,5.008,5.862c-0.395,2.129-2.047,4.241-4.382,3.812c-5.282-0.98-12.602,1.136-13.707,7.123
				c-0.508,2.741-0.524,13.031-0.931,15.265c-0.509,2.744-3.381,4.627-4.671,4.807c1.257,0.55,3.18,3.215,2.656,6.056
				c-0.449,2.438-4.737,15.407-5.244,18.148c-1.164,6.295,6.558,9.403,10.519,10.133c2.737,0.512,3.026,3.502,2.708,5.226
				c-0.586,3.15-3.098,4.258-6.857,3.568c-10.357-1.918-19.087-10.354-17.339-19.798c0.639-3.458,4.848-16.017,5.245-18.147
				c0.714-3.862-5.887-2.246-4.854-7.831C4.636,116.707,10.223,120.571,10.894,116.919z"/>
		</g>
		<g>
			<path fill="#FFFFFF" d="M65.927,35.379c1.598-1.311,8.226-9.174,10.78-11.277c7.094-5.84,19.974-3.195,26.666,4.941
				c2.891,3.507,1.891,6.192,0.062,7.707c-1.68,1.375-4.303,1.927-5.81,0.094c-3.414-4.147-10.376-7.243-15.074-3.371
				c-2.158,1.773-8.79,9.632-10.54,11.08c-2.154,1.774-5.564,1.369-6.669,0.675c0.613,1.232,0.365,4.511-1.863,6.344
				c-1.916,1.578-13.543,8.74-15.694,10.511c-4.947,4.066-1.036,11.418,1.526,14.522c1.767,2.158,0.059,4.633-1.295,5.749
				c-2.476,2.033-5.113,1.266-7.54-1.683c-6.692-8.136-7.942-20.213-0.526-26.315c2.71-2.233,14.019-9.132,15.694-10.508
				c3.032-2.496-3.06-5.506,1.323-9.118C61.272,31.189,63.058,37.742,65.927,35.379z"/>
		</g>
	</g>
	<g>
		<g>
			<path fill="#FFFFFF" d="M143.874,259.906c-1.613,0-9.506,1.449-12.081,1.449c-7.171,0-13.615-7.974-13.615-16.193
				c0-3.542,1.934-4.67,3.786-4.67c1.69,0,3.547,0.967,3.547,2.82c0,4.188,2.656,9.504,7.408,9.504
				c2.173,0,10.068-1.451,11.842-1.451c2.169,0,4.025,1.936,4.344,2.9c0.243-1.047,2.017-2.9,4.272-2.9
				c1.931,0,12.483,1.451,14.656,1.451c4.997,0,6.284-6.361,6.284-9.504c0-2.174,2.256-2.82,3.622-2.82
				c2.502,0,3.709,1.771,3.709,4.754c0,8.217-5.237,16.109-12.726,16.109c-2.737,0-12.969-1.449-14.66-1.449
				c-3.062,0-0.886,4.831-5.318,4.831C144.596,264.737,146.769,259.906,143.874,259.906z"/>
		</g>
		<g>
			<path fill="#FFFFFF" d="M73.528,229.261c-1.233-1.035-8.208-5.006-10.177-6.663c-5.489-4.617-5.284-14.869,0.004-21.155
				c2.278-2.714,4.485-2.331,5.9-1.139c1.293,1.086,2.094,3.021,0.898,4.439c-2.695,3.205-4.083,8.983-0.445,12.042
				c1.664,1.398,8.633,5.372,9.995,6.512c1.664,1.398,1.834,4.073,1.46,5.019c0.859-0.641,3.408-0.921,5.134,0.53
				c1.481,1.244,8.622,9.146,10.284,10.541c3.82,3.219,8.908-0.823,10.927-3.228c1.398-1.661,3.542-0.699,4.586,0.179
				c1.914,1.609,1.695,3.741-0.22,6.021c-5.292,6.291-14.378,8.957-20.11,4.137c-2.096-1.763-8.989-9.459-10.284-10.549
				c-2.346-1.966-3.791,3.128-7.179,0.278C70.97,233.423,75.747,231.128,73.528,229.261z"/>
		</g>
		<g>
			<path fill="#FFFFFF" d="M39.417,160.532c-0.273-1.587-3.053-9.115-3.495-11.657c-1.228-7.061,5.522-14.777,13.617-16.185
				c3.497-0.608,4.935,1.104,5.254,2.93c0.29,1.667-0.346,3.657-2.169,3.974c-4.13,0.72-8.912,4.249-8.094,8.932
				c0.37,2.141,3.15,9.667,3.453,11.416c0.374,2.144-1.216,4.297-2.111,4.782c1.068,0.057,3.202,1.485,3.589,3.707
				c0.331,1.908,0.708,12.553,1.081,14.688c0.857,4.925,7.348,5.104,10.444,4.563c2.141-0.368,3.162,1.745,3.395,3.091
				c0.43,2.462-1.109,3.951-4.045,4.466c-8.094,1.406-16.767-2.402-18.049-9.778c-0.472-2.699-0.795-13.026-1.084-14.694
				c-0.524-3.015-4.917-0.045-5.671-4.411C34.785,162.073,39.913,163.386,39.417,160.532z"/>
		</g>
		<g>
			<path fill="#FFFFFF" d="M57.56,85.979c0.812-1.395,3.53-8.945,4.823-11.173c3.609-6.194,13.745-7.752,20.843-3.616
				c3.066,1.778,3.062,4.016,2.132,5.62c-0.85,1.458-2.615,2.574-4.218,1.646c-3.621-2.107-9.553-2.486-11.94,1.622
				c-1.094,1.877-3.815,9.431-4.708,10.959c-1.09,1.883-3.694,2.509-4.69,2.305c0.78,0.732,1.493,3.198,0.357,5.144
				c-0.974,1.671-7.534,10.066-8.63,11.94c-2.511,4.315,2.34,8.632,5.059,10.21c1.878,1.097,1.299,3.371,0.613,4.554
				c-1.259,2.158-3.398,2.312-5.976,0.812c-7.098-4.133-11.286-12.626-7.519-19.105c1.378-2.365,7.778-10.477,8.63-11.94
				c1.538-2.645-3.731-3.198-1.504-7.023C53.019,84.17,56.102,88.482,57.56,85.979z"/>
		</g>
		<g>
			<path fill="#FFFFFF" d="M119.432,40.601c1.517-0.545,8.457-4.575,10.884-5.445c6.747-2.418,15.508,2.914,18.277,10.647
				c1.199,3.336-0.241,5.048-1.981,5.678c-1.596,0.566-3.667,0.284-4.293-1.459c-1.41-3.944-5.711-8.051-10.179-6.447
				c-2.051,0.736-8.991,4.761-10.657,5.361c-2.051,0.738-4.445-0.458-5.075-1.263c0.124,1.067-0.917,3.413-3.036,4.171
				c-1.821,0.654-12.243,2.854-14.292,3.586c-4.702,1.683-3.767,8.111-2.703,11.065c0.729,2.05-1.179,3.416-2.466,3.875
				c-2.35,0.846-4.081-0.412-5.088-3.216c-2.775-7.736-0.513-16.935,6.543-19.464c2.575-0.92,12.696-3.011,14.286-3.581
				c2.882-1.035-0.797-4.849,3.375-6.344C117.122,36.297,116.703,41.577,119.432,40.601z"/>
		</g>
		<g>
			<path fill="#FFFFFF" d="M195.988,45.698c1.519,0.562,9.416,1.945,11.835,2.841c6.722,2.491,9.994,12.214,7.138,19.912
				c-1.233,3.33-3.438,3.708-5.176,3.067c-1.58-0.587-2.984-2.141-2.344-3.878c1.459-3.924,0.812-9.836-3.641-11.486
				c-2.042-0.754-9.944-2.141-11.605-2.753c-2.044-0.758-3.105-3.217-3.072-4.233c-0.592,0.896-2.898,2.017-5.011,1.234
				c-1.812-0.671-11.203-5.699-13.237-6.455c-4.685-1.736-8.109,3.783-9.197,6.729c-0.758,2.037-3.099,1.854-4.38,1.379
				c-2.343-0.866-2.859-2.946-1.822-5.741c2.857-7.702,10.506-13.286,17.529-10.681c2.567,0.95,11.656,5.868,13.242,6.456
				c2.874,1.064,2.516-4.223,6.668-2.686C196.988,40.919,193.273,44.69,195.988,45.698z"/>
		</g>
		<g>
			<path fill="#FFFFFF" d="M251.3,98.88c0.797,1.409,5.949,7.554,7.224,9.794c3.542,6.232-0.212,15.777-7.357,19.834
				c-3.083,1.75-5.017,0.625-5.931-0.987c-0.834-1.472-0.909-3.558,0.703-4.475c3.642-2.067,6.953-7.007,4.604-11.136
				c-1.075-1.891-6.229-8.04-7.107-9.577c-1.073-1.896-0.306-4.461,0.374-5.215c-1.028,0.304-3.515-0.32-4.626-2.283
				c-0.956-1.68-4.908-11.573-5.984-13.461c-2.461-4.345-8.636-2.321-11.363-0.771c-1.894,1.071-3.564-0.574-4.241-1.761
				c-1.229-2.175-0.291-4.101,2.301-5.57c7.144-4.058,16.591-3.403,20.29,3.112c1.354,2.382,5.146,11.995,5.979,13.464
				c1.512,2.663,4.64-1.617,6.833,2.237C255.142,95.869,249.867,96.364,251.3,98.88z"/>
		</g>
		<g>
			<path fill="#FFFFFF" d="M259.392,175.183c-0.297,1.588-0.304,9.611-0.777,12.144c-1.3,7.051-10.316,11.939-18.396,10.443
				c-3.485-0.639-4.237-2.748-3.908-4.567c0.314-1.664,1.6-3.312,3.419-2.976c4.121,0.761,9.835-0.888,10.696-5.557
				c0.395-2.142,0.409-10.166,0.726-11.908c0.396-2.14,2.636-3.611,3.641-3.748c-0.982-0.429-2.484-2.512-2.071-4.725
				c0.35-1.903,3.697-12.019,4.091-14.151c0.907-4.912-5.117-7.336-8.205-7.902c-2.134-0.404-2.359-2.737-2.115-4.083
				c0.459-2.458,2.419-3.319,5.352-2.783c8.075,1.495,14.89,8.078,13.526,15.448c-0.5,2.691-3.787,12.489-4.092,14.146
				c-0.559,3.012,4.589,1.754,3.782,6.113C264.268,175.35,259.915,172.333,259.392,175.183z"/>
		</g>
		<g>
			<path fill="#FFFFFF" d="M216.464,238.785c-1.244,1.025-6.413,7.154-8.409,8.794c-5.532,4.557-15.578,2.49-20.802-3.85
				c-2.254-2.737-1.47-4.833-0.047-6.012c1.309-1.075,3.359-1.504,4.538-0.075c2.657,3.233,8.09,5.65,11.756,2.628
				c1.68-1.384,6.854-7.515,8.22-8.643c1.681-1.384,4.341-1.068,5.201-0.526c-0.476-0.963-0.285-3.52,1.453-4.948
				c1.494-1.229,10.562-6.815,12.243-8.199c3.857-3.169,0.805-8.906-1.192-11.327c-1.38-1.683-0.047-3.611,1.008-4.481
				c1.935-1.588,3.991-0.988,5.882,1.312c5.222,6.344,6.201,15.764,0.413,20.526c-2.116,1.741-10.939,7.122-12.242,8.197
				c-2.363,1.946,2.387,4.29-1.034,7.111C220.094,242.055,218.703,236.943,216.464,238.785z"/>
		</g>
	</g>
	<g>
		<g>
			<path fill="#FFFFFF" d="M108.915,182.89c-1.929,0-3.54-0.541-4.829-1.628c-1.286-1.083-2.295-2.233-3.019-3.438l-13.405-28.139
				v27.702c0,1.455-0.626,2.76-1.866,3.921c-1.254,1.177-2.923,1.756-5.015,1.756c-2.175,0-3.921-0.579-5.252-1.756
				c-1.331-1.161-1.996-2.466-1.996-3.921v-45.444c0-1.451,0.666-2.759,1.996-3.925c1.331-1.167,3.077-1.755,5.252-1.755h2.054
				c2.09,0,3.82,0.389,5.188,1.146c1.374,0.766,2.419,1.795,3.141,3.082l17.75,35.741l17.749-35.741
				c0.805-1.287,1.889-2.353,3.262-3.203c1.368-0.846,3.098-1.225,5.19-1.145l1.932,0.119c2.256,0,4.024,0.588,5.316,1.755
				c1.286,1.166,1.934,2.474,1.934,3.925v45.444c0,1.455-0.648,2.76-1.934,3.921c-1.292,1.177-3.06,1.756-5.316,1.756
				c-2.015,0-3.637-0.579-4.889-1.756c-1.25-1.161-1.869-2.466-1.869-3.921v-27.702l-13.528,28.139
				c-0.645,1.205-1.613,2.355-2.895,3.438C112.573,182.349,110.926,182.89,108.915,182.89z"/>
		</g>
		<g>
			<path fill="#FFFFFF" d="M192.082,126.305c1.929,0,3.542,0.541,4.831,1.628c1.282,1.084,2.295,2.233,3.015,3.442l13.405,28.131
				v-27.697c0-1.447,0.628-2.759,1.87-3.921c1.254-1.17,2.919-1.757,5.012-1.757c2.18,0,3.923,0.587,5.254,1.757
				c1.328,1.163,1.994,2.475,1.994,3.921v45.445c0,1.455-0.666,2.758-1.994,3.925c-1.331,1.166-3.074,1.748-5.254,1.748h-2.055
				c-2.085,0-3.82-0.383-5.188-1.146c-1.37-0.765-2.415-1.789-3.141-3.071l-17.749-35.742l-17.748,35.742
				c-0.807,1.282-1.888,2.35-3.26,3.199c-1.372,0.841-3.102,1.224-5.192,1.145l-1.932-0.126c-2.252,0-4.023-0.582-5.318-1.748
				c-1.282-1.167-1.931-2.47-1.931-3.925v-45.445c0-1.447,0.648-2.759,1.931-3.921c1.295-1.17,3.066-1.757,5.318-1.757
				c2.013,0,3.635,0.587,4.891,1.757c1.246,1.163,1.868,2.475,1.868,3.921v27.697l13.527-28.131c0.645-1.208,1.61-2.358,2.895-3.442
				C188.424,126.846,190.07,126.305,192.082,126.305z"/>
		</g>
	</g>
</g>
</svg>
